<svg width="106" height="22" viewBox="0 0 106 22" fill="none" xmlns="http://www.w3.org/2000/svg">
<path d="M14.3914 3.18835V20.7531C14.3914 21.1315 14.0812 21.4395 13.6973 21.4395H13.3321C12.9493 21.4395 12.638 21.1326 12.638 20.7531C12.638 20.1635 11.9472 19.8632 11.4874 20.2383C11.0584 20.5881 10.6052 20.8796 10.1278 21.1117C9.20054 21.5638 8.18635 21.7893 7.08525 21.7893C5.12836 21.7893 3.45856 21.0886 2.07367 19.6861C0.835074 18.4321 0.149777 16.9328 0.0199775 15.1915C-0.149422 12.9233 0.765774 10.6595 2.48837 9.15253C3.80396 8.00083 5.35386 7.42443 7.13805 7.42443C8.27214 7.42443 9.29954 7.66313 10.2191 8.14053C10.6668 8.37373 11.0892 8.66303 11.4841 9.00953C11.9329 9.40333 12.6402 9.09643 12.6402 8.50243V3.18835C12.6402 2.80995 12.9504 2.50195 13.3343 2.50195H13.6995C14.0823 2.50195 14.3936 2.80885 14.3936 3.18835H14.3914ZM7.28325 9.12063C6.29325 9.12063 5.37916 9.36153 4.54206 9.84222C3.70496 10.3229 3.03837 10.9983 2.54337 11.8684C2.04837 12.7385 1.80087 13.6581 1.80087 14.6283C1.80087 15.5985 2.05057 16.5104 2.54997 17.3882C3.04937 18.266 3.71926 18.9502 4.56076 19.4386C5.40226 19.9281 6.30535 20.1723 7.27005 20.1723C8.23474 20.1723 9.16534 19.9303 10.0365 19.4452C10.9077 18.9601 11.5787 18.3034 12.0484 17.4762C12.517 16.6479 12.7524 15.7162 12.7524 14.6789C12.7524 13.0982 12.2266 11.7771 11.1728 10.7156C10.119 9.65412 8.82324 9.12283 7.28325 9.12283V9.12063Z" fill="#0859DE"/>
<path d="M30.5534 17.2721C30.9967 17.502 31.1584 18.0608 30.8922 18.4799C30.5138 19.0772 30.0969 19.5821 29.6426 19.9946C28.998 20.5809 28.2742 21.0264 27.4679 21.3322C26.6627 21.638 25.7508 21.7909 24.7344 21.7909C22.4794 21.7909 20.7161 21.0605 19.4445 19.5997C18.1729 18.1389 17.5371 16.4878 17.5371 14.6453C17.5371 12.9117 18.0761 11.3673 19.1519 10.011C20.517 8.28623 22.3441 7.42383 24.6332 7.42383C26.9223 7.42383 28.8715 8.30712 30.2795 10.0737C31.154 11.1638 31.6523 12.4915 31.7754 14.0557C31.804 14.4253 31.5126 14.7454 31.1375 14.7454H20.0539C19.67 14.7454 19.3719 15.0809 19.417 15.4582C19.571 16.7265 20.0671 17.7891 20.9064 18.6482C21.8986 19.6635 23.124 20.1706 24.5826 20.1706C25.2866 20.1706 25.9708 20.0496 26.6374 19.8076C27.3029 19.5656 27.8694 19.2444 28.3358 18.8451C28.6801 18.5503 29.0442 18.1213 29.4303 17.5581C29.6789 17.1951 30.1629 17.0686 30.5556 17.2721H30.5534ZM28.987 13.2263C29.4237 13.2263 29.7416 12.7962 29.5898 12.3914C29.3808 11.8326 29.1212 11.3618 28.8121 10.979C28.3941 10.462 27.8529 10.0385 27.1863 9.70632C26.3646 9.29712 25.4428 9.09032 24.5232 9.11012C23.2241 9.13762 22.1043 9.56882 21.1616 10.4015C20.6204 10.8789 20.1793 11.5367 19.8394 12.376C19.6744 12.7841 19.9901 13.2274 20.4356 13.2274C22.3936 13.2274 27.0565 13.2274 28.9881 13.2274L28.987 13.2263Z" fill="#0859DE"/>
<path d="M34.9457 7.77539C35.2812 7.77539 35.5859 7.96789 35.7267 8.26929L39.3501 16.0485C39.6581 16.7096 40.6085 16.7074 40.9132 16.0452L44.4904 8.27369C44.6301 7.97009 44.9359 7.77539 45.2725 7.77539H45.2857C45.9116 7.77539 46.3273 8.41559 46.0677 8.97879L40.2983 21.4384H39.9672L34.1636 8.98099C33.9018 8.41779 34.3176 7.77539 34.9446 7.77539H34.9457Z" fill="#0859DE"/>
<path d="M71.7116 7.77649C72.0493 7.77649 72.3539 7.97669 72.4859 8.28359L75.7485 15.9209C76.0356 16.5919 76.9948 16.5985 77.2918 15.9319L80.9174 7.77539H81.2397L84.9016 15.9561C85.1986 16.6194 86.1512 16.6139 86.4416 15.9484L89.7801 8.27809C89.9132 7.97339 90.2157 7.77539 90.5523 7.77539H90.5677C91.1727 7.77539 91.5797 8.38809 91.3377 8.93699L85.8432 21.4384H85.5132L81.8601 13.3546C81.5642 12.699 80.6215 12.699 80.3256 13.3546L76.6758 21.4384H76.3447L70.9405 8.93149C70.704 8.38369 71.1099 7.77539 71.7127 7.77539L71.7116 7.77649Z" fill="#0859DE"/>
<path d="M95.362 13.3821C95.362 10.9885 97.3783 9.23955 99.8203 9.32315C102.146 9.40235 103.945 11.3856 103.945 13.6846V20.5794C103.945 21.0535 104.334 21.4374 104.813 21.4374C105.293 21.4374 105.681 21.0535 105.681 20.5794V13.5966C105.681 10.3065 103.077 7.47626 99.7488 7.42456C96.3751 7.37286 93.624 10.0602 93.624 13.3821V20.5794C93.624 21.0535 94.0123 21.4374 94.4919 21.4374C94.9715 21.4374 95.3598 21.0535 95.3598 20.5794V13.3821H95.362Z" fill="#0859DE"/>
<path d="M42.8487 5.64507H21.1062C19.8643 5.66157 19.8643 3.91037 21.1062 3.92687H42.8476C44.0818 3.91037 44.0939 5.66157 42.8476 5.64507H42.8487Z" fill="#0859DE"/>
<path d="M66.7301 9.78897C65.3342 8.25337 63.5533 7.47568 61.4347 7.47568C59.3161 7.47568 57.5209 8.25887 56.1283 9.80217C54.8622 11.1992 54.2209 12.8723 54.2209 14.7741C54.2209 16.676 54.8985 18.3942 56.2339 19.8286C57.5759 21.2696 59.3249 22 61.4347 22C63.5445 22 65.2814 21.2696 66.6234 19.8286C67.9588 18.3942 68.6364 16.6936 68.6364 14.7741C68.6364 12.8547 67.9951 11.1882 66.7301 9.78897ZM65.0746 18.3106C64.133 19.3226 62.9076 19.8352 61.4325 19.8352C59.9574 19.8352 58.7232 19.3226 57.7816 18.3106C56.8444 17.3041 56.3681 16.1106 56.3681 14.7631C56.3681 13.4157 56.818 12.2541 57.7068 11.2729C58.6847 10.1894 59.9387 9.64047 61.4314 9.64047C62.9241 9.64047 64.1682 10.1872 65.1483 11.2641C66.036 12.2464 66.487 13.4234 66.487 14.7631C66.487 16.1029 66.0118 17.3041 65.0735 18.3106H65.0746Z" fill="#6422CD"/>
<path d="M103.13 3.83898H51.9156V0.989996C51.9156 0.443298 51.4723 0 50.9256 0C50.3789 0 49.9356 0.443298 49.9356 0.989996V3.83788H47.0647C46.5356 3.83788 46.1077 4.26688 46.1077 4.79488C46.1077 5.32398 46.5367 5.75188 47.0647 5.75188H49.9356V20.6337C49.9356 21.1804 50.3789 21.6237 50.9256 21.6237C51.4723 21.6237 51.9156 21.1804 51.9156 20.6337V5.75298H103.13C103.659 5.75298 104.087 5.32398 104.087 4.79598C104.087 4.26688 103.658 3.83898 103.13 3.83898Z" fill="#6422CD"/>
</svg>
