<svg width="100" height="21" viewBox="0 0 100 21" fill="none" xmlns="http://www.w3.org/2000/svg">
<path d="M13.6178 3.04338V19.8097C13.6178 20.1709 13.3242 20.4649 12.961 20.4649H12.6154C12.2532 20.4649 11.9586 20.172 11.9586 19.8097C11.9586 19.2469 11.305 18.9603 10.8699 19.3183C10.4639 19.6522 10.0351 19.9305 9.58337 20.152C8.70593 20.5836 7.74626 20.7988 6.70435 20.7988C4.85266 20.7988 3.27263 20.13 1.96219 18.7912C0.790181 17.5942 0.141725 16.1631 0.0189035 14.5009C-0.141389 12.3358 0.724607 10.175 2.3546 8.73646C3.59947 7.63711 5.06604 7.08691 6.75431 7.08691C7.82744 7.08691 8.79961 7.31476 9.66977 7.77046C10.0934 7.99306 10.4931 8.26921 10.8668 8.59996C11.2914 8.97586 11.9607 8.68291 11.9607 8.11591V3.04338C11.9607 2.68218 12.2542 2.38818 12.6175 2.38818H12.9631C13.3253 2.38818 13.6198 2.68113 13.6198 3.04338H13.6178ZM6.89171 8.70601C5.95493 8.70601 5.08998 8.93596 4.29788 9.3948C3.50579 9.85365 2.87503 10.4984 2.40664 11.3289C1.93825 12.1594 1.70406 13.0372 1.70406 13.9633C1.70406 14.8894 1.94033 15.7599 2.41288 16.5978C2.88543 17.4357 3.51932 18.0888 4.31558 18.555C5.11184 19.0222 5.96638 19.2553 6.87922 19.2553C7.79205 19.2553 8.67262 19.0243 9.49698 18.5613C10.3213 18.0982 10.9563 17.4714 11.4007 16.6818C11.8441 15.8911 12.0669 15.0018 12.0669 14.0116C12.0669 12.5028 11.5693 11.2417 10.5722 10.2285C9.57505 9.21526 8.34891 8.70811 6.89171 8.70811V8.70601Z" fill="white"/>
<path d="M28.9109 16.487C29.3303 16.7065 29.4833 17.2399 29.2315 17.6399C28.8734 18.2101 28.4789 18.692 28.049 19.0858C27.4391 19.6454 26.7542 20.0707 25.9913 20.3626C25.2293 20.6545 24.3665 20.8004 23.4047 20.8004C21.2709 20.8004 19.6024 20.1032 18.3992 18.7088C17.196 17.3144 16.5944 15.7384 16.5944 13.9796C16.5944 12.3249 17.1044 10.8507 18.1223 9.55602C19.4141 7.90962 21.1429 7.08643 23.309 7.08643C25.475 7.08643 27.3194 7.92957 28.6517 9.61587C29.4792 10.6564 29.9507 11.9238 30.0673 13.4168C30.0943 13.7696 29.8185 14.0752 29.4636 14.0752H18.9759C18.6126 14.0752 18.3305 14.3954 18.3732 14.7556C18.5189 15.9662 18.9883 16.9805 19.7825 17.8006C20.7214 18.7697 21.8809 19.2538 23.2611 19.2538C23.9272 19.2538 24.5746 19.1383 25.2054 18.9073C25.8351 18.6763 26.3712 18.3697 26.8125 17.9885C27.1383 17.7071 27.4828 17.2976 27.8481 16.76C28.0834 16.4135 28.5414 16.2928 28.9129 16.487H28.9109ZM27.4287 12.6252C27.8419 12.6252 28.1427 12.2146 27.9991 11.8282C27.8013 11.2948 27.5557 10.8454 27.2632 10.48C26.8677 9.98651 26.3556 9.58227 25.7248 9.26517C24.9473 8.87457 24.075 8.67717 23.2049 8.69607C21.9756 8.72232 20.916 9.13392 20.024 9.92876C19.5119 10.3845 19.0945 11.0124 18.7729 11.8135C18.6168 12.2031 18.9155 12.6262 19.337 12.6262C21.1898 12.6262 25.602 12.6262 27.4297 12.6262L27.4287 12.6252Z" fill="white"/>
<path d="M33.0674 7.42188C33.3849 7.42188 33.6732 7.60562 33.8064 7.89332L37.235 15.3189C37.5264 15.9499 38.4258 15.9478 38.7141 15.3157L42.0989 7.89752C42.2311 7.60772 42.5205 7.42188 42.839 7.42188H42.8515C43.4437 7.42188 43.8372 8.03297 43.5915 8.57057L38.1322 20.4639H37.8189L32.3273 8.57267C32.0796 8.03507 32.4731 7.42188 33.0664 7.42188H33.0674Z" fill="white"/>
<path d="M67.8567 7.42244C68.1763 7.42244 68.4646 7.61354 68.5895 7.90649L71.6767 15.1966C71.9484 15.8371 72.856 15.8434 73.137 15.2071L76.5677 7.42139H76.8727L80.3377 15.2302C80.6187 15.8634 81.5201 15.8581 81.7949 15.2229L84.9539 7.90123C85.0799 7.61039 85.3661 7.42139 85.6846 7.42139H85.6992C86.2716 7.42139 86.6568 8.00623 86.4278 8.53018L81.2287 20.4634H80.9164L77.4597 12.747C77.1797 12.1212 76.2877 12.1212 76.0077 12.747L72.5541 20.4634H72.2408L67.1271 8.52493C66.9033 8.00203 67.2874 7.42139 67.8578 7.42139L67.8567 7.42244Z" fill="white"/>
<path d="M90.2356 12.7739C90.2356 10.4891 92.1435 8.81962 94.4542 8.89942C96.6546 8.97502 98.3575 10.8682 98.3575 13.0627V19.644C98.3575 20.0966 98.7249 20.463 99.1787 20.463C99.6325 20.463 99.9999 20.0966 99.9999 19.644V12.9787C99.9999 9.83811 97.5362 7.13648 94.3866 7.08713C91.1943 7.03778 88.5911 9.60292 88.5911 12.7739V19.644C88.5911 20.0966 88.9585 20.463 89.4123 20.463C89.8661 20.463 90.2335 20.0966 90.2335 19.644V12.7739H90.2356Z" fill="white"/>
<path d="M40.545 5.38825H19.9713C18.7962 5.404 18.7962 3.73241 19.9713 3.74816H40.5439C41.7118 3.73241 41.7232 5.404 40.5439 5.38825H40.545Z" fill="white"/>
<path d="M63.1431 9.34388C61.8222 7.87809 60.1371 7.13574 58.1324 7.13574C56.1277 7.13574 54.429 7.88334 53.1112 9.35648C51.9132 10.69 51.3064 12.287 51.3064 14.1025C51.3064 15.9179 51.9476 17.558 53.2112 18.9272C54.481 20.3027 56.136 20.9999 58.1324 20.9999C60.1287 20.9999 61.7722 20.3027 63.0421 18.9272C64.3057 17.558 64.9469 15.9347 64.9469 14.1025C64.9469 12.2702 64.3401 10.6795 63.1431 9.34388ZM61.5766 17.4782C60.6856 18.4442 59.5261 18.9335 58.1303 18.9335C56.7345 18.9335 55.5666 18.4442 54.6757 17.4782C53.7888 16.5175 53.3382 15.3782 53.3382 14.092C53.3382 12.8057 53.7639 11.6969 54.6049 10.7603C55.5302 9.72608 56.7168 9.20213 58.1292 9.20213C59.5417 9.20213 60.7189 9.72398 61.6463 10.7519C62.4863 11.6896 62.913 12.8131 62.913 14.092C62.913 15.3709 62.4634 16.5175 61.5755 17.4782H61.5766Z" fill="white"/>
<path d="M97.5865 3.66448H49.125V0.944996C49.125 0.423148 48.7055 0 48.1882 0C47.6709 0 47.2515 0.423148 47.2515 0.944996V3.66343H44.5348C44.0342 3.66343 43.6293 4.07293 43.6293 4.57693C43.6293 5.08198 44.0352 5.49043 44.5348 5.49043H47.2515V19.6958C47.2515 20.2177 47.6709 20.6408 48.1882 20.6408C48.7055 20.6408 49.125 20.2177 49.125 19.6958V5.49148H97.5865C98.0871 5.49148 98.492 5.08198 98.492 4.57798C98.492 4.07293 98.0861 3.66448 97.5865 3.66448Z" fill="white"/>
</svg>
