<svg width="101" height="22" viewBox="0 0 101 22" fill="none" xmlns="http://www.w3.org/2000/svg">
<path d="M14.1178 3.54314V20.3095C14.1178 20.6707 13.8242 20.9647 13.461 20.9647H13.1154C12.7532 20.9647 12.4586 20.6717 12.4586 20.3095C12.4586 19.7467 11.805 19.46 11.3699 19.8181C10.9639 20.152 10.5351 20.4302 10.0834 20.6518C9.20593 21.0833 8.24626 21.2986 7.20435 21.2986C5.35266 21.2986 3.77263 20.6297 2.46219 19.291C1.29018 18.094 0.641725 16.6628 0.518903 15.0007C0.358611 12.8356 1.22461 10.6747 2.8546 9.23621C4.09947 8.13687 5.56604 7.58667 7.25431 7.58667C8.32744 7.58667 9.29961 7.81452 10.1698 8.27022C10.5934 8.49282 10.9931 8.76897 11.3668 9.09971C11.7914 9.47561 12.4607 9.18266 12.4607 8.61567V3.54314C12.4607 3.18194 12.7542 2.88794 13.1175 2.88794H13.4631C13.8253 2.88794 14.1198 3.18089 14.1198 3.54314H14.1178ZM7.39171 9.20576C6.45493 9.20576 5.58998 9.43571 4.79788 9.89456C4.00579 10.3534 3.37503 10.9981 2.90664 11.8287C2.43825 12.6592 2.20406 13.537 2.20406 14.4631C2.20406 15.3892 2.44033 16.2596 2.91288 17.0975C3.38543 17.9354 4.01932 18.5885 4.81558 19.0547C5.61184 19.522 6.46638 19.7551 7.37922 19.7551C8.29205 19.7551 9.17262 19.5241 9.99698 19.061C10.8213 18.598 11.4563 17.9711 11.9007 17.1815C12.3441 16.3909 12.5669 15.5015 12.5669 14.5114C12.5669 13.0025 12.0693 11.7415 11.0722 10.7283C10.075 9.71501 8.84891 9.20786 7.39171 9.20786V9.20576Z" fill="white"/>
<path d="M29.4109 16.9872C29.8303 17.2067 29.9833 17.7401 29.7315 18.1401C29.3734 18.7103 28.9789 19.1922 28.549 19.586C27.9391 20.1456 27.2542 20.5709 26.4913 20.8628C25.7293 21.1547 24.8665 21.3006 23.9047 21.3006C21.7709 21.3006 20.1024 20.6034 18.8992 19.209C17.696 17.8146 17.0944 16.2386 17.0944 14.4798C17.0944 12.825 17.6044 11.3508 18.6223 10.0562C19.9141 8.40981 21.6429 7.58661 23.809 7.58661C25.975 7.58661 27.8194 8.42976 29.1517 10.116C29.9792 11.1566 30.4507 12.4239 30.5673 13.917C30.5943 14.2698 30.3185 14.5754 29.9636 14.5754H19.4759C19.1126 14.5754 18.8305 14.8956 18.8732 15.2558C19.0189 16.4664 19.4883 17.4807 20.2825 18.3008C21.2214 19.2699 22.3809 19.754 23.7611 19.754C24.4272 19.754 25.0746 19.6385 25.7054 19.4075C26.3351 19.1765 26.8712 18.8699 27.3125 18.4887C27.6383 18.2073 27.9828 17.7978 28.3481 17.2602C28.5834 16.9137 29.0414 16.793 29.4129 16.9872H29.4109ZM27.9287 13.1253C28.3419 13.1253 28.6427 12.7148 28.4991 12.3284C28.3013 11.795 28.0557 11.3456 27.7632 10.9802C27.3677 10.4867 26.8556 10.0824 26.2248 9.76535C25.4473 9.37475 24.575 9.17735 23.7049 9.19625C22.4756 9.2225 21.416 9.6341 20.524 10.4289C20.0119 10.8846 19.5945 11.5125 19.2729 12.3137C19.1168 12.7032 19.4155 13.1264 19.837 13.1264C21.6898 13.1264 26.102 13.1264 27.9297 13.1264L27.9287 13.1253Z" fill="white"/>
<path d="M33.5673 7.92212C33.8848 7.92212 34.1731 8.10587 34.3064 8.39357L37.7349 15.8191C38.0264 16.4502 38.9257 16.4481 39.214 15.816L42.5989 8.39777C42.7311 8.10797 43.0204 7.92212 43.3389 7.92212H43.3514C43.9437 7.92212 44.3371 8.53322 44.0915 9.07081L38.6322 20.9641H38.3189L32.8273 9.07291C32.5796 8.53532 32.973 7.92212 33.5663 7.92212H33.5673Z" fill="white"/>
<path d="M68.3567 7.92238C68.6763 7.92238 68.9646 8.11348 69.0895 8.40642L72.1767 15.6965C72.4484 16.337 73.356 16.3433 73.637 15.707L77.0677 7.92133H77.3727L80.8377 15.7301C81.1187 16.3633 82.0201 16.358 82.2949 15.7228L85.4539 8.40117C85.5799 8.11032 85.8661 7.92133 86.1846 7.92133H86.1992C86.7716 7.92133 87.1568 8.50617 86.9278 9.03012L81.7287 20.9633H81.4164L77.9597 13.2469C77.6797 12.6211 76.7877 12.6211 76.5077 13.2469L73.0541 20.9633H72.7408L67.6271 9.02487C67.4033 8.50197 67.7874 7.92133 68.3578 7.92133L68.3567 7.92238Z" fill="white"/>
<path d="M90.7356 13.2741C90.7356 10.9893 92.6435 9.3198 94.9542 9.3996C97.1546 9.4752 98.8575 11.3683 98.8575 13.5628V20.1442C98.8575 20.5968 99.2249 20.9632 99.6787 20.9632C100.133 20.9632 100.5 20.5968 100.5 20.1442V13.4788C100.5 10.3383 98.0362 7.63666 94.8866 7.58731C91.6943 7.53796 89.0911 10.1031 89.0911 13.2741V20.1442C89.0911 20.5968 89.4585 20.9632 89.9123 20.9632C90.3661 20.9632 90.7335 20.5968 90.7335 20.1442V13.2741H90.7356Z" fill="white"/>
<path d="M41.045 5.88825H20.4713C19.2962 5.904 19.2962 4.23241 20.4713 4.24816H41.0439C42.2118 4.23241 42.2232 5.904 41.0439 5.88825H41.045Z" fill="white"/>
<path d="M63.6431 9.84401C62.3222 8.37821 60.6371 7.63586 58.6324 7.63586C56.6277 7.63586 54.929 8.38346 53.6112 9.85661C52.4132 11.1901 51.8064 12.7871 51.8064 14.6026C51.8064 16.418 52.4476 18.0581 53.7112 19.4273C54.981 20.8028 56.636 21.5 58.6324 21.5C60.6287 21.5 62.2722 20.8028 63.5421 19.4273C64.8057 18.0581 65.4469 16.4348 65.4469 14.6026C65.4469 12.7703 64.8401 11.1796 63.6431 9.84401ZM62.0766 17.9783C61.1856 18.9443 60.0261 19.4336 58.6303 19.4336C57.2345 19.4336 56.0666 18.9443 55.1757 17.9783C54.2888 17.0176 53.8382 15.8783 53.8382 14.5921C53.8382 13.3058 54.2639 12.197 55.1049 11.2605C56.0302 10.2262 57.2168 9.70226 58.6292 9.70226C60.0417 9.70226 61.2189 10.2241 62.1463 11.252C62.9863 12.1897 63.413 13.3132 63.413 14.5921C63.413 15.871 62.9634 17.0176 62.0755 17.9783H62.0766Z" fill="white"/>
<path d="M98.0865 4.16448H49.625V1.445C49.625 0.923148 49.2055 0.5 48.6882 0.5C48.1709 0.5 47.7515 0.923148 47.7515 1.445V4.16343H45.0348C44.5342 4.16343 44.1293 4.57293 44.1293 5.07693C44.1293 5.58198 44.5352 5.99043 45.0348 5.99043H47.7515V20.1958C47.7515 20.7177 48.1709 21.1408 48.6882 21.1408C49.2055 21.1408 49.625 20.7177 49.625 20.1958V5.99148H98.0865C98.5871 5.99148 98.992 5.58198 98.992 5.07798C98.992 4.57293 98.5861 4.16448 98.0865 4.16448Z" fill="white"/>
</svg>
