<svg width="5" height="6" viewBox="0 0 5 6" fill="none" xmlns="http://www.w3.org/2000/svg">
<path d="M2.77089 0.362625L2.85501 1.7125L2.77089 2.38085L2.68677 1.7125L2.77089 0.362625Z" fill="#2C2C6F"/>
<path d="M3.05105 0.479155C3.10479 0.48623 3.15409 0.448402 3.16116 0.394664C3.16824 0.340927 3.13041 0.291628 3.07667 0.284554C3.02293 0.277479 2.97363 0.315307 2.96656 0.369045C2.95949 0.422782 2.99731 0.47208 3.05105 0.479155Z" fill="#2C2C6F"/>
<path d="M2.77086 4.84914L2.68674 3.49926L2.77086 2.83091L2.85498 3.49926L2.77086 4.84914Z" fill="#2C2C6F"/>
<path d="M2.4907 4.73261C2.43696 4.72553 2.38766 4.76336 2.38059 4.8171C2.37351 4.87083 2.41134 4.92013 2.46508 4.92721C2.51881 4.93428 2.56811 4.89645 2.57519 4.84272C2.58226 4.78898 2.54443 4.73968 2.4907 4.73261Z" fill="#2C2C6F"/>
<path d="M3.35115 0.438993L3.08303 1.76464L2.8288 2.38845L2.92052 1.7211L3.35115 0.438993Z" fill="#2C2C6F"/>
<path d="M3.59148 0.624063C3.64156 0.644805 3.69897 0.621025 3.71971 0.57095C3.74045 0.520874 3.71667 0.463465 3.6666 0.442723C3.61652 0.421981 3.55911 0.445761 3.53837 0.495837C3.51763 0.545912 3.54141 0.603321 3.59148 0.624063Z" fill="#2C2C6F"/>
<path d="M2.19011 4.7728L2.45823 3.44715L2.71246 2.82334L2.62074 3.49069L2.19011 4.7728Z" fill="#2C2C6F"/>
<path d="M1.94978 4.58773C1.8997 4.56699 1.84229 4.59077 1.82155 4.64084C1.80081 4.69092 1.82459 4.74833 1.87466 4.76907C1.92474 4.78981 1.98215 4.76603 2.00289 4.71596C2.02363 4.66588 1.99985 4.60847 1.94978 4.58773Z" fill="#2C2C6F"/>
<path d="M3.89206 0.662605L3.28998 1.87369L2.88295 2.41044L3.14428 1.78957L3.89206 0.662605Z" fill="#2C2C6F"/>
<path d="M4.07629 0.903528C4.11929 0.936524 4.1809 0.928413 4.2139 0.885413C4.24689 0.842412 4.23878 0.780804 4.19578 0.747809C4.15278 0.714813 4.09117 0.722924 4.05818 0.765925C4.02518 0.808925 4.03329 0.870533 4.07629 0.903528Z" fill="#2C2C6F"/>
<path d="M1.64907 4.5478L2.25116 3.33671L2.65819 2.79996L2.39686 3.42083L1.64907 4.5478Z" fill="#2C2C6F"/>
<path d="M1.46485 4.30687C1.42185 4.27388 1.36024 4.28199 1.32724 4.32499C1.29425 4.36799 1.30236 4.4296 1.34536 4.46259C1.38836 4.49559 1.44997 4.48748 1.48296 4.44448C1.51596 4.40148 1.50785 4.33987 1.46485 4.30687Z" fill="#2C2C6F"/>
<path d="M4.3566 1.01912L3.46158 2.03311L2.9295 2.44622L3.34261 1.91415L4.3566 1.01912Z" fill="#2C2C6F"/>
<path d="M4.47214 1.29937C4.50514 1.34237 4.56674 1.35048 4.60974 1.31748C4.65274 1.28449 4.66085 1.22288 4.62786 1.17988C4.59486 1.13688 4.53326 1.12877 4.49026 1.16176C4.44725 1.19476 4.43914 1.25637 4.47214 1.29937Z" fill="#2C2C6F"/>
<path d="M1.18441 4.19174L2.07944 3.17775L2.61152 2.76464L2.1984 3.29672L1.18441 4.19174Z" fill="#2C2C6F"/>
<path d="M1.06851 3.91134C1.03551 3.86834 0.973907 3.86023 0.930906 3.89322C0.887905 3.92622 0.879794 3.98783 0.91279 4.03083C0.945786 4.07383 1.00739 4.08194 1.05039 4.04894C1.0934 4.01595 1.10151 3.95434 1.06851 3.91134Z" fill="#2C2C6F"/>
</svg>
