<svg width="15" height="18" viewBox="0 0 15 18" fill="none" xmlns="http://www.w3.org/2000/svg">
<g clip-path="url(#clip0_1401_21372)">
<g clip-path="url(#clip1_1401_21372)">
<path d="M12.1015 6.66284H10.5115V1.66284C10.5115 1.11284 10.0615 0.662842 9.51147 0.662842H5.51147C4.96147 0.662842 4.51147 1.11284 4.51147 1.66284V6.66284H2.92147C2.03147 6.66284 1.58147 7.74284 2.21147 8.37284L6.80147 12.9628C7.19147 13.3528 7.82147 13.3528 8.21147 12.9628L12.8015 8.37284C13.4315 7.74284 12.9915 6.66284 12.1015 6.66284ZM0.511475 16.6628C0.511475 17.2128 0.961475 17.6628 1.51147 17.6628H13.5115C14.0615 17.6628 14.5115 17.2128 14.5115 16.6628C14.5115 16.1128 14.0615 15.6628 13.5115 15.6628H1.51147C0.961475 15.6628 0.511475 16.1128 0.511475 16.6628Z" fill="#0859DE"/>
</g>
</g>
<defs>
<clipPath id="clip0_1401_21372">
<rect width="14" height="17" fill="white" transform="translate(0.511475 0.662842)"/>
</clipPath>
<clipPath id="clip1_1401_21372">
<rect width="14" height="17" fill="white" transform="translate(0.511475 0.662842)"/>
</clipPath>
</defs>
</svg>
