<svg width="18" height="18" viewBox="0 0 18 18" fill="none" xmlns="http://www.w3.org/2000/svg">
<path d="M15 3.57471H3C2.175 3.57471 1.5 4.22271 1.5 5.01471V13.6547C1.5 14.4467 2.16749 15.0947 2.99249 15.0947H14.9925C15.8175 15.0947 16.4925 14.4467 16.4925 13.6547V5.01471C16.4925 4.22271 15.8175 3.57471 14.9925 3.57471H15ZM14.7 6.63471L9.3975 9.81715C9.1575 9.96115 8.8425 9.96115 8.6025 9.81715L3.29999 6.63471C3.11249 6.51951 3 6.32513 3 6.11633C3 5.63393 3.54749 5.34595 3.97499 5.59795L9 8.61468L14.025 5.59795C14.4525 5.34595 15 5.63393 15 6.11633C15 6.32513 14.8875 6.51951 14.7 6.63471Z" fill="#BBBCBD"/>
</svg>
