<svg width="32" height="32" viewBox="0 0 32 32" fill="none" xmlns="http://www.w3.org/2000/svg">
<path d="M16.0384 2.89893C8.80269 2.89893 2.93713 8.76448 2.93713 16.0002C2.93713 23.236 8.80269 29.1015 16.0384 29.1015C23.2742 29.1015 29.1397 23.236 29.1397 16.0002C29.1397 8.76448 23.2742 2.89893 16.0384 2.89893ZM12.8313 21.4304H10.1783V12.8928H12.8313V21.4304ZM11.4885 11.8447C10.6505 11.8447 10.1087 11.251 10.1087 10.5168C10.1087 9.76755 10.6669 9.19164 11.5226 9.19164C12.3783 9.19164 12.9023 9.76755 12.9187 10.5168C12.9187 11.251 12.3783 11.8447 11.4885 11.8447ZM22.5208 21.4304H19.8678V16.699C19.8678 15.5976 19.483 14.8498 18.5236 14.8498C17.7907 14.8498 17.3554 15.3561 17.163 15.8433C17.092 16.0166 17.0742 16.2622 17.0742 16.5065V21.4291H14.4199V15.6154C14.4199 14.5495 14.3858 13.6584 14.3503 12.8914H16.6553L16.7767 14.0773H16.83C17.1793 13.5205 18.035 12.699 19.4666 12.699C21.2121 12.699 22.5208 13.8685 22.5208 16.3823V21.4304Z" fill="white"/>
</svg>
