<svg width="27" height="26" viewBox="0 0 27 26" fill="none" xmlns="http://www.w3.org/2000/svg">
<path d="M12.1145 15.5037L16.37 13.0053L12.1145 10.5068V15.5037Z" fill="white"/>
<path d="M13.8462 0C6.66572 0 0.846191 5.81953 0.846191 13C0.846191 20.1805 6.66572 26 13.8462 26C21.0267 26 26.8462 20.1805 26.8462 13C26.8462 5.81953 21.0267 0 13.8462 0ZM20.3462 15.3258C20.3462 17.5652 18.1067 17.5652 18.1067 17.5652H9.58564C7.34619 17.5652 7.34619 15.3258 7.34619 15.3258V10.6793C7.34619 8.43984 9.58564 8.43984 9.58564 8.43984H18.1067C20.3462 8.43984 20.3462 10.6793 20.3462 10.6793V15.3258Z" fill="white"/>
</svg>
