<svg width="38" height="37" viewBox="0 0 38 37" fill="none" xmlns="http://www.w3.org/2000/svg">
<path d="M30.5915 0.120117H7.42559C3.77011 0.120117 0.806763 3.08347 0.806763 6.73894V29.9048C0.806763 33.5603 3.77011 36.5237 7.42559 36.5237H30.5915C34.247 36.5237 37.2103 33.5603 37.2103 29.9048V6.73894C37.2103 3.08347 34.247 0.120117 30.5915 0.120117Z" fill="white"/>
<path d="M22.0917 23.6528C22.937 24.2668 23.9729 24.5937 25.0254 24.5937C26.0862 24.5937 27.1139 24.2668 27.9592 23.6528V26.7147C27.9592 26.8343 27.9261 26.9539 27.868 27.0576C27.81 27.1612 27.7188 27.2489 27.6111 27.3127C27.5034 27.3765 27.379 27.4084 27.2548 27.4164C27.1304 27.4243 27.0062 27.3925 26.8901 27.3366L26.799 27.2888L25.0171 26.0928L23.2353 27.2888C23.1359 27.3605 23.0115 27.4004 22.8873 27.4164C22.7629 27.4323 22.6386 27.4164 22.5226 27.3605C22.4066 27.3127 22.3071 27.233 22.2325 27.1373C22.1579 27.0416 22.1082 26.93 22.0917 26.8103V26.7147V23.6528Z" fill="#0859DE"/>
<path d="M25.0242 16.1096C26.0601 16.1096 27.0629 16.5083 27.7922 17.21C28.5298 17.9196 28.9359 18.8765 28.9359 19.8732C28.9359 20.8699 28.5215 21.8347 27.7922 22.5364C27.0546 23.246 26.0601 23.6367 25.0242 23.6367C23.9882 23.6367 22.9855 23.2381 22.2562 22.5364C21.5186 21.8267 21.1124 20.8699 21.1124 19.8732C21.1124 18.8765 21.5268 17.9117 22.2562 17.21C22.9937 16.5003 23.9882 16.1096 25.0242 16.1096Z" fill="#0859DE"/>
<path fill-rule="evenodd" clip-rule="evenodd" d="M28.8709 17.1548V11.9081H28.8626V11.7486C28.8211 11.0629 28.5145 10.425 27.9924 9.95456C27.4703 9.48405 26.7907 9.22095 26.078 9.22095L11.8732 9.22889H11.7075C10.9947 9.26877 10.3318 9.57183 9.84281 10.0662C9.35385 10.5685 9.08032 11.2223 9.08032 11.9161V20.8705V21.0299C9.13005 21.7157 9.43666 22.3536 9.9588 22.824C10.4809 23.2945 11.1605 23.5577 11.8732 23.5577H21.0309V22.4732L21.006 22.4493C20.8983 22.3058 20.7906 22.1542 20.6912 21.9948L20.6662 21.9389C20.2685 21.2692 20.0447 20.4957 20.0447 19.6745C20.0447 17.1309 22.1994 15.0577 24.8431 15.0577C25.6968 15.0577 26.5007 15.281 27.1968 15.6637H27.2134L27.2465 15.6876C27.8101 15.9985 28.2991 16.4132 28.6886 16.9156L28.8709 17.1548ZM13.9716 16.0334C14.088 16.1269 14.2191 16.1802 14.3647 16.1802L14.3501 16.1669C14.4958 16.1669 14.6414 16.1135 14.7433 16.0201C14.9617 15.8198 14.9617 15.5129 14.7433 15.3127L13.7241 14.3784L14.7433 13.4442C14.9617 13.244 14.9617 12.937 14.7433 12.7368C14.5249 12.5366 14.19 12.5366 13.9716 12.7368L12.5592 14.0314C12.3408 14.2316 12.3408 14.5386 12.5592 14.7388L13.9716 16.0334ZM17.99 16.1C17.8444 16.1 17.7133 16.0465 17.5969 15.9531C17.3784 15.7529 17.3784 15.446 17.5969 15.2457L18.5287 14.3916L17.5969 13.5374C17.3784 13.3372 17.3784 13.0302 17.5969 12.83C17.8153 12.6298 18.1502 12.6298 18.3685 12.83L19.6936 14.0446C19.7955 14.138 19.8538 14.2714 19.8538 14.4049C19.8538 14.5384 19.7955 14.6585 19.6936 14.7653L18.3685 15.9798C18.2667 16.0733 18.1211 16.1266 17.9754 16.1266L17.99 16.1ZM15.2817 17.1812C15.3254 17.1946 15.4273 17.1946 15.4273 17.1946C15.6603 17.1946 15.8787 17.0478 15.9515 16.8343L17.393 12.243C17.4658 11.9894 17.3056 11.7091 17.0144 11.629C16.7377 11.5624 16.4319 11.7091 16.3446 11.9761L14.9031 16.5673C14.8303 16.8209 14.9904 17.1012 15.2817 17.1812Z" fill="#282B30"/>
</svg>
