<svg width="63" height="63" viewBox="0 0 63 63" fill="none" xmlns="http://www.w3.org/2000/svg">
<g clip-path="url(#clip0_1401_21434)">
<path d="M31.348 0.37085C24.7822 7.27408 15.2224 8.34738 9.90921 8.34738C7.50956 8.34738 5.97864 8.12826 5.97864 8.12826C5.97864 8.12826 5.97864 19.2781 5.97864 35.2758C5.97864 51.2734 31.348 62.4223 31.348 62.4223C31.348 62.4223 56.7174 51.2725 56.7174 35.2748C56.7174 19.2772 56.7174 8.12729 56.7174 8.12729C56.7174 8.12729 55.1864 8.34641 52.7868 8.34641C47.4736 8.34738 37.9177 7.27408 31.348 0.37085Z" fill="#112E6A"/>
<path d="M31.4224 25.8528C23.2839 25.8528 20.0408 19.0902 19.907 18.8032L21.2246 18.1875C21.3439 18.4415 24.2302 24.3985 31.4224 24.3985C38.6397 24.3985 41.5106 18.3213 41.5397 18.2602L42.8612 18.8662C42.7303 19.1503 39.5628 25.8528 31.4224 25.8528Z" fill="white"/>
<path d="M31.4396 47.2165C22.2928 47.2165 14.8524 39.7752 14.8524 30.6304C14.8524 21.4855 22.2938 14.0442 31.4396 14.0442C40.5854 14.0442 48.0257 21.4855 48.0257 30.6304C48.0257 39.7752 40.5854 47.2165 31.4396 47.2165ZM31.4396 15.4976C23.0956 15.4976 16.3067 22.2854 16.3067 30.6294C16.3067 38.9734 23.0956 45.7612 31.4396 45.7612C39.7835 45.7612 46.5714 38.9734 46.5714 30.6294C46.5714 22.2854 39.7845 15.4976 31.4396 15.4976Z" fill="white"/>
<path d="M32.1654 14.6501H30.7111V45.7922H32.1654V14.6501Z" fill="white"/>
<path d="M47.2843 29.9028H15.9027V31.3572H47.2843V29.9028Z" fill="white"/>
<path d="M21.2246 42.1026L19.907 41.4869C20.0408 41.1989 23.2839 34.4373 31.4224 34.4373C39.5628 34.4373 42.7303 41.1388 42.8612 41.4239L41.5407 42.0318C41.4243 41.7807 38.6116 35.8916 31.4224 35.8916C24.2302 35.8926 21.3439 41.8495 21.2246 42.1026Z" fill="white"/>
<path d="M30.6125 46.7906C30.3042 46.5085 23.0742 39.7856 23.0742 30.6291C23.0742 21.4591 30.469 14.9853 30.7841 14.7148L31.7333 15.8172C31.6606 15.8783 24.5276 22.1387 24.5276 30.6291C24.5276 39.134 31.5229 45.6524 31.5937 45.7173L30.6125 46.7906Z" fill="white"/>
<path d="M32.2659 46.7911L31.2838 45.7188C31.3546 45.6538 38.3499 39.1355 38.3499 30.6306C38.3499 22.1392 31.2179 15.8798 31.1442 15.8187L32.0934 14.7163C32.4085 14.9868 39.8033 21.4605 39.8033 30.6306C39.8042 39.7871 32.5743 46.509 32.2659 46.7911Z" fill="white"/>
</g>
<defs>
<clipPath id="clip0_1401_21434">
<rect width="62.0515" height="62.0515" fill="white" transform="translate(0.322876 0.371826)"/>
</clipPath>
</defs>
</svg>
