<svg width="26" height="26" viewBox="0 0 26 26" fill="none" xmlns="http://www.w3.org/2000/svg">
<g clip-path="url(#clip0_1401_21499)">
<path d="M20.9545 0.143555H5.04545C2.53507 0.143555 0.5 2.17862 0.5 4.68901V20.5981C0.5 23.1085 2.53507 25.1436 5.04545 25.1436H20.9545C23.4649 25.1436 25.5 23.1085 25.5 20.5981V4.68901C25.5 2.17862 23.4649 0.143555 20.9545 0.143555Z" fill="white"/>
<path d="M16.5651 11.4285C16.815 10.8038 17.2069 10.1904 17.735 9.59414C17.8998 9.40675 17.9225 9.13414 17.7862 8.92403C17.6783 8.75931 17.5079 8.66846 17.3148 8.66846C17.2637 8.66846 17.2069 8.66846 17.1558 8.69118C16.0427 9.01488 13.4417 10.162 13.3679 13.8364C13.3395 15.2505 14.3844 16.4715 15.7474 16.6078C16.5027 16.6816 17.2524 16.4374 17.8089 15.9433C18.3654 15.4436 18.6834 14.728 18.6834 13.984C18.6834 12.746 17.7975 11.6613 16.5651 11.4285Z" fill="#0859DE"/>
<path d="M9.70512 16.6078C10.4548 16.6816 11.2044 16.4374 11.7609 15.9433C12.3175 15.4436 12.6355 14.728 12.6355 13.984C12.6355 12.746 11.7496 11.6613 10.5172 11.4285C10.7671 10.8038 11.159 10.1904 11.6871 9.59414C11.8518 9.40675 11.8745 9.13414 11.7382 8.92403C11.6303 8.75931 11.4599 8.66846 11.2669 8.66846C11.2157 8.66846 11.159 8.66846 11.1078 8.69118C9.99478 9.01488 7.39375 10.162 7.31995 13.8364V13.8875C7.31995 15.2789 8.35353 16.4658 9.69944 16.6078H9.70512Z" fill="black"/>
</g>
<defs>
<clipPath id="clip0_1401_21499">
<rect width="25" height="25" fill="white" transform="translate(0.5 0.143555)"/>
</clipPath>
</defs>
</svg>
