<svg width="33" height="32" viewBox="0 0 33 32" fill="none" xmlns="http://www.w3.org/2000/svg">
<path d="M20.3749 16.0002C20.3749 16.7818 20.1431 17.5458 19.7089 18.1957C19.2747 18.8456 18.6575 19.3521 17.9353 19.6513C17.2132 19.9504 16.4186 20.0286 15.652 19.8761C14.8854 19.7237 14.1813 19.3473 13.6286 18.7946C13.0759 18.2419 12.6995 17.5377 12.547 16.7711C12.3945 16.0045 12.4728 15.2099 12.7719 14.4878C13.071 13.7657 13.5775 13.1485 14.2274 12.7142C14.8773 12.28 15.6414 12.0482 16.423 12.0482C17.4701 12.0515 18.4734 12.4689 19.2138 13.2093C19.9543 13.9497 20.3717 14.953 20.3749 16.0002ZM28.7728 10.5663V21.434C28.7728 23.2682 28.0441 25.0273 26.7472 26.3243C25.4502 27.6213 23.6911 28.3499 21.8569 28.3499H10.9891C9.15491 28.3499 7.39583 27.6213 6.09885 26.3243C4.80188 25.0273 4.07324 23.2682 4.07324 21.434V10.5663C4.07324 8.73205 4.80188 6.97298 6.09885 5.676C7.39583 4.37902 9.15491 3.65039 10.9891 3.65039H21.8569C23.6911 3.65039 25.4502 4.37902 26.7472 5.676C28.0441 6.97298 28.7728 8.73205 28.7728 10.5663ZM22.3509 16.0002C22.3509 14.8277 22.0032 13.6816 21.3519 12.7068C20.7005 11.732 19.7747 10.9722 18.6915 10.5235C17.6083 10.0748 16.4164 9.95744 15.2665 10.1862C14.1166 10.4149 13.0604 10.9795 12.2314 11.8085C11.4023 12.6375 10.8377 13.6938 10.609 14.8437C10.3803 15.9936 10.4977 17.1855 10.9464 18.2687C11.395 19.3518 12.1548 20.2776 13.1296 20.929C14.1045 21.5804 15.2506 21.928 16.423 21.928C17.9952 21.928 19.503 21.3035 20.6147 20.1918C21.7263 19.0801 22.3509 17.5723 22.3509 16.0002ZM24.3268 9.57828C24.3268 9.28517 24.2399 8.99865 24.0771 8.75494C23.9142 8.51123 23.6828 8.32128 23.412 8.20911C23.1412 8.09695 22.8432 8.0676 22.5558 8.12478C22.2683 8.18196 22.0042 8.32311 21.797 8.53036C21.5897 8.73762 21.4486 9.00168 21.3914 9.28916C21.3342 9.57663 21.3635 9.87461 21.4757 10.1454C21.5879 10.4162 21.7778 10.6476 22.0215 10.8105C22.2652 10.9733 22.5518 11.0602 22.8449 11.0602C23.2379 11.0602 23.6149 10.9041 23.8928 10.6262C24.1707 10.3483 24.3268 9.97132 24.3268 9.57828Z" fill="white"/>
</svg>
