<svg width="18" height="18" viewBox="0 0 18 18" fill="none" xmlns="http://www.w3.org/2000/svg">
<path d="M15.0304 11.9546L12.9095 11.7221C12.4001 11.666 11.899 11.8344 11.54 12.1791L10.0036 13.654C7.64047 12.4997 5.70319 10.648 4.50077 8.37138L6.04553 6.88841C6.40459 6.54372 6.58 6.06273 6.52155 5.57375L6.27936 3.55365C6.17916 2.74402 5.4694 2.13477 4.61768 2.13477H3.17311C2.22953 2.13477 1.44461 2.88825 1.50307 3.79408C1.94563 10.6399 7.6488 16.107 14.7716 16.5319C15.7151 16.5879 16.5 15.8344 16.5 14.9286V13.5418C16.5083 12.7321 15.8738 12.0508 15.0304 11.9546Z" fill="#BBBCBD"/>
</svg>
