<svg width="53" height="53" viewBox="0 0 53 53" fill="none" xmlns="http://www.w3.org/2000/svg">
<path d="M26.5001 3.1731C14.8539 3.1731 15.581 8.24386 15.581 8.24386L15.594 13.4973H26.7077V15.0745H11.1798C11.1798 15.0745 3.72742 14.226 3.72742 26.024C3.72742 37.8224 10.232 37.4041 10.232 37.4041H14.114V31.9291C14.114 31.9291 13.9047 25.3984 20.5148 25.3984H31.5375C31.5375 25.3984 37.7305 25.4988 37.7305 19.389V9.28686C37.7305 9.28686 38.671 3.1731 26.5001 3.1731ZM20.3719 6.70595C20.6345 6.7057 20.8947 6.75747 21.1374 6.85827C21.38 6.95905 21.6005 7.10691 21.7861 7.29336C21.972 7.47981 22.1191 7.7012 22.2195 7.94486C22.32 8.1885 22.3715 8.44964 22.3713 8.71332C22.3715 8.97701 22.32 9.23814 22.2195 9.48179C22.1191 9.72545 21.972 9.94683 21.7861 10.1333C21.6005 10.3197 21.38 10.4676 21.1374 10.5684C20.8947 10.6692 20.6345 10.7209 20.3719 10.7207C20.1093 10.7209 19.8492 10.6692 19.6065 10.5684C19.3638 10.4676 19.1433 10.3197 18.9577 10.1333C18.7719 9.94683 18.6247 9.72545 18.5243 9.48179C18.4239 9.23814 18.3724 8.97701 18.3725 8.71332C18.3724 8.44964 18.4239 8.1885 18.5243 7.94486C18.6247 7.7012 18.7719 7.47981 18.9577 7.29336C19.1433 7.10691 19.3638 6.95905 19.6065 6.85827C19.8492 6.75747 20.1093 6.7057 20.3719 6.70595Z" fill="url(#paint0_linear_1401_21421)"/>
<path d="M26.8292 48.9938C38.4754 48.9938 37.7483 43.923 37.7483 43.923L37.7353 38.6697H26.6215V37.0925H42.1493C42.1493 37.0925 49.6017 37.9411 49.6017 26.1427C49.6017 14.3444 43.0971 14.7628 43.0971 14.7628H39.2151V20.2376C39.2151 20.2376 39.4245 26.7683 32.8144 26.7683H21.7915C21.7915 26.7683 15.5986 26.6679 15.5986 32.7778V42.8802C15.5986 42.8802 14.6584 48.9938 26.8292 48.9938ZM32.9574 45.4612C32.6948 45.4615 32.4346 45.4097 32.192 45.309C31.9493 45.2081 31.7288 45.0604 31.5432 44.8739C31.3574 44.6874 31.2102 44.466 31.1098 44.2224C31.0094 43.9786 30.9579 43.7176 30.958 43.4539C30.9577 43.1902 31.0094 42.929 31.1096 42.6854C31.21 42.4418 31.3574 42.2203 31.543 42.0338C31.7287 41.8474 31.9493 41.6995 32.192 41.5988C32.4346 41.4979 32.6948 41.4461 32.9574 41.4464C33.22 41.4461 33.4802 41.4979 33.7228 41.5986C33.9655 41.6995 34.186 41.8473 34.3716 42.0338C34.5574 42.2203 34.7046 42.4416 34.805 42.6852C34.9054 42.929 34.9569 43.1901 34.9568 43.4537C34.9569 43.7174 34.9054 43.9785 34.805 44.2222C34.7046 44.4658 34.5574 44.6872 34.3716 44.8736C34.186 45.0602 33.9655 45.208 33.7228 45.3087C33.4802 45.4096 33.22 45.4615 32.9574 45.4612Z" fill="url(#paint1_linear_1401_21421)"/>
<defs>
<linearGradient id="paint0_linear_1401_21421" x1="8.13606" y1="7.29439" x2="30.9609" y2="29.8011" gradientUnits="userSpaceOnUse">
<stop stop-color="#387EB8"/>
<stop offset="1" stop-color="#366994"/>
</linearGradient>
<linearGradient id="paint1_linear_1401_21421" x1="22.0891" y1="21.8057" x2="46.5959" y2="44.8801" gradientUnits="userSpaceOnUse">
<stop stop-color="#FFE052"/>
<stop offset="1" stop-color="#FFC331"/>
</linearGradient>
</defs>
</svg>
