<svg width="25" height="25" viewBox="0 0 25 25" fill="none" xmlns="http://www.w3.org/2000/svg">
<path fill-rule="evenodd" clip-rule="evenodd" d="M12.1058 3.00242C12.3533 2.87859 12.6467 2.87859 12.8942 3.00242L22.9775 8.02205C23.2892 8.17445 23.4908 8.50784 23.5 8.86979C23.5 9.23174 23.3167 9.5651 23.005 9.72703L12.9217 15.1848C12.6558 15.3277 12.3442 15.3277 12.0783 15.1848L6.77083 12.3082V11.6701L10.905 9.24125C11.235 9.05075 11.3542 8.61261 11.1617 8.26971C10.9783 7.92681 10.5567 7.80299 10.2267 8.00301L5.74417 10.6414C5.52417 10.7652 5.39583 11.0033 5.39583 11.2605V11.5653L1.99501 9.72703C1.68334 9.55558 1.5 9.2222 1.5 8.86025C1.5 8.49831 1.71084 8.17444 2.02251 8.01252L12.1058 3.00242Z" fill="url(#paint0_linear_1531_4569)"/>
<path fill-rule="evenodd" clip-rule="evenodd" d="M6.77089 20.0903C8.91589 20.4141 10.6026 21.1952 12.2709 22.6811C12.6101 22.9859 13.1234 22.9859 13.4626 22.6811C15.3234 21.0237 17.2117 20.2427 19.7326 20.0046C20.1451 19.9665 20.4751 19.6426 20.5484 19.2235C20.8417 17.5281 20.8142 15.8136 20.4659 14.1372C20.4017 13.8419 20.2184 13.5943 19.9526 13.4704C19.6867 13.3466 19.3842 13.3561 19.1276 13.499L12.83 17.0709L6.76172 14.0896V20.0903H6.77089Z" fill="url(#paint1_linear_1531_4569)"/>
<path d="M5.16699 19.8148C4.79116 19.8148 4.47949 19.4909 4.47949 19.1004V10.2042C4.47949 9.947 4.617 9.70889 4.82783 9.58506L9.31032 6.94663C9.64032 6.75613 10.062 6.87043 10.2453 7.21333C10.4287 7.55623 10.3187 7.99439 9.98867 8.18489L5.85449 10.6137V19.1004C5.85449 19.4909 5.54283 19.8148 5.16699 19.8148Z" fill="url(#paint2_linear_1531_4569)"/>
<defs>
<linearGradient id="paint0_linear_1531_4569" x1="24.3439" y1="12.8351" x2="6.53309" y2="12.4249" gradientUnits="userSpaceOnUse">
<stop stop-color="#8D38EA"/>
<stop offset="1" stop-color="#3D85FE"/>
</linearGradient>
<linearGradient id="paint1_linear_1531_4569" x1="21.2861" y1="21.0197" x2="9.9599" y2="20.8041" gradientUnits="userSpaceOnUse">
<stop stop-color="#8D38EA"/>
<stop offset="1" stop-color="#3D85FE"/>
</linearGradient>
<linearGradient id="paint2_linear_1531_4569" x1="10.5582" y1="17.2434" x2="5.81644" y2="17.2156" gradientUnits="userSpaceOnUse">
<stop stop-color="#8D38EA"/>
<stop offset="1" stop-color="#3D85FE"/>
</linearGradient>
</defs>
</svg>
