<svg width="5" height="8" viewBox="0 0 5 8" fill="none" xmlns="http://www.w3.org/2000/svg">
<path d="M1.20694 0.325443L4.51635 3.63486C4.63647 3.75498 4.69653 3.90145 4.69653 4.07427C4.69653 4.2471 4.63647 4.39357 4.51635 4.51369L1.20694 7.8231C1.08682 7.94445 0.940349 8.00512 0.767524 8.00512C0.594699 8.00512 0.448227 7.94445 0.328107 7.8231C0.206762 7.70298 0.146089 7.55651 0.146089 7.38368C0.146089 7.21086 0.206762 7.06439 0.328108 6.94427L3.1981 4.07427L0.328108 1.20428C0.206762 1.08416 0.14609 0.937684 0.14609 0.764859C0.14609 0.592034 0.206762 0.445562 0.328108 0.325443C0.448227 0.205323 0.594699 0.145263 0.767524 0.145264C0.940349 0.145264 1.08682 0.205323 1.20694 0.325443Z" fill="white"/>
</svg>
