<svg width="11" height="7" viewBox="0 0 11 7" fill="none" xmlns="http://www.w3.org/2000/svg">
<path d="M9.80226 2.06213L5.59624 6.26814C5.44358 6.4208 5.25743 6.49713 5.03778 6.49713C4.81813 6.49713 4.63198 6.4208 4.47931 6.26814L0.273303 2.06212C0.119083 1.90946 0.0419726 1.72331 0.0419726 1.50366C0.0419726 1.28401 0.119083 1.09786 0.273304 0.945195C0.425967 0.790975 0.612121 0.713864 0.831769 0.713864C1.05142 0.713864 1.23757 0.790975 1.39023 0.945195L5.03778 4.59274L8.68533 0.945196C8.83799 0.790975 9.02414 0.713865 9.24379 0.713865C9.46344 0.713865 9.64959 0.790976 9.80226 0.945196C9.95492 1.09786 10.0313 1.28401 10.0313 1.50366C10.0313 1.72331 9.95492 1.90946 9.80226 2.06213Z" fill="#848484"/>
</svg>
