<svg width="137" height="111" viewBox="0 0 137 111" fill="none" xmlns="http://www.w3.org/2000/svg">
<path opacity="0.34" d="M151.865 -6.06776H151.861H41.9276H41.6776V-5.81776L41.6776 103.342L41.6776 103.346C41.7106 105.53 40.8676 107.157 39.5966 108.242C38.3199 109.333 36.5972 109.889 34.8645 109.893C33.1318 109.898 31.4095 109.351 30.133 108.263C28.8624 107.18 28.0185 105.549 28.051 103.346V103.342V-5.81776V-6.06776H27.801L7.14115 -6.06779L7.13734 -6.06773C4.99735 -6.03514 3.40884 -6.86874 2.35093 -8.12601C1.28793 -9.38932 0.749719 -11.0945 0.75 -12.8105C0.75028 -14.5264 1.28906 -16.2316 2.35222 -17.495C3.4103 -18.7523 4.99854 -19.5859 7.13734 -19.5533L7.13734 -19.5532H7.14115H27.8033H28.0533V-19.8032L28.0533 -41.0525L28.0532 -41.0561C28.0214 -43.2518 28.8652 -44.8813 30.1361 -45.966C31.4128 -47.0555 33.135 -47.6067 34.8674 -47.6064C36.5998 -47.6062 38.3219 -47.0544 39.5983 -45.9646C40.869 -44.8799 41.7124 -43.2506 41.6799 -41.0562V-41.0525V-19.8032V-19.5532H41.9299L151.861 -19.5532L151.865 -19.5533C153.994 -19.5859 155.58 -18.7525 156.639 -17.4949C157.703 -16.2313 158.246 -14.5258 158.25 -12.8099C158.254 -11.0939 157.72 -9.38893 156.659 -8.12588C155.603 -6.86892 154.013 -6.03513 151.865 -6.06776ZM70.9654 22.713L70.9655 22.7129C80.7046 11.6845 93.1583 6.09426 108.009 6.09426C122.795 6.09426 135.215 11.6495 144.954 22.6175C153.784 32.6182 158.263 44.6001 158.25 58.2542V58.2545C158.25 71.9752 153.559 84.0775 144.193 94.3819C134.836 104.677 122.671 109.894 107.993 109.894C93.267 109.894 81.027 104.628 71.7082 94.3819C62.3784 84.1263 57.6517 71.9774 57.6517 58.2545C57.6517 44.6539 62.1307 32.7022 70.9654 22.713ZM134.249 32.8808L134.249 32.8802C127.331 25.0868 118.544 21.1319 107.997 21.1319C97.451 21.1319 88.5905 25.1076 81.6861 32.9414C75.4111 40.0299 72.2343 48.5221 72.2343 58.173C72.2343 67.911 75.5587 76.5062 82.2067 83.817C88.8614 91.1377 97.5904 94.8443 107.995 94.8443C118.4 94.8443 127.065 91.1374 133.718 83.817C140.336 76.5434 143.697 67.8598 143.697 58.173C143.697 48.4895 140.515 39.9787 134.249 32.8808Z" stroke="#999999" stroke-width="0.5"/>
</svg>
