<svg width="19" height="17" viewBox="0 0 19 17" fill="none" xmlns="http://www.w3.org/2000/svg">
<path d="M12.2393 11.203C12.9649 11.203 13.5537 11.7918 13.5537 12.5174V14.021L13.5477 14.1022C13.3148 15.6998 11.8803 16.4674 9.47311 16.4674C7.07494 16.4674 5.6171 15.7087 5.30241 14.13L5.29189 14.0196V12.5174C5.29189 11.7918 5.88074 11.203 6.60627 11.203H12.2393ZM12.6103 6.69661H17.1212C17.8468 6.69661 18.4356 7.28545 18.4356 8.01099V9.51464L18.4296 9.59576C18.1968 11.1933 16.7623 11.9609 14.3551 11.9609L14.2289 11.9594C14.1131 11.5478 13.8725 11.1822 13.5402 10.913C13.208 10.6438 12.8004 10.4843 12.3737 10.4564L12.2393 10.452H11.5468C11.9393 10.1355 12.2558 9.7351 12.4732 9.28018C12.6905 8.82525 12.803 8.3274 12.8026 7.82322C12.8026 7.42816 12.735 7.04962 12.6103 6.69661ZM1.72429 6.69661H6.23524C6.11056 7.04962 6.04296 7.42816 6.04296 7.82322C6.04296 8.82215 6.47708 9.72119 7.16657 10.3393L7.29876 10.452H6.60627C5.65842 10.452 4.85927 11.0904 4.61592 11.9617L4.59114 11.9609C2.19296 11.9609 0.735127 11.2023 0.420427 9.62354L0.409912 9.51314V8.01099C0.409912 7.28545 0.998754 6.69661 1.72429 6.69661ZM9.4228 5.19447C10.12 5.19447 10.7886 5.47142 11.2816 5.96441C11.7746 6.45741 12.0515 7.12604 12.0515 7.82322C12.0515 8.52041 11.7746 9.18905 11.2816 9.68204C10.7886 10.175 10.12 10.452 9.4228 10.452C8.72561 10.452 8.05697 10.175 7.56398 9.68204C7.07099 9.18905 6.79404 8.52041 6.79404 7.82322C6.79404 7.12604 7.07099 6.45741 7.56398 5.96441C8.05697 5.47142 8.72561 5.19447 9.4228 5.19447ZM14.3048 0.688026C15.0019 0.688026 15.6706 0.964985 16.1635 1.45797C16.6566 1.95096 16.9336 2.6196 16.9336 3.31679C16.9336 4.01398 16.6566 4.68261 16.1635 5.17559C15.6706 5.66859 15.0019 5.94554 14.3048 5.94554C13.6075 5.94554 12.9389 5.66859 12.446 5.17559C11.953 4.68261 11.676 4.01398 11.676 3.31679C11.676 2.6196 11.953 1.95096 12.446 1.45797C12.9389 0.964985 13.6075 0.688026 14.3048 0.688026ZM4.54082 0.688026C5.238 0.688026 5.90664 0.964985 6.39963 1.45797C6.89262 1.95096 7.16957 2.6196 7.16957 3.31679C7.16957 4.01398 6.89262 4.68261 6.39963 5.17559C5.90664 5.66859 5.238 5.94554 4.54082 5.94554C3.84363 5.94554 3.17499 5.66859 2.682 5.17559C2.18901 4.68261 1.91206 4.01398 1.91206 3.31679C1.91206 2.6196 2.18901 1.95096 2.682 1.45797C3.17499 0.964985 3.84363 0.688026 4.54082 0.688026Z" fill="#0859DE"/>
</svg>
