<svg width="27" height="26" viewBox="0 0 27 26" fill="none" xmlns="http://www.w3.org/2000/svg">
<path d="M20.0848 14.9401C20.0342 14.9157 18.1387 13.9824 17.8019 13.8611C17.6644 13.8118 17.5171 13.7636 17.3604 13.7636C17.1045 13.7636 16.8894 13.8911 16.722 14.1417C16.5326 14.4231 15.9594 15.0931 15.7823 15.2932C15.7592 15.3197 15.7276 15.3512 15.7087 15.3512C15.6918 15.3512 15.3984 15.2304 15.3096 15.1919C13.2763 14.3086 11.7329 12.1846 11.5213 11.8265C11.4911 11.775 11.4898 11.7516 11.4896 11.7516C11.497 11.7243 11.5654 11.6558 11.6006 11.6204C11.7039 11.5183 11.8157 11.3836 11.924 11.2534C11.9752 11.1917 12.0265 11.1299 12.0769 11.0716C12.2339 10.889 12.3038 10.7471 12.3849 10.5829L12.4273 10.4975C12.6252 10.1044 12.4562 9.77264 12.4016 9.66552C12.3568 9.57587 11.5564 7.64427 11.4713 7.44133C11.2667 6.95164 10.9963 6.72363 10.6206 6.72363C10.5857 6.72363 10.6206 6.72363 10.4744 6.72979C10.2963 6.73731 9.32683 6.86494 8.89816 7.13516C8.44359 7.42175 7.67456 8.3353 7.67456 9.94189C7.67456 11.3878 8.59216 12.7531 8.98613 13.2723C8.99592 13.2854 9.0139 13.312 9.03998 13.3502C10.5487 15.5536 12.4296 17.1865 14.3363 17.9482C16.1719 18.6814 17.0411 18.7662 17.5353 18.7662H17.5354C17.7431 18.7662 17.9093 18.7499 18.0559 18.7355L18.1489 18.7266C18.7831 18.6704 20.1766 17.9483 20.4936 17.0674C20.7433 16.3736 20.8091 15.6155 20.643 15.3404C20.5292 15.1534 20.3331 15.0592 20.0848 14.9401Z" fill="white"/>
<path d="M14.077 0C7.03535 0 1.30657 5.68573 1.30657 12.6744C1.30657 14.9348 1.9115 17.1474 3.05744 19.0839L0.864068 25.5539C0.823211 25.6746 0.8536 25.808 0.942828 25.8988C1.00724 25.9645 1.09461 26 1.18383 26C1.21802 26 1.25246 25.9949 1.28606 25.9841L8.03256 23.8403C9.87872 24.8267 11.9653 25.3474 14.077 25.3474C21.118 25.3475 26.8462 19.6623 26.8462 12.6744C26.8462 5.68573 21.118 0 14.077 0ZM14.077 22.7073C12.0899 22.7073 10.1653 22.1335 8.51094 21.0479C8.45531 21.0114 8.39073 20.9926 8.32573 20.9926C8.29137 20.9926 8.25693 20.9979 8.22342 21.0085L4.84384 22.0828L5.93483 18.8641C5.97011 18.7599 5.95247 18.645 5.88747 18.5562C4.62765 16.8348 3.9617 14.801 3.9617 12.6744C3.9617 7.14156 8.49937 2.64018 14.0769 2.64018C19.6537 2.64018 24.1909 7.14156 24.1909 12.6744C24.191 18.2066 19.6539 22.7073 14.077 22.7073Z" fill="white"/>
</svg>
