<svg width="101" height="22" viewBox="0 0 101 22" fill="none" xmlns="http://www.w3.org/2000/svg">
<path d="M13.8775 3.17278V19.9391C13.8775 20.3003 13.584 20.5943 13.2207 20.5943H12.8752C12.5129 20.5943 12.2184 20.3014 12.2184 19.9391C12.2184 19.3763 11.5647 19.0897 11.1296 19.4477C10.7237 19.7816 10.2949 20.0599 9.84314 20.2814C8.96569 20.713 8.00602 20.9282 6.96412 20.9282C5.11243 20.9282 3.5324 20.2594 2.22196 18.9206C1.04995 17.7236 0.401491 16.2925 0.278669 14.6303C0.118377 12.4652 0.984373 10.3043 2.61436 8.86585C3.85923 7.76651 5.3258 7.21631 7.01408 7.21631C8.08721 7.21631 9.05937 7.44416 9.92953 7.89986C10.3532 8.12246 10.7529 8.3986 11.1265 8.72935C11.5512 9.10525 12.2205 8.8123 12.2205 8.2453V3.17278C12.2205 2.81158 12.514 2.51758 12.8773 2.51758H13.2228C13.585 2.51758 13.8796 2.81053 13.8796 3.17278H13.8775ZM7.15147 8.8354C6.2147 8.8354 5.34974 9.06535 4.55765 9.5242C3.76555 9.98305 3.13479 10.6277 2.6664 11.4583C2.19802 12.2888 1.96382 13.1666 1.96382 14.0927C1.96382 15.0188 2.2001 15.8893 2.67265 16.7272C3.1452 17.5651 3.77908 18.2182 4.57534 18.6844C5.3716 19.1516 6.22615 19.3847 7.13898 19.3847C8.05182 19.3847 8.93239 19.1537 9.75675 18.6907C10.5811 18.2276 11.216 17.6008 11.6605 16.8112C12.1039 16.0205 12.3266 15.1312 12.3266 14.141C12.3266 12.6322 11.8291 11.3711 10.832 10.3579C9.83481 9.34465 8.60868 8.8375 7.15147 8.8375V8.8354Z" fill="white"/>
<path d="M29.17 16.6164C29.5895 16.8359 29.7425 17.3693 29.4906 17.7693C29.1326 18.3395 28.7381 18.8214 28.3082 19.2152C27.6982 19.7748 27.0134 20.2001 26.2504 20.492C25.4885 20.7839 24.6256 20.9298 23.6639 20.9298C21.5301 20.9298 19.8616 20.2326 18.6584 18.8382C17.4551 17.4438 16.8535 15.8678 16.8535 14.109C16.8535 12.4542 17.3635 10.9801 18.3815 9.68541C19.6732 8.03902 21.4021 7.21582 23.5681 7.21582C25.7341 7.21582 27.5785 8.05897 28.9108 9.74526C29.7383 10.7858 30.2098 12.0532 30.3264 13.5462C30.3535 13.899 30.0777 14.2046 29.7227 14.2046H19.235C18.8717 14.2046 18.5897 14.5248 18.6323 14.885C18.7781 16.0956 19.2475 17.1099 20.0417 17.93C20.9805 18.8991 22.14 19.3832 23.5202 19.3832C24.1864 19.3832 24.8338 19.2677 25.4646 19.0367C26.0943 18.8057 26.6303 18.4991 27.0716 18.1179C27.3974 17.8365 27.742 17.427 28.1073 16.8894C28.3425 16.5429 28.8005 16.4222 29.1721 16.6164H29.17ZM27.6878 12.7545C28.1011 12.7545 28.4019 12.344 28.2582 11.9576C28.0605 11.4242 27.8148 10.9748 27.5223 10.6094C27.1268 10.1159 26.6147 9.71166 25.9839 9.39456C25.2064 9.00396 24.3342 8.80656 23.464 8.82546C22.2348 8.85171 21.1752 9.26331 20.2832 10.0582C19.771 10.5139 19.3537 11.1418 19.032 11.9429C18.8759 12.3324 19.1746 12.7556 19.5962 12.7556C21.4489 12.7556 25.8611 12.7556 27.6889 12.7556L27.6878 12.7545Z" fill="white"/>
<path d="M33.3271 7.55127C33.6446 7.55127 33.9329 7.73502 34.0661 8.02272L37.4947 15.4483C37.7862 16.0793 38.6855 16.0772 38.9738 15.4451L42.3587 8.02692C42.4908 7.73712 42.7802 7.55127 43.0987 7.55127H43.1112C43.7034 7.55127 44.0969 8.16237 43.8512 8.69996L38.3919 20.5933H38.0786L32.5871 8.70206C32.3393 8.16447 32.7328 7.55127 33.3261 7.55127H33.3271Z" fill="white"/>
<path d="M68.1166 7.55183C68.4362 7.55183 68.7245 7.74293 68.8494 8.03588L71.9366 15.326C72.2082 15.9665 73.1159 15.9728 73.3969 15.3365L76.8276 7.55078H77.1326L80.5976 15.3596C80.8786 15.9927 81.78 15.9875 82.0548 15.3522L85.2138 8.03063C85.3397 7.73978 85.626 7.55078 85.9445 7.55078H85.9591C86.5315 7.55078 86.9166 8.13563 86.6877 8.65958L81.4886 20.5928H81.1763L77.7196 12.8764C77.4396 12.2506 76.5476 12.2506 76.2676 12.8764L72.814 20.5928H72.5007L67.387 8.65433C67.1632 8.13143 67.5473 7.55078 68.1177 7.55078L68.1166 7.55183Z" fill="white"/>
<path d="M90.4961 12.9033C90.4961 10.6185 92.404 8.94901 94.7147 9.02881C96.9151 9.10441 98.618 10.9976 98.618 13.192V19.7734C98.618 20.226 98.9854 20.5924 99.4392 20.5924C99.893 20.5924 100.26 20.226 100.26 19.7734V13.108C100.26 9.96751 97.7967 7.26587 94.6471 7.21652C91.4548 7.16717 88.8516 9.73231 88.8516 12.9033V19.7734C88.8516 20.226 89.219 20.5924 89.6728 20.5924C90.1266 20.5924 90.494 20.226 90.494 19.7734V12.9033H90.4961Z" fill="white"/>
<path d="M40.8046 5.51765H20.231C19.0558 5.5334 19.0558 3.8618 20.231 3.87755H40.8036C41.9714 3.8618 41.9829 5.5334 40.8036 5.51765H40.8046Z" fill="white"/>
<path d="M63.4031 9.47328C62.0822 8.00748 60.3971 7.26514 58.3924 7.26514C56.3877 7.26514 54.689 8.01273 53.3713 9.48588C52.1732 10.8194 51.5664 12.4164 51.5664 14.2319C51.5664 16.0473 52.2076 17.6874 53.4712 19.0566C54.741 20.4321 56.396 21.1293 58.3924 21.1293C60.3887 21.1293 62.0323 20.4321 63.3021 19.0566C64.5657 17.6874 65.2069 16.0641 65.2069 14.2319C65.2069 12.3996 64.6001 10.8089 63.4031 9.47328ZM61.8366 17.6076C60.9456 18.5736 59.7861 19.0629 58.3903 19.0629C56.9945 19.0629 55.8266 18.5736 54.9357 17.6076C54.0489 16.6468 53.5982 15.5076 53.5982 14.2214C53.5982 12.9351 54.0239 11.8263 54.8649 10.8897C55.7902 9.85548 56.9768 9.33153 58.3892 9.33153C59.8017 9.33153 60.9789 9.85338 61.9063 10.8813C62.7463 11.819 63.173 12.9425 63.173 14.2214C63.173 15.5003 62.7234 16.6468 61.8355 17.6076H61.8366Z" fill="white"/>
<path d="M97.8459 3.79388H49.3844V1.07439C49.3844 0.552543 48.9649 0.129395 48.4476 0.129395C47.9303 0.129395 47.5109 0.552543 47.5109 1.07439V3.79283H44.7942C44.2936 3.79283 43.8887 4.20233 43.8887 4.70633C43.8887 5.21137 44.2946 5.61982 44.7942 5.61982H47.5109V19.8252C47.5109 20.3471 47.9303 20.7702 48.4476 20.7702C48.9649 20.7702 49.3844 20.3471 49.3844 19.8252V5.62087H97.8459C98.3465 5.62087 98.7514 5.21137 98.7514 4.70738C98.7514 4.20233 98.3455 3.79388 97.8459 3.79388Z" fill="white"/>
</svg>
