<svg width="107" height="23" viewBox="0 0 107 23" fill="none" xmlns="http://www.w3.org/2000/svg">
<path d="M15.1509 3.39205V21.1371C15.1509 21.5193 14.8403 21.8305 14.4558 21.8305H14.0901C13.7067 21.8305 13.3949 21.5205 13.3949 21.1371C13.3949 20.5414 12.7031 20.238 12.2427 20.617C11.813 20.9704 11.3592 21.2649 10.8811 21.4993C9.95239 21.9561 8.9367 22.1839 7.83398 22.1839C5.8742 22.1839 4.20195 21.476 2.81501 20.0591C1.57459 18.7922 0.888279 17.2776 0.758288 15.5184C0.588639 13.2269 1.50519 10.9399 3.23032 9.41744C4.54785 8.25392 6.10003 7.67161 7.88686 7.67161C9.02262 7.67161 10.0515 7.91276 10.9725 8.39506C11.4208 8.63065 11.8439 8.92292 12.2393 9.27297C12.6888 9.67081 13.3972 9.36076 13.3972 8.76067V3.39205C13.3972 3.00976 13.7078 2.6986 14.0923 2.6986H14.458C14.8414 2.6986 15.1531 3.00865 15.1531 3.39205H15.1509ZM8.03227 9.38521C7.04081 9.38521 6.12537 9.62858 5.28704 10.1142C4.44871 10.5998 3.78113 11.2822 3.2854 12.1612C2.78967 13.0402 2.54181 13.9693 2.54181 14.9494C2.54181 15.9296 2.79187 16.8508 3.29201 17.7376C3.79214 18.6244 4.46303 19.3157 5.30577 19.8091C6.1485 20.3036 7.05293 20.5503 8.01905 20.5503C8.98517 20.5503 9.91714 20.3058 10.7896 19.8157C11.6621 19.3257 12.3341 18.6622 12.8045 17.8265C13.2738 16.9897 13.5095 16.0485 13.5095 15.0005C13.5095 13.4036 12.9829 12.069 11.9276 10.9966C10.8722 9.92419 9.57454 9.38743 8.03227 9.38743V9.38521Z" fill="white"/>
<path d="M31.3362 17.6209C31.7802 17.8532 31.9421 18.4177 31.6755 18.8411C31.2966 19.4446 30.8791 19.9546 30.4241 20.3714C29.7785 20.9637 29.0537 21.4138 28.2462 21.7227C27.4398 22.0316 26.5266 22.1861 25.5087 22.1861C23.2504 22.1861 21.4845 21.4482 20.211 19.9724C18.9375 18.4966 18.3008 16.8286 18.3008 14.9672C18.3008 13.2158 18.8406 11.6556 19.918 10.2854C21.2851 8.54286 23.1149 7.67161 25.4073 7.67161C27.6998 7.67161 29.6518 8.56397 31.0619 10.3487C31.9377 11.45 32.4367 12.7913 32.5601 14.3716C32.5888 14.7449 32.2968 15.0683 31.9212 15.0683H20.8213C20.4368 15.0683 20.1383 15.4073 20.1834 15.7884C20.3377 17.0698 20.8345 18.1433 21.675 19.0112C22.6687 20.0369 23.8959 20.5492 25.3566 20.5492C26.0617 20.5492 26.7469 20.4269 27.4145 20.1825C28.0809 19.938 28.6483 19.6135 29.1154 19.2101C29.4602 18.9123 29.8248 18.4789 30.2115 17.9099C30.4604 17.5432 30.9452 17.4154 31.3384 17.6209H31.3362ZM29.7675 13.5336C30.2049 13.5336 30.5232 13.0991 30.3712 12.6902C30.1619 12.1256 29.9019 11.65 29.5924 11.2633C29.1737 10.741 28.6318 10.3131 27.9642 9.97753C27.1413 9.56413 26.2181 9.35521 25.2972 9.37521C23.9961 9.40299 22.8747 9.83862 21.9306 10.6799C21.3886 11.1622 20.9469 11.8267 20.6065 12.6746C20.4412 13.0869 20.7574 13.5348 21.2035 13.5348C23.1644 13.5348 27.8342 13.5348 29.7686 13.5348L29.7675 13.5336Z" fill="white"/>
<path d="M35.736 8.02664C36.072 8.02664 36.3772 8.22111 36.5182 8.52561L40.1469 16.3846C40.4554 17.0525 41.4072 17.0503 41.7123 16.3813L45.2948 8.53005C45.4347 8.22334 45.7409 8.02664 46.078 8.02664H46.0912C46.7181 8.02664 47.1345 8.67341 46.8745 9.24238L41.0965 21.8299H40.7649L34.9528 9.24461C34.6906 8.67563 35.107 8.02664 35.7349 8.02664H35.736Z" fill="white"/>
<path d="M72.5556 8.02698C72.8938 8.02698 73.1989 8.22923 73.3311 8.53928L76.5985 16.2549C76.886 16.9328 77.8466 16.9395 78.1441 16.266L81.775 8.02586H82.0978L85.7651 16.2905C86.0625 16.9606 87.0165 16.955 87.3073 16.2827L90.6507 8.53372C90.784 8.2259 91.087 8.02586 91.4241 8.02586H91.4395C92.0454 8.02586 92.453 8.64485 92.2106 9.19938L86.7081 21.8291H86.3776L82.7191 13.6623C82.4228 13 81.4787 13 81.1823 13.6623L77.5272 21.8291H77.1956L71.7833 9.19383C71.5465 8.6404 71.953 8.02586 72.5567 8.02586L72.5556 8.02698Z" fill="white"/>
<path d="M96.2425 13.6911C96.2425 11.2729 98.2618 9.50597 100.707 9.59043C103.036 9.67044 104.838 11.6741 104.838 13.9967V20.9622C104.838 21.4412 105.227 21.829 105.708 21.829C106.188 21.829 106.577 21.4412 106.577 20.9622V13.9078C106.577 10.5839 103.969 7.72458 100.636 7.67235C97.2571 7.62012 94.502 10.335 94.502 13.6911V20.9622C94.502 21.4412 94.8908 21.829 95.3711 21.829C95.8514 21.829 96.2403 21.4412 96.2403 20.9622V13.6911H96.2425Z" fill="white"/>
<path d="M43.6507 5.87405H21.8762C20.6324 5.89072 20.6324 4.12155 21.8762 4.13822H43.6496C44.8856 4.12155 44.8978 5.89072 43.6496 5.87405H43.6507Z" fill="white"/>
<path d="M67.5667 10.0606C66.1687 8.50922 64.3852 7.72355 62.2635 7.72355C60.1418 7.72355 58.3439 8.51478 56.9493 10.0739C55.6813 11.4852 55.0391 13.1755 55.0391 15.0969C55.0391 17.0183 55.7177 18.7542 57.055 20.2033C58.399 21.6591 60.1506 22.397 62.2635 22.397C64.3764 22.397 66.1158 21.6591 67.4598 20.2033C68.7972 18.7542 69.4758 17.0361 69.4758 15.0969C69.4758 13.1577 68.8335 11.4741 67.5667 10.0606ZM65.9087 18.6697C64.9657 19.6921 63.7385 20.21 62.2613 20.21C60.784 20.21 59.548 19.6921 58.605 18.6697C57.6664 17.6529 57.1894 16.4471 57.1894 15.0858C57.1894 13.7245 57.64 12.551 58.5301 11.5597C59.5094 10.4651 60.7653 9.91056 62.2602 9.91056C63.7551 9.91056 65.001 10.4629 65.9825 11.5508C66.8715 12.5432 67.3232 13.7323 67.3232 15.0858C67.3232 16.4394 66.8473 17.6529 65.9076 18.6697H65.9087Z" fill="white"/>
<path d="M104.021 4.04966H52.7306V1.17143C52.7306 0.619124 52.2867 0.171276 51.7391 0.171276C51.1916 0.171276 50.7477 0.619124 50.7477 1.17143V4.04855H47.8725C47.3426 4.04855 46.9141 4.48195 46.9141 5.01537C46.9141 5.5499 47.3437 5.98219 47.8725 5.98219H50.7477V21.0168C50.7477 21.5691 51.1916 22.0169 51.7391 22.0169C52.2867 22.0169 52.7306 21.5691 52.7306 21.0168V5.9833H104.021C104.551 5.9833 104.979 5.5499 104.979 5.01648C104.979 4.48195 104.55 4.04966 104.021 4.04966Z" fill="white"/>
</svg>
