<svg width="19" height="19" viewBox="0 0 19 19" fill="none" xmlns="http://www.w3.org/2000/svg">
<path d="M15.2598 3.7041H3.25977C2.43477 3.7041 1.75977 4.3521 1.75977 5.1441V13.7841C1.75977 14.5761 2.42726 15.2241 3.25226 15.2241H15.2523C16.0773 15.2241 16.7523 14.5761 16.7523 13.7841V5.1441C16.7523 4.3521 16.0773 3.7041 15.2523 3.7041H15.2598ZM14.9598 6.7641L9.65727 9.94654C9.41727 10.0905 9.10227 10.0905 8.86227 9.94654L3.55976 6.7641C3.37226 6.6489 3.25977 6.45452 3.25977 6.24572C3.25977 5.76332 3.80726 5.47534 4.23476 5.72734L9.25977 8.74407L14.2848 5.72734C14.7123 5.47534 15.2598 5.76332 15.2598 6.24572C15.2598 6.45452 15.1473 6.6489 14.9598 6.7641Z" fill="#BBBCBD"/>
</svg>
