<svg width="33" height="32" viewBox="0 0 33 32" fill="none" xmlns="http://www.w3.org/2000/svg">
<path d="M16.2986 3.02832C9.06282 3.02832 3.19727 8.89388 3.19727 16.1296C3.19727 23.3653 9.06282 29.2309 16.2986 29.2309C23.5343 29.2309 29.3999 23.3653 29.3999 16.1296C29.3999 8.89388 23.5343 3.02832 16.2986 3.02832ZM13.0915 21.5598H10.4385V13.0222H13.0915V21.5598ZM11.7486 11.974C10.9107 11.974 10.3689 11.3804 10.3689 10.6462C10.3689 9.89695 10.927 9.32104 11.7827 9.32104C12.6384 9.32104 13.1624 9.89695 13.1788 10.6462C13.1788 11.3804 12.6384 11.974 11.7486 11.974ZM22.781 21.5598H20.128V16.8284C20.128 15.727 19.7431 14.9792 18.7837 14.9792C18.0509 14.9792 17.6155 15.4855 17.4231 15.9727C17.3521 16.146 17.3344 16.3916 17.3344 16.6359V21.5585H14.68V15.7448C14.68 14.6789 14.6459 13.7878 14.6104 13.0208H16.9154L17.0369 14.2067H17.0901C17.4395 13.6499 18.2951 12.8284 19.7267 12.8284C21.4722 12.8284 22.781 13.9979 22.781 16.5117V21.5598Z" fill="white"/>
</svg>
