<svg width="16" height="16" viewBox="0 0 16 16" fill="none" xmlns="http://www.w3.org/2000/svg">
<g clip-path="url(#clip0_1531_5385)">
<path d="M8.85973 15.0297C8.85973 14.6532 8.55448 14.3479 8.17794 14.3479C7.80139 14.3479 7.49609 14.6532 7.49609 15.0297C7.49609 15.4063 7.80139 15.7115 8.17794 15.7115C8.55448 15.7115 8.85973 15.4063 8.85973 15.0297Z" fill="black"/>
<path fill-rule="evenodd" clip-rule="evenodd" d="M12.6999 9.21536C13.3211 8.29394 13.6317 7.27754 13.6317 6.16623C13.6317 4.65998 13.0992 3.37433 12.0342 2.30927C10.9691 1.2442 9.68341 0.71167 8.17722 0.71167C6.67097 0.71167 5.38532 1.2442 4.32026 2.30927C3.25519 3.37433 2.72266 4.65998 2.72266 6.16623C2.72266 7.27754 3.03328 8.29394 3.65453 9.21536C4.07509 9.83917 4.58937 10.3473 5.19737 10.7399V10.7422C5.48866 10.962 5.71722 11.2497 5.88303 11.6053C6.04885 11.9609 6.13175 12.341 6.13175 12.7457C6.13175 12.7825 6.13102 12.8192 6.12956 12.856C6.12812 12.8927 6.12593 12.9293 6.12302 12.9659H6.13175V12.9844H10.2227V12.7457C10.2227 12.3349 10.3079 11.9498 10.4784 11.5904C10.6489 11.2308 10.8834 10.942 11.1817 10.7238C11.779 10.3336 12.285 9.83073 12.6999 9.21536Z" fill="url(#paint0_radial_1531_5385)"/>
<path d="M6.13086 13.6662C6.13086 14.4193 6.74138 15.0298 7.49452 15.0298H8.85811C9.61125 15.0298 10.2218 14.4193 10.2218 13.6662V12.9844H6.13086V13.6662Z" fill="url(#paint1_radial_1531_5385)"/>
<path d="M9.20079 13.6663H7.15536C6.96708 13.6663 6.81445 13.8189 6.81445 14.0071C6.81445 14.1954 6.96708 14.3481 7.15536 14.3481H9.20079C9.38909 14.3481 9.54172 14.1954 9.54172 14.0071C9.54172 13.8189 9.38909 13.6663 9.20079 13.6663Z" fill="black" fill-opacity="0.2"/>
<path fill-rule="evenodd" clip-rule="evenodd" d="M6.73031 4.71982C7.12972 4.32042 7.61182 4.12072 8.17667 4.12072C8.36496 4.12072 8.52565 4.05415 8.65877 3.92102C8.7919 3.78788 8.85851 3.62717 8.85851 3.4389C8.85851 3.25062 8.7919 3.08991 8.65877 2.95678C8.52565 2.82365 8.36496 2.75708 8.17667 2.75708C7.23527 2.75708 6.43174 3.08991 5.76608 3.75558C5.10041 4.42125 4.76758 5.22477 4.76758 6.16618C4.76758 6.35443 4.83415 6.51517 4.96728 6.64829C5.10041 6.78142 5.26112 6.84798 5.4494 6.84798C5.63767 6.84798 5.79838 6.78142 5.93152 6.64829C6.06465 6.51517 6.13121 6.35443 6.13121 6.16618C6.13121 5.60134 6.33092 5.11921 6.73031 4.71982Z" fill="white"/>
</g>
<defs>
<radialGradient id="paint0_radial_1531_5385" cx="0" cy="0" r="1" gradientUnits="userSpaceOnUse" gradientTransform="translate(6.35347 4.08617) rotate(56.4705) scale(9.20156 8.17917)">
<stop stop-color="white"/>
<stop offset="0.457142" stop-color="white"/>
<stop offset="1" stop-color="white"/>
</radialGradient>
<radialGradient id="paint1_radial_1531_5385" cx="0" cy="0" r="1" gradientUnits="userSpaceOnUse" gradientTransform="translate(4.79702 12.349) rotate(38.4256) scale(4.31354 8.62706)">
<stop stop-color="#EFFCFF"/>
<stop offset="0.999999" stop-color="#0859DE"/>
</radialGradient>
<clipPath id="clip0_1531_5385">
<rect width="15" height="15" fill="white" transform="translate(0.847656 0.71167)"/>
</clipPath>
</defs>
</svg>
