<svg width="27" height="27" viewBox="0 0 27 27" fill="none" xmlns="http://www.w3.org/2000/svg">
<path d="M11.373 15.6331L15.6285 13.1347L11.373 10.6362V15.6331Z" fill="white"/>
<path d="M13.1055 0.129395C5.925 0.129395 0.105469 5.94893 0.105469 13.1294C0.105469 20.3099 5.925 26.1294 13.1055 26.1294C20.2859 26.1294 26.1055 20.3099 26.1055 13.1294C26.1055 5.94893 20.2859 0.129395 13.1055 0.129395ZM19.6055 15.4552C19.6055 17.6946 17.366 17.6946 17.366 17.6946H8.84492C6.60547 17.6946 6.60547 15.4552 6.60547 15.4552V10.8087C6.60547 8.56924 8.84492 8.56924 8.84492 8.56924H17.366C19.6055 8.56924 19.6055 10.8087 19.6055 10.8087V15.4552Z" fill="white"/>
</svg>
