<svg width="21" height="21" viewBox="0 0 21 21" fill="none" xmlns="http://www.w3.org/2000/svg">
<path fill-rule="evenodd" clip-rule="evenodd" d="M7.63477 3.75439L17.0098 3.75439C17.1755 3.75439 17.3345 3.82024 17.4517 3.93745C17.5689 4.05466 17.6348 4.21363 17.6348 4.37939V13.7544C17.6348 14.0996 17.3549 14.3794 17.0098 14.3794C16.6646 14.3794 16.3848 14.0996 16.3848 13.7544V5.88828L4.95171 17.3213C4.70763 17.5654 4.3119 17.5654 4.06782 17.3213C3.82375 17.0773 3.82375 16.6815 4.06782 16.4375L15.5009 5.00439L7.63477 5.0044C7.28959 5.0044 7.00977 4.72457 7.00977 4.37939C7.00977 4.03422 7.28959 3.75439 7.63477 3.75439Z" fill="white"/>
</svg>
