<svg width="27" height="27" viewBox="0 0 27 27" fill="none" xmlns="http://www.w3.org/2000/svg">
<g clip-path="url(#clip0_1531_6747)">
<path d="M13.3945 0.577332C20.5746 0.577332 26.3945 6.39808 26.3945 13.5774C26.3945 20.7567 20.5746 26.5773 13.3945 26.5773C6.21439 26.5773 0.394531 20.7566 0.394531 13.5774C0.394531 6.39817 6.21447 0.577332 13.3945 0.577332Z" fill="#0077B5"/>
<path d="M7.72006 18.4393H10.1543V10.3256H7.72006V18.4393ZM17.2036 10.0446C16.0222 10.0446 14.9651 10.476 14.2153 11.4283V10.299H11.7721V18.4394H14.2153V14.0373C14.2153 13.1069 15.0676 12.1993 16.1352 12.1993C17.2028 12.1993 17.4661 13.1069 17.4661 14.0145V18.4386H19.9004V13.8333C19.9003 10.6344 18.3858 10.0446 17.2036 10.0446ZM8.92582 9.51482C9.59858 9.51482 10.1446 8.96879 10.1446 8.29603C10.1446 7.62327 9.59858 7.07733 8.92582 7.07733C8.25306 7.07733 7.70703 7.62336 7.70703 8.29612C7.70703 8.96888 8.25306 9.51482 8.92582 9.51482Z" fill="white"/>
</g>
<defs>
<clipPath id="clip0_1531_6747">
<rect width="26" height="26" fill="white" transform="translate(0.394531 0.577271)"/>
</clipPath>
</defs>
</svg>
