<svg width="33" height="32" viewBox="0 0 33 32" fill="none" xmlns="http://www.w3.org/2000/svg">
<path d="M20.6337 16.1295C20.6337 16.9112 20.4019 17.6752 19.9677 18.3251C19.5335 18.975 18.9162 19.4815 18.1941 19.7806C17.472 20.0798 16.6774 20.158 15.9108 20.0055C15.1442 19.853 14.44 19.4767 13.8874 18.924C13.3347 18.3713 12.9583 17.6671 12.8058 16.9005C12.6533 16.1339 12.7316 15.3393 13.0307 14.6172C13.3298 13.8951 13.8363 13.2779 14.4862 12.8436C15.1361 12.4094 15.9002 12.1776 16.6818 12.1776C17.7289 12.1809 18.7322 12.5983 19.4726 13.3387C20.213 14.0791 20.6305 15.0824 20.6337 16.1295ZM29.0316 10.6957V21.5634C29.0316 23.3976 28.3029 25.1567 27.0059 26.4537C25.709 27.7507 23.9499 28.4793 22.1157 28.4793H11.2479C9.4137 28.4793 7.65462 27.7507 6.35764 26.4537C5.06066 25.1567 4.33203 23.3976 4.33203 21.5634V10.6957C4.33203 8.86145 5.06066 7.10237 6.35764 5.8054C7.65462 4.50842 9.4137 3.77979 11.2479 3.77979H22.1157C23.9499 3.77979 25.709 4.50842 27.0059 5.8054C28.3029 7.10237 29.0316 8.86145 29.0316 10.6957ZM22.6097 16.1295C22.6097 14.9571 22.262 13.811 21.6106 12.8362C20.9593 11.8614 20.0335 11.1016 18.9503 10.6529C17.8671 10.2042 16.6752 10.0868 15.5253 10.3156C14.3754 10.5443 13.3192 11.1089 12.4901 11.9379C11.6611 12.7669 11.0965 13.8232 10.8678 14.9731C10.6391 16.123 10.7565 17.3149 11.2051 18.398C11.6538 19.4812 12.4136 20.407 13.3884 21.0584C14.3633 21.7098 15.5094 22.0574 16.6818 22.0574C18.254 22.0574 19.7617 21.4329 20.8734 20.3212C21.9851 19.2095 22.6097 17.7017 22.6097 16.1295ZM24.5856 9.70767C24.5856 9.41456 24.4987 9.12804 24.3359 8.88433C24.173 8.64062 23.9416 8.45067 23.6708 8.33851C23.4 8.22634 23.102 8.19699 22.8145 8.25417C22.5271 8.31136 22.263 8.4525 22.0558 8.65976C21.8485 8.86702 21.7074 9.13108 21.6502 9.41855C21.593 9.70603 21.6223 10.004 21.7345 10.2748C21.8467 10.5456 22.0366 10.777 22.2803 10.9399C22.524 11.1027 22.8106 11.1896 23.1037 11.1896C23.4967 11.1896 23.8737 11.0335 24.1516 10.7556C24.4295 10.4777 24.5856 10.1007 24.5856 9.70767Z" fill="white"/>
</svg>
