<svg width="19" height="19" viewBox="0 0 19 19" fill="none" xmlns="http://www.w3.org/2000/svg">
<path d="M15.2901 12.084L13.1692 11.8515C12.6599 11.7954 12.1588 11.9638 11.7998 12.3085L10.2634 13.7834C7.90024 12.6291 5.96295 10.7774 4.76053 8.50077L6.3053 7.01781C6.66435 6.67312 6.83976 6.19213 6.78132 5.70314L6.53913 3.68304C6.43893 2.87341 5.72916 2.26416 4.87744 2.26416H3.43287C2.4893 2.26416 1.70438 3.01764 1.76283 3.92347C2.20539 10.7693 7.90857 16.2364 15.0313 16.6613C15.9749 16.7173 16.7598 15.9638 16.7598 15.058V13.6712C16.7681 12.8615 16.1335 12.1802 15.2901 12.084Z" fill="#BBBCBD"/>
</svg>
