<svg width="18" height="17" viewBox="0 0 18 17" fill="none" xmlns="http://www.w3.org/2000/svg">
<path d="M8.06506 0.600844C8.45141 -0.0581388 9.40406 -0.0581397 9.79041 0.600843L11.9512 4.28641C12.0921 4.52689 12.3271 4.69761 12.5994 4.75738L16.7723 5.67348C17.5184 5.83728 17.8128 6.74331 17.3054 7.31438L14.468 10.5083C14.2828 10.7167 14.1931 10.9929 14.2204 11.2703L14.6386 15.5221C14.7134 16.2823 13.9427 16.8422 13.2428 16.5362L9.32837 14.8246C9.07296 14.7129 8.78251 14.7129 8.5271 14.8246L4.6127 16.5362C3.9128 16.8422 3.14208 16.2823 3.21686 15.5221L3.6351 11.2703C3.66239 10.9929 3.57264 10.7167 3.38749 10.5083L0.550021 7.31438C0.0426779 6.74331 0.337064 5.83728 1.08318 5.67348L5.25607 4.75738C5.52835 4.69761 5.76332 4.52689 5.90431 4.28641L8.06506 0.600844Z" fill="#0859DE"/>
</svg>
