<svg width="19" height="17" viewBox="0 0 19 17" fill="none" xmlns="http://www.w3.org/2000/svg">
<path d="M8.73108 0.600844C9.11742 -0.0581388 10.0701 -0.0581397 10.4564 0.600843L12.6172 4.28641C12.7582 4.52689 12.9931 4.69761 13.2654 4.75738L17.4383 5.67348C18.1844 5.83728 18.4788 6.74331 17.9715 7.31438L15.134 10.5083C14.9488 10.7167 14.8591 10.9929 14.8864 11.2703L15.3046 15.5221C15.3794 16.2823 14.6087 16.8422 13.9088 16.5362L9.99439 14.8246C9.73897 14.7129 9.44853 14.7129 9.19311 14.8246L5.27871 16.5362C4.57881 16.8422 3.8081 16.2823 3.88288 15.5221L4.30111 11.2703C4.3284 10.9929 4.23865 10.7167 4.0535 10.5083L1.21604 7.31438C0.708694 6.74331 1.00308 5.83728 1.7492 5.67348L5.92208 4.75738C6.19437 4.69761 6.42934 4.52689 6.57033 4.28641L8.73108 0.600844Z" fill="#0859DE"/>
</svg>
