<svg width="18" height="17" viewBox="0 0 18 17" fill="none" xmlns="http://www.w3.org/2000/svg">
<path d="M8.39709 0.600844C8.78344 -0.0581388 9.73609 -0.0581397 10.1224 0.600843L12.2832 4.28641C12.4242 4.52689 12.6592 4.69761 12.9314 4.75738L17.1043 5.67348C17.8504 5.83728 18.1448 6.74331 17.6375 7.31438L14.8 10.5083C14.6149 10.7167 14.5251 10.9929 14.5524 11.2703L14.9706 15.5221C15.0454 16.2823 14.2747 16.8422 13.5748 16.5362L9.6604 14.8246C9.40499 14.7129 9.11454 14.7129 8.85913 14.8246L4.94473 16.5362C4.24483 16.8422 3.47411 16.2823 3.54889 15.5221L3.96713 11.2703C3.99442 10.9929 3.90467 10.7167 3.71952 10.5083L0.882052 7.31438C0.374709 6.74331 0.669095 5.83728 1.41521 5.67348L5.5881 4.75738C5.86038 4.69761 6.09535 4.52689 6.23634 4.28641L8.39709 0.600844Z" fill="#0859DE"/>
</svg>
