<svg width="16" height="16" viewBox="0 0 16 16" fill="none" xmlns="http://www.w3.org/2000/svg">
<path d="M8.34766 0.535889C4.21216 0.535889 0.847656 3.90036 0.847656 8.03582C0.847656 12.1713 4.21216 15.5359 8.34766 15.5359C12.4832 15.5359 15.8477 12.1713 15.8477 8.03582C15.8477 3.90036 12.4832 0.535889 8.34766 0.535889ZM8.34766 14.6697C4.68982 14.6697 1.71389 11.6937 1.71389 8.03582C1.71389 4.37802 4.68982 1.40213 8.34766 1.40213C12.0055 1.40213 14.9814 4.37802 14.9814 8.03582C14.9814 11.6937 12.0055 14.6697 8.34766 14.6697Z" fill="white"/>
<path d="M9.37333 8.4467L11.0383 5.34961L7.94141 7.01481L9.37333 8.4467Z" fill="#0859DE"/>
<path d="M12.4778 4.08334C12.3645 3.87259 12.1019 3.79369 11.8912 3.90695L7.01628 6.52823C6.94146 6.56847 6.8801 6.62979 6.83989 6.70465L4.21967 11.5785C4.12698 11.7509 4.16307 11.9581 4.29474 12.0898C4.32394 12.119 4.35783 12.1445 4.39613 12.1651C4.52635 12.2351 4.67643 12.2315 4.79878 12.1688L4.79886 12.169L4.8007 12.168C4.80247 12.1671 4.8042 12.1661 4.80593 12.1652L9.68325 9.5458C9.75811 9.5056 9.81943 9.44427 9.85971 9.36942L12.4694 4.50762C12.4751 4.4978 12.4806 4.48787 12.4855 4.47766L12.489 4.47113L12.4886 4.47098C12.5441 4.35141 12.545 4.20833 12.4778 4.08334ZM5.66242 10.7243L7.32744 7.62719L8.75926 9.05905L5.66242 10.7243ZM9.37216 8.44684L7.94027 7.01495L11.0371 5.34975L9.37216 8.44684Z" fill="white"/>
</svg>
