<svg width="16" height="16" viewBox="0 0 16 16" fill="none" xmlns="http://www.w3.org/2000/svg">
<path d="M8.34766 0.71167C4.21216 0.71167 0.847656 4.07614 0.847656 8.2116C0.847656 12.3471 4.21216 15.7117 8.34766 15.7117C12.4832 15.7117 15.8477 12.3471 15.8477 8.2116C15.8477 4.07614 12.4832 0.71167 8.34766 0.71167ZM8.34766 14.8454C4.68982 14.8454 1.71389 11.8695 1.71389 8.2116C1.71389 4.5538 4.68982 1.57791 8.34766 1.57791C12.0055 1.57791 14.9814 4.5538 14.9814 8.2116C14.9814 11.8695 12.0055 14.8454 8.34766 14.8454Z" fill="white"/>
<path d="M9.37333 8.62248L11.0383 5.52539L7.94141 7.19059L9.37333 8.62248Z" fill="#0859DE"/>
<path d="M12.4778 4.25912C12.3645 4.04837 12.1019 3.96947 11.8912 4.08274L7.01628 6.70401C6.94146 6.74425 6.8801 6.80557 6.83989 6.88043L4.21967 11.7543C4.12698 11.9267 4.16307 12.1339 4.29474 12.2656C4.32394 12.2948 4.35783 12.3203 4.39613 12.3408C4.52635 12.4109 4.67643 12.4072 4.79878 12.3446L4.79886 12.3447L4.8007 12.3438C4.80247 12.3429 4.8042 12.3419 4.80593 12.3409L9.68325 9.72159C9.75811 9.68138 9.81943 9.62006 9.85971 9.5452L12.4694 4.6834C12.4751 4.67358 12.4806 4.66366 12.4855 4.65344L12.489 4.64691L12.4886 4.64676C12.5441 4.52719 12.545 4.38411 12.4778 4.25912ZM5.66242 10.9001L7.32744 7.80298L8.75926 9.23483L5.66242 10.9001ZM9.37216 8.62262L7.94027 7.19073L11.0371 5.52553L9.37216 8.62262Z" fill="white"/>
</svg>
