<svg width="17" height="17" viewBox="0 0 17 17" fill="none" xmlns="http://www.w3.org/2000/svg">
<path d="M16.1817 9.71089L14.7316 8.66089C14.7566 8.46089 14.7566 8.23589 14.7566 8.03589C14.7566 7.81089 14.7566 7.61089 14.7316 7.41089L16.1817 6.36089C16.4317 6.21089 16.5066 5.91089 16.3566 5.68589L14.5816 2.66089C14.4317 2.41089 14.1317 2.33589 13.8817 2.48589L12.2316 3.21089C11.8816 2.96089 11.5066 2.76089 11.1067 2.58589L10.9566 0.785889C10.9566 0.510889 10.7317 0.285889 10.4566 0.285889H6.90665C6.63165 0.285889 6.40665 0.510889 6.40665 0.785889L6.23165 2.56089C5.83165 2.73589 5.45665 2.93589 5.10665 3.18589L3.45665 2.46089C3.20665 2.31089 2.90665 2.41089 2.75665 2.63589L1.00665 5.68589C0.856651 5.93589 0.956651 6.23589 1.18165 6.36089L2.63165 7.41089C2.60665 7.61089 2.60665 7.83589 2.60665 8.03589C2.60665 8.23589 2.60665 8.46089 2.63165 8.66089L1.18165 9.71089C0.931651 9.86089 0.856651 10.1609 1.00665 10.3859L2.78165 13.4109C2.93165 13.6609 3.23165 13.7359 3.48165 13.5859L5.13165 12.8609C5.48165 13.1109 5.85665 13.3109 6.25665 13.4859L6.40665 15.2859C6.40665 15.5609 6.63165 15.7859 6.90665 15.7859H10.4566C10.7317 15.7859 10.9566 15.5609 10.9566 15.2859L11.1316 13.5109C11.5316 13.3359 11.9067 13.1359 12.2566 12.8859L13.9066 13.6109C14.1566 13.7609 14.4567 13.6609 14.6067 13.4359L16.3817 10.4109C16.5067 10.1609 16.4067 9.86089 16.1817 9.71089ZM8.68165 10.9859C7.03165 10.9859 5.68165 9.66089 5.68165 8.03589C5.68165 6.41089 7.03165 5.08589 8.68165 5.08589C10.3317 5.08589 11.6817 6.41089 11.6817 8.03589C11.6817 9.66089 10.3317 10.9859 8.68165 10.9859Z" fill="white"/>
<path d="M10.4566 16.0359H6.90664C6.50664 16.0359 6.15664 15.7109 6.15664 15.3109L5.98164 13.7109C5.65664 13.5609 5.35664 13.3859 5.08164 13.1859L3.58164 13.8609C3.23164 14.0609 2.75664 13.9359 2.55664 13.5859L0.781641 10.5109C0.681641 10.3359 0.656641 10.1359 0.706641 9.93589C0.756641 9.73589 0.881641 9.58589 1.05664 9.48589L2.38164 8.53589C2.35664 8.36089 2.35664 8.18589 2.35664 8.01089C2.35664 7.83589 2.35664 7.66089 2.38164 7.48589L1.05664 6.53589C0.881641 6.43589 0.756641 6.28589 0.706641 6.08589C0.656641 5.88589 0.681641 5.68589 0.781641 5.51089L2.55664 2.48589C2.75664 2.13589 3.20664 2.01089 3.58164 2.21089L5.08164 2.88589C5.35664 2.68589 5.68164 2.51089 5.98164 2.36089L6.15664 0.760889C6.15664 0.360889 6.48164 0.0358887 6.90664 0.0358887H10.4566C10.8566 0.0358887 11.2066 0.360889 11.2066 0.760889L11.3816 2.36089C11.7066 2.51089 12.0066 2.68589 12.2816 2.88589L13.7816 2.21089C14.1316 2.01089 14.6066 2.13589 14.8066 2.48589L16.5816 5.51089C16.6816 5.68589 16.7066 5.88589 16.6566 6.08589C16.6066 6.28589 16.4816 6.43589 16.3066 6.53589L14.9816 7.48589C15.0066 7.66089 15.0066 7.83589 15.0066 8.01089C15.0066 8.18589 15.0066 8.36089 14.9816 8.53589L16.3066 9.48589C16.4816 9.58589 16.6066 9.73589 16.6566 9.93589C16.7066 10.1359 16.6816 10.3359 16.5816 10.5109L14.8066 13.5359C14.6066 13.8859 14.1566 14.0109 13.7816 13.8109L12.2816 13.1359C12.0066 13.3359 11.6816 13.5109 11.3816 13.6609L11.2066 15.2609C11.2066 15.7109 10.8566 16.0359 10.4566 16.0359ZM5.10664 12.6359C5.15664 12.6359 5.20664 12.6609 5.25664 12.6859C5.58164 12.9359 5.95664 13.1359 6.33164 13.2859C6.40664 13.3109 6.48164 13.4109 6.48164 13.4859L6.65664 15.2609V15.2859C6.65664 15.4359 6.78164 15.5359 6.90664 15.5359H10.4566C10.6066 15.5359 10.7066 15.4359 10.7066 15.2859V15.2609L10.8816 13.4859C10.8816 13.3859 10.9566 13.3109 11.0316 13.2859C11.4066 13.1109 11.7566 12.9109 12.1066 12.6859C12.1816 12.6359 12.2816 12.6359 12.3566 12.6609L14.0066 13.3859H14.0316C14.1566 13.4609 14.3066 13.4109 14.3816 13.2859L16.1566 10.2609C16.1816 10.2109 16.2066 10.1359 16.1816 10.0859C16.1566 10.0109 16.1316 9.96089 16.0566 9.93589C16.0566 9.93589 16.0316 9.93589 16.0316 9.91089L14.5816 8.86089C14.5066 8.81089 14.4566 8.71089 14.4816 8.63589C14.5066 8.43589 14.5066 8.23589 14.5066 8.03589C14.5066 7.83589 14.5066 7.63589 14.4816 7.43589C14.4816 7.33589 14.5066 7.26089 14.5816 7.21089L16.0316 6.16089C16.0316 6.16089 16.0566 6.16089 16.0566 6.13589C16.1066 6.11089 16.1566 6.03589 16.1816 5.98589C16.2066 5.91089 16.1816 5.86089 16.1566 5.81089L14.3816 2.78589C14.3066 2.66089 14.1566 2.63589 14.0316 2.68589H14.0066L12.3566 3.41089C12.2816 3.43589 12.1816 3.43589 12.1066 3.38589C11.7816 3.13589 11.4066 2.93589 11.0316 2.78589C10.9566 2.76089 10.8816 2.66089 10.8816 2.58589L10.7066 0.810889V0.785889C10.7066 0.635889 10.5816 0.535889 10.4566 0.535889H6.90664C6.75664 0.535889 6.65664 0.635889 6.65664 0.785889V0.810889L6.48164 2.58589C6.48164 2.68589 6.40664 2.76089 6.33164 2.78589C5.95664 2.96089 5.60664 3.16089 5.25664 3.38589C5.18164 3.43589 5.08164 3.43589 5.00664 3.41089L3.35664 2.68589H3.33164C3.20664 2.61089 3.05664 2.66089 2.98164 2.78589L1.20664 5.81089C1.18164 5.86089 1.15664 5.93589 1.18164 5.98589C1.20664 6.06089 1.23164 6.11089 1.30664 6.13589C1.30664 6.13589 1.33164 6.13589 1.33164 6.16089L2.78164 7.21089C2.85664 7.26089 2.90664 7.36089 2.88164 7.43589C2.85664 7.63589 2.85664 7.83589 2.85664 8.03589C2.85664 8.23589 2.85664 8.43589 2.88164 8.63589C2.88164 8.73589 2.85664 8.81089 2.78164 8.86089L1.33164 9.91089C1.33164 9.91089 1.30664 9.91089 1.30664 9.93589C1.25664 9.96089 1.20664 10.0359 1.18164 10.0859C1.15664 10.1609 1.18164 10.2109 1.20664 10.2609L2.98164 13.2859C3.05664 13.4109 3.20664 13.4359 3.33164 13.3859H3.35664L5.00664 12.6609C5.03164 12.6359 5.05664 12.6359 5.10664 12.6359ZM8.68164 11.2359C6.88164 11.2359 5.43164 9.78589 5.43164 8.03589C5.43164 6.28589 6.88164 4.83589 8.68164 4.83589C10.4816 4.83589 11.9316 6.28589 11.9316 8.03589C11.9316 9.78589 10.4566 11.2359 8.68164 11.2359ZM8.68164 5.33589C7.15664 5.33589 5.93164 6.56089 5.93164 8.03589C5.93164 9.53589 7.15664 10.7359 8.68164 10.7359C10.2066 10.7359 11.4316 9.51089 11.4316 8.03589C11.4316 6.53589 10.1816 5.33589 8.68164 5.33589Z" fill="#231C1C"/>
<path d="M8.68125 4.53589C6.73125 4.53589 5.15625 6.11089 5.15625 8.03589C5.15625 9.96089 6.73125 11.5359 8.68125 11.5359C10.6313 11.5359 12.2063 9.96089 12.2063 8.03589C12.2063 6.11089 10.6063 4.53589 8.68125 4.53589ZM8.68125 10.0359C7.55625 10.0359 6.65625 9.13589 6.65625 8.03589C6.65625 6.93589 7.55625 6.03589 8.68125 6.03589C9.80625 6.03589 10.7063 6.93589 10.7063 8.03589C10.7063 9.13589 9.78125 10.0359 8.68125 10.0359Z" fill="#E1E0A6"/>
<path d="M8.68125 11.7859C6.60625 11.7859 4.90625 10.1109 4.90625 8.03589C4.90625 5.96089 6.60625 4.28589 8.68125 4.28589C10.7563 4.28589 12.4563 5.96089 12.4563 8.03589C12.4313 10.1109 10.7563 11.7859 8.68125 11.7859ZM8.68125 4.78589C6.88125 4.78589 5.40625 6.23589 5.40625 8.03589C5.40625 9.83589 6.88125 11.2859 8.68125 11.2859C10.4813 11.2859 11.9563 9.83589 11.9563 8.03589C11.9313 6.23589 10.4813 4.78589 8.68125 4.78589ZM8.68125 10.2859C7.43125 10.2859 6.40625 9.28589 6.40625 8.03589C6.40625 6.78589 7.43125 5.78589 8.68125 5.78589C9.93125 5.78589 10.9563 6.78589 10.9563 8.03589C10.9563 9.28589 9.93125 10.2859 8.68125 10.2859ZM8.68125 6.28589C7.70625 6.28589 6.90625 7.06089 6.90625 8.03589C6.90625 9.01089 7.70625 9.78589 8.68125 9.78589C9.65625 9.78589 10.4562 9.01089 10.4562 8.03589C10.4562 7.06089 9.65625 6.28589 8.68125 6.28589Z" fill="#231C1C"/>
</svg>
