<svg width="16" height="17" viewBox="0 0 16 17" fill="none" xmlns="http://www.w3.org/2000/svg">
<path opacity="0.4" d="M13.1082 8.70581V12.6362C13.1082 13.6487 12.319 14.7329 11.3703 15.0518L8.82708 15.8969C8.38063 16.0483 7.65515 16.0483 7.21667 15.8969L4.67352 15.0518C3.71684 14.7329 2.93555 13.6487 2.93555 12.6362L2.94352 8.70581L6.46727 11.0018C7.32828 11.5679 8.74736 11.5679 9.60838 11.0018L13.1082 8.70581Z" fill="white"/>
<path d="M14.3835 3.61919L9.60811 0.486051C8.7471 -0.0799858 7.32802 -0.0799858 6.467 0.486051L1.66767 3.61919C0.129006 4.61573 0.129006 6.87194 1.66767 7.87645L2.94325 8.70558L6.467 11.0016C7.32802 11.5677 8.7471 11.5677 9.60811 11.0016L13.108 8.70558L14.2002 7.98807V10.4276C14.2002 10.7545 14.4712 11.0255 14.7981 11.0255C15.125 11.0255 15.396 10.7545 15.396 10.4276V6.50521C15.7149 5.47674 15.3881 4.28089 14.3835 3.61919Z" fill="white"/>
</svg>
