<svg width="27" height="27" viewBox="0 0 27 27" fill="none" xmlns="http://www.w3.org/2000/svg">
<path d="M19.3439 15.0694C19.2932 15.0451 17.3977 14.1118 17.0609 13.9905C16.9234 13.9411 16.7761 13.8929 16.6194 13.8929C16.3635 13.8929 16.1485 14.0205 15.981 14.271C15.7917 14.5525 15.2185 15.2225 15.0414 15.4226C15.0182 15.4491 14.9867 15.4806 14.9678 15.4806C14.9508 15.4806 14.6575 15.3598 14.5686 15.3213C12.5353 14.438 10.992 12.314 10.7803 11.9559C10.7501 11.9044 10.7488 11.881 10.7486 11.881C10.756 11.8537 10.8244 11.7852 10.8597 11.7498C10.9629 11.6477 11.0748 11.513 11.183 11.3828C11.2342 11.3211 11.2856 11.2593 11.336 11.201C11.493 11.0183 11.5629 10.8765 11.6439 10.7123L11.6864 10.6269C11.8842 10.2338 11.7152 9.90203 11.6606 9.79491C11.6158 9.70526 10.8154 7.77366 10.7304 7.57073C10.5257 7.08103 10.2553 6.85303 9.87961 6.85303C9.84475 6.85303 9.87961 6.85303 9.73341 6.85919C9.55537 6.8667 8.58586 6.99434 8.1572 7.26455C7.70262 7.55114 6.93359 8.46469 6.93359 10.0713C6.93359 11.5172 7.85119 12.8825 8.24516 13.4017C8.25495 13.4148 8.27293 13.4414 8.29902 13.4796C9.80778 15.683 11.6886 17.3159 13.5953 18.0776C15.431 18.8108 16.3002 18.8956 16.7943 18.8956H16.7944C17.0021 18.8956 17.1683 18.8793 17.3149 18.8649L17.408 18.856C18.0421 18.7998 19.4356 18.0777 19.7526 17.1968C20.0023 16.503 20.0682 15.7449 19.902 15.4698C19.7882 15.2828 19.5921 15.1886 19.3439 15.0694Z" fill="white"/>
<path d="M13.3362 0.129395C6.29463 0.129395 0.565852 5.81512 0.565852 12.8038C0.565852 15.0642 1.17077 17.2768 2.31672 19.2133L0.123345 25.6833C0.0824881 25.804 0.112878 25.9373 0.202105 26.0282C0.266514 26.0939 0.353884 26.1294 0.443111 26.1294C0.4773 26.1294 0.511741 26.1242 0.545339 26.1135L7.29183 23.9697C9.138 24.9561 11.2246 25.4768 13.3363 25.4768C20.3773 25.4769 26.1054 19.7917 26.1054 12.8038C26.1054 5.81512 20.3773 0.129395 13.3362 0.129395ZM13.3362 22.8367C11.3492 22.8367 9.42459 22.2629 7.77022 21.1773C7.71459 21.1408 7.65001 21.122 7.58501 21.122C7.55065 21.122 7.51621 21.1273 7.4827 21.1379L4.10312 22.2122L5.1941 18.9935C5.22939 18.8893 5.21175 18.7744 5.14675 18.6856C3.88693 16.9642 3.22098 14.9304 3.22098 12.8038C3.22098 7.27095 7.75865 2.76958 13.3362 2.76958C18.913 2.76958 23.4502 7.27095 23.4502 12.8038C23.4502 18.336 18.9132 22.8367 13.3362 22.8367Z" fill="white"/>
</svg>
