<svg width="101" height="22" viewBox="0 0 101 22" fill="none" xmlns="http://www.w3.org/2000/svg">
<path d="M14.1178 3.54314V20.3095C14.1178 20.6707 13.8242 20.9647 13.461 20.9647H13.1154C12.7532 20.9647 12.4586 20.6717 12.4586 20.3095C12.4586 19.7467 11.805 19.46 11.3699 19.8181C10.9639 20.152 10.5351 20.4302 10.0834 20.6518C9.20593 21.0833 8.24626 21.2986 7.20435 21.2986C5.35266 21.2986 3.77263 20.6297 2.46219 19.291C1.29018 18.094 0.641725 16.6628 0.518903 15.0007C0.358611 12.8356 1.22461 10.6747 2.8546 9.23622C4.09947 8.13687 5.56604 7.58668 7.25431 7.58668C8.32744 7.58668 9.29961 7.81453 10.1698 8.27022C10.5934 8.49282 10.9931 8.76897 11.3668 9.09972C11.7914 9.47562 12.4607 9.18267 12.4607 8.61567V3.54314C12.4607 3.18194 12.7542 2.88795 13.1175 2.88795H13.4631C13.8253 2.88795 14.1198 3.18089 14.1198 3.54314H14.1178ZM7.39171 9.20577C6.45493 9.20577 5.58998 9.43572 4.79788 9.89457C4.00579 10.3534 3.37503 10.9981 2.90664 11.8287C2.43825 12.6592 2.20406 13.537 2.20406 14.4631C2.20406 15.3892 2.44033 16.2596 2.91288 17.0975C3.38543 17.9354 4.01932 18.5885 4.81558 19.0547C5.61184 19.522 6.46638 19.7551 7.37922 19.7551C8.29205 19.7551 9.17262 19.5241 9.99698 19.061C10.8213 18.598 11.4563 17.9711 11.9007 17.1815C12.3441 16.3909 12.5669 15.5015 12.5669 14.5114C12.5669 13.0026 12.0693 11.7415 11.0722 10.7283C10.075 9.71502 8.84891 9.20787 7.39171 9.20787V9.20577Z" fill="white"/>
<path d="M29.4112 16.9872C29.8307 17.2067 29.9837 17.7401 29.7318 18.1401C29.3738 18.7103 28.9793 19.1922 28.5494 19.586C27.9395 20.1456 27.2546 20.5709 26.4916 20.8628C25.7297 21.1547 24.8668 21.3006 23.9051 21.3006C21.7713 21.3006 20.1028 20.6034 18.8996 19.209C17.6963 17.8146 17.0947 16.2386 17.0947 14.4798C17.0947 12.825 17.6047 11.3508 18.6227 10.0562C19.9144 8.40981 21.6433 7.58661 23.8093 7.58661C25.9754 7.58661 27.8198 8.42976 29.1521 10.1161C29.9795 11.1566 30.4511 12.4239 30.5676 13.917C30.5947 14.2698 30.3189 14.5754 29.9639 14.5754H19.4762C19.113 14.5754 18.8309 14.8956 18.8736 15.2558C19.0193 16.4664 19.4887 17.4807 20.2829 18.3008C21.2217 19.2699 22.3813 19.754 23.7614 19.754C24.4276 19.754 25.075 19.6385 25.7058 19.4075C26.3355 19.1765 26.8715 18.8699 27.3129 18.4887C27.6386 18.2073 27.9832 17.7978 28.3485 17.2602C28.5837 16.9137 29.0417 16.793 29.4133 16.9872H29.4112ZM27.929 13.1253C28.3423 13.1253 28.6431 12.7148 28.4994 12.3284C28.3017 11.795 28.056 11.3456 27.7636 10.9802C27.368 10.4867 26.8559 10.0825 26.2252 9.76536C25.4476 9.37476 24.5754 9.17736 23.7052 9.19626C22.476 9.22251 21.4164 9.63411 20.5244 10.429C20.0123 10.8847 19.5949 11.5125 19.2732 12.3137C19.1171 12.7032 19.4158 13.1264 19.8374 13.1264C21.6901 13.1264 26.1023 13.1264 27.9301 13.1264L27.929 13.1253Z" fill="white"/>
<path d="M33.5673 7.9221C33.8848 7.9221 34.1731 8.10585 34.3064 8.39355L37.7349 15.8191C38.0264 16.4502 38.9257 16.4481 39.214 15.816L42.5989 8.39775C42.7311 8.10795 43.0204 7.9221 43.3389 7.9221H43.3514C43.9437 7.9221 44.3371 8.5332 44.0915 9.07079L38.6322 20.9641H38.3189L32.8273 9.0729C32.5796 8.5353 32.973 7.9221 33.5663 7.9221H33.5673Z" fill="white"/>
<path d="M68.3569 7.9224C68.6764 7.9224 68.9647 8.1135 69.0896 8.40645L72.1768 15.6966C72.4485 16.3371 73.3561 16.3434 73.6371 15.7071L77.0678 7.92135H77.3728L80.8378 15.7302C81.1188 16.3633 82.0202 16.3581 82.295 15.7228L85.454 8.4012C85.58 8.11035 85.8662 7.92135 86.1847 7.92135H86.1993C86.7718 7.92135 87.1569 8.5062 86.9279 9.03015L81.7288 20.9633H81.4165L77.9598 13.2469C77.6798 12.6211 76.7878 12.6211 76.5078 13.2469L73.0543 20.9633H72.741L67.6272 9.0249C67.4034 8.502 67.7875 7.92135 68.3579 7.92135L68.3569 7.9224Z" fill="white"/>
<path d="M90.7354 13.2741C90.7354 10.9893 92.6433 9.31981 94.954 9.39961C97.1544 9.47521 98.8572 11.3683 98.8572 13.5628V20.1442C98.8572 20.5968 99.2246 20.9632 99.6785 20.9632C100.132 20.9632 100.5 20.5968 100.5 20.1442V13.4788C100.5 10.3383 98.036 7.63666 94.8863 7.58731C91.694 7.53797 89.0908 10.1031 89.0908 13.2741V20.1442C89.0908 20.5968 89.4582 20.9632 89.9121 20.9632C90.3659 20.9632 90.7333 20.5968 90.7333 20.1442V13.2741H90.7354Z" fill="white"/>
<path d="M41.0448 5.88825H20.4712C19.2961 5.904 19.2961 4.2324 20.4712 4.24815H41.0438C42.2117 4.2324 42.2231 5.904 41.0438 5.88825H41.0448Z" fill="white"/>
<path d="M63.6423 9.844C62.3215 8.3782 60.6363 7.63585 58.6316 7.63585C56.6269 7.63585 54.9282 8.38345 53.6105 9.8566C52.4125 11.1901 51.8057 12.7871 51.8057 14.6026C51.8057 16.418 52.4468 18.0581 53.7104 19.4273C54.9803 20.8028 56.6353 21.5 58.6316 21.5C60.628 21.5 62.2715 20.8028 63.5414 19.4273C64.805 18.0581 65.4461 16.4348 65.4461 14.6026C65.4461 12.7703 64.8393 11.1796 63.6423 9.844ZM62.0758 17.9783C61.1849 18.9443 60.0253 19.4336 58.6295 19.4336C57.2337 19.4336 56.0659 18.9443 55.1749 17.9783C54.2881 17.0176 53.8374 15.8783 53.8374 14.5921C53.8374 13.3058 54.2631 12.197 55.1041 11.2604C56.0295 10.2262 57.2161 9.70225 58.6285 9.70225C60.0409 9.70225 61.2182 10.2241 62.1456 11.252C62.9855 12.1897 63.4123 13.3132 63.4123 14.5921C63.4123 15.871 62.9627 17.0176 62.0748 17.9783H62.0758Z" fill="white"/>
<path d="M98.0861 4.16448H49.6247V1.445C49.6247 0.923148 49.2052 0.5 48.6879 0.5C48.1706 0.5 47.7511 0.923148 47.7511 1.445V4.16343H45.0345C44.5338 4.16343 44.1289 4.57293 44.1289 5.07693C44.1289 5.58198 44.5348 5.99043 45.0345 5.99043H47.7511V20.1958C47.7511 20.7177 48.1706 21.1408 48.6879 21.1408C49.2052 21.1408 49.6247 20.7177 49.6247 20.1958V5.99148H98.0861C98.5867 5.99148 98.9916 5.58198 98.9916 5.07798C98.9916 4.57293 98.5857 4.16448 98.0861 4.16448Z" fill="white"/>
</svg>
