<svg width="100" height="22" viewBox="0 0 100 22" fill="none" xmlns="http://www.w3.org/2000/svg">
<path d="M13.6178 3.75676V20.5231C13.6178 20.8843 13.3242 21.1783 12.961 21.1783H12.6154C12.2532 21.1783 11.9586 20.8853 11.9586 20.5231C11.9586 19.9603 11.305 19.6736 10.8699 20.0317C10.4639 20.3656 10.0351 20.6438 9.58337 20.8654C8.70593 21.2969 7.74626 21.5122 6.70435 21.5122C4.85266 21.5122 3.27263 20.8433 1.96219 19.5046C0.790181 18.3076 0.141725 16.8765 0.0189035 15.2143C-0.141389 13.0492 0.724607 10.8883 2.3546 9.44984C3.59947 8.35049 5.06604 7.80029 6.75431 7.80029C7.82744 7.80029 8.79961 8.02814 9.66977 8.48384C10.0934 8.70644 10.4931 8.98259 10.8668 9.31334C11.2914 9.68924 11.9607 9.39629 11.9607 8.82929V3.75676C11.9607 3.39556 12.2542 3.10156 12.6175 3.10156H12.9631C13.3253 3.10156 13.6198 3.39451 13.6198 3.75676H13.6178ZM6.89171 9.41939C5.95493 9.41939 5.08998 9.64934 4.29788 10.1082C3.50579 10.567 2.87503 11.2117 2.40664 12.0423C1.93825 12.8728 1.70406 13.7506 1.70406 14.6767C1.70406 15.6028 1.94033 16.4733 2.41288 17.3112C2.88543 18.1491 3.51932 18.8021 4.31558 19.2683C5.11184 19.7356 5.96638 19.9687 6.87922 19.9687C7.79205 19.9687 8.67262 19.7377 9.49698 19.2746C10.3213 18.8116 10.9563 18.1847 11.4007 17.3952C11.8441 16.6045 12.0669 15.7152 12.0669 14.725C12.0669 13.2162 11.5693 11.9551 10.5722 10.9419C9.57505 9.92863 8.34891 9.42149 6.89171 9.42149V9.41939Z" fill="white"/>
<path d="M28.9112 17.2014C29.3307 17.4208 29.4837 17.9542 29.2318 18.3543C28.8738 18.9244 28.4793 19.4064 28.0494 19.8001C27.4395 20.3598 26.7546 20.785 25.9916 21.0769C25.2297 21.3688 24.3668 21.5148 23.4051 21.5148C21.2713 21.5148 19.6028 20.8176 18.3996 19.4232C17.1963 18.0288 16.5947 16.4527 16.5947 14.694C16.5947 13.0392 17.1047 11.565 18.1227 10.2704C19.4144 8.62398 21.1433 7.80078 23.3093 7.80078C25.4754 7.80078 27.3198 8.64393 28.6521 10.3302C29.4795 11.3708 29.9511 12.6381 30.0676 14.1312C30.0947 14.484 29.8189 14.7896 29.4639 14.7896H18.9762C18.613 14.7896 18.3309 15.1098 18.3736 15.4699C18.5193 16.6806 18.9887 17.6949 19.7829 18.5149C20.7217 19.4841 21.8813 19.9681 23.2614 19.9681C23.9276 19.9681 24.575 19.8526 25.2058 19.6216C25.8355 19.3906 26.3715 19.084 26.8129 18.7029C27.1386 18.4215 27.4832 18.012 27.8485 17.4744C28.0837 17.1279 28.5417 17.0071 28.9133 17.2014H28.9112ZM27.429 13.3395C27.8423 13.3395 28.1431 12.929 27.9994 12.5426C27.8017 12.0092 27.556 11.5598 27.2636 11.1944C26.868 10.7009 26.3559 10.2966 25.7252 9.97952C24.9476 9.58892 24.0754 9.39152 23.2052 9.41042C21.976 9.43667 20.9164 9.84827 20.0244 10.6431C19.5123 11.0988 19.0949 11.7267 18.7732 12.5279C18.6171 12.9174 18.9158 13.3406 19.3374 13.3406C21.1901 13.3406 25.6023 13.3406 27.4301 13.3406L27.429 13.3395Z" fill="white"/>
<path d="M33.0673 8.13574C33.3848 8.13574 33.6731 8.31949 33.8064 8.60719L37.2349 16.0328C37.5264 16.6638 38.4257 16.6617 38.714 16.0296L42.0989 8.61139C42.2311 8.32159 42.5204 8.13574 42.8389 8.13574H42.8514C43.4437 8.13574 43.8371 8.74684 43.5915 9.28444L38.1322 21.1777H37.8189L32.3273 9.28654C32.0796 8.74894 32.473 8.13574 33.0663 8.13574H33.0673Z" fill="white"/>
<path d="M67.8569 8.13582C68.1764 8.13582 68.4647 8.32692 68.5896 8.61986L71.6768 15.91C71.9485 16.5505 72.8561 16.5568 73.1371 15.9205L76.5678 8.13477H76.8728L80.3378 15.9436C80.6188 16.5767 81.5202 16.5715 81.795 15.9362L84.954 8.61461C85.08 8.32376 85.3662 8.13477 85.6847 8.13477H85.6993C86.2718 8.13477 86.6569 8.71961 86.4279 9.24356L81.2288 21.1768H80.9165L77.4598 13.4603C77.1798 12.8345 76.2878 12.8345 76.0078 13.4603L72.5543 21.1768H72.241L67.1272 9.23831C66.9034 8.71541 67.2875 8.13477 67.8579 8.13477L67.8569 8.13582Z" fill="white"/>
<path d="M90.2354 13.4883C90.2354 11.2035 92.1433 9.53397 94.454 9.61377C96.6544 9.68937 98.3572 11.5825 98.3572 13.777V20.3584C98.3572 20.8109 98.7246 21.1774 99.1785 21.1774C99.6323 21.1774 99.9997 20.8109 99.9997 20.3584V13.693C99.9997 10.5525 97.536 7.85083 94.3863 7.80148C91.194 7.75213 88.5908 10.3173 88.5908 13.4883V20.3584C88.5908 20.8109 88.9582 21.1774 89.4121 21.1774C89.8659 21.1774 90.2333 20.8109 90.2333 20.3584V13.4883H90.2354Z" fill="white"/>
<path d="M40.5448 6.10212H19.9712C18.7961 6.11787 18.7961 4.44627 19.9712 4.46202H40.5438C41.7117 4.44627 41.7231 6.11787 40.5438 6.10212H40.5448Z" fill="white"/>
<path d="M63.1423 10.0578C61.8215 8.59196 60.1363 7.84961 58.1316 7.84961C56.1269 7.84961 54.4282 8.59721 53.1105 10.0704C51.9125 11.4038 51.3057 13.0009 51.3057 14.8163C51.3057 16.6318 51.9468 18.2719 53.2104 19.6411C54.4803 21.0166 56.1353 21.7138 58.1316 21.7138C60.128 21.7138 61.7715 21.0166 63.0414 19.6411C64.305 18.2719 64.9461 16.6486 64.9461 14.8163C64.9461 12.9841 64.3393 11.3933 63.1423 10.0578ZM61.5758 18.1921C60.6849 19.1581 59.5253 19.6474 58.1295 19.6474C56.7337 19.6474 55.5659 19.1581 54.6749 18.1921C53.7881 17.2313 53.3374 16.0921 53.3374 14.8058C53.3374 13.5196 53.7631 12.4108 54.6041 11.4742C55.5295 10.4399 56.7161 9.916 58.1285 9.916C59.5409 9.916 60.7182 10.4378 61.6456 11.4658C62.4855 12.4034 62.9123 13.5269 62.9123 14.8058C62.9123 16.0847 62.4627 17.2313 61.5748 18.1921H61.5758Z" fill="white"/>
<path d="M97.5861 4.37835H49.1247V1.65886C49.1247 1.13702 48.7052 0.713867 48.1879 0.713867C47.6706 0.713867 47.2511 1.13702 47.2511 1.65886V4.3773H44.5345C44.0338 4.3773 43.6289 4.7868 43.6289 5.2908C43.6289 5.79585 44.0348 6.20429 44.5345 6.20429H47.2511V20.4097C47.2511 20.9315 47.6706 21.3547 48.1879 21.3547C48.7052 21.3547 49.1247 20.9315 49.1247 20.4097V6.20534H97.5861C98.0867 6.20534 98.4916 5.79585 98.4916 5.29185C98.4916 4.7868 98.0857 4.37835 97.5861 4.37835Z" fill="white"/>
</svg>
