<svg width="31" height="31" viewBox="0 0 31 31" fill="none" xmlns="http://www.w3.org/2000/svg">
<g clip-path="url(#clip0_1531_3617)">
<path d="M23.0543 0.591309H7.16316C3.29119 0.591309 0.152344 3.73016 0.152344 7.60212V23.4933C0.152344 27.3653 3.29119 30.5041 7.16316 30.5041H23.0543C26.9263 30.5041 30.0652 27.3653 30.0652 23.4933V7.60212C30.0652 3.73016 26.9263 0.591309 23.0543 0.591309Z" fill="url(#paint0_linear_1531_3617)"/>
<g filter="url(#filter0_d_1531_3617)">
<path d="M15.5731 23.511C19.0407 23.511 21.1302 21.8131 21.1302 19.0127C21.1302 16.8958 19.6394 15.3633 17.4255 15.1207V15.0326C19.052 14.7679 20.3283 13.2574 20.3283 11.5706C20.3283 9.1671 18.4309 7.60144 15.5392 7.60144H9.0332V23.511H15.5731ZM11.5633 9.61908H14.9293C16.7591 9.61908 17.7982 10.4349 17.7982 11.9123C17.7982 13.489 16.5897 14.371 14.3985 14.371H11.5633V9.61908ZM11.5633 21.4934V16.2564H14.9066C17.3013 16.2564 18.5437 17.1384 18.5437 18.8584C18.5437 20.5782 17.3352 21.4934 15.0535 21.4934H11.5633Z" fill="url(#paint1_linear_1531_3617)"/>
<path d="M15.5731 23.511C19.0407 23.511 21.1302 21.8131 21.1302 19.0127C21.1302 16.8958 19.6394 15.3633 17.4255 15.1207V15.0326C19.052 14.7679 20.3283 13.2574 20.3283 11.5706C20.3283 9.1671 18.4308 7.60144 15.5392 7.60144H9.0332V23.511H15.5731ZM11.5633 9.61908H14.9293C16.7591 9.61908 17.7982 10.4349 17.7982 11.9123C17.7982 13.489 16.5897 14.371 14.3985 14.371H11.5633V9.61908ZM11.5633 21.4934V16.2564H14.9066C17.3013 16.2564 18.5437 17.1384 18.5437 18.8584C18.5437 20.5782 17.3352 21.4934 15.0535 21.4934H11.5633Z" stroke="white" stroke-width="0.233694"/>
</g>
</g>
<defs>
<filter id="filter0_d_1531_3617" x="7.04646" y="6.08246" width="16.0702" height="19.8823" filterUnits="userSpaceOnUse" color-interpolation-filters="sRGB">
<feFlood flood-opacity="0" result="BackgroundImageFix"/>
<feColorMatrix in="SourceAlpha" type="matrix" values="0 0 0 0 0 0 0 0 0 0 0 0 0 0 0 0 0 0 127 0" result="hardAlpha"/>
<feOffset dy="0.467388"/>
<feGaussianBlur stdDeviation="0.934775"/>
<feColorMatrix type="matrix" values="0 0 0 0 0 0 0 0 0 0 0 0 0 0 0 0 0 0 0.15 0"/>
<feBlend mode="normal" in2="BackgroundImageFix" result="effect1_dropShadow_1531_3617"/>
<feBlend mode="normal" in="SourceGraphic" in2="effect1_dropShadow_1531_3617" result="shape"/>
</filter>
<linearGradient id="paint0_linear_1531_3617" x1="0.152344" y1="0.591309" x2="30.0652" y2="30.5041" gradientUnits="userSpaceOnUse">
<stop stop-color="#9013FE"/>
<stop offset="1" stop-color="#6B11F4"/>
</linearGradient>
<linearGradient id="paint1_linear_1531_3617" x1="10.1775" y1="8.64862" x2="17.5094" y2="21.0487" gradientUnits="userSpaceOnUse">
<stop stop-color="white"/>
<stop offset="1" stop-color="#F1E5FC"/>
</linearGradient>
<clipPath id="clip0_1531_3617">
<rect width="29.9128" height="29.9128" fill="white" transform="translate(0.152344 0.591309)"/>
</clipPath>
</defs>
</svg>
