<svg width="22" height="22" viewBox="0 0 22 22" fill="none" xmlns="http://www.w3.org/2000/svg">
<path d="M6.38525 11.7405C6.38525 12.1955 6.01391 12.5644 5.55591 12.5644C5.0979 12.5644 4.72656 12.1955 4.72656 11.7405C4.72656 11.2854 5.0979 10.9165 5.55591 10.9165C6.01391 10.9165 6.38525 11.2854 6.38525 11.7405ZM10.0859 11.7405C10.0859 12.1955 9.71458 12.5644 9.25658 12.5644C8.79857 12.5644 8.42723 12.1955 8.42723 11.7405C8.42723 11.2854 8.79857 10.9165 9.25658 10.9165C9.71458 10.9165 10.0859 11.2854 10.0859 11.7405ZM13.7867 11.7405C13.7867 12.1955 13.4153 12.5644 12.9573 12.5644C12.4993 12.5644 12.128 12.1955 12.128 11.7405C12.128 11.2854 12.4993 10.9165 12.9573 10.9165C13.4153 10.9165 13.7867 11.2854 13.7867 11.7405ZM17.4874 11.7405C17.4874 12.1955 17.116 12.5644 16.658 12.5644C16.2 12.5644 15.8287 12.1955 15.8287 11.7405C15.8287 11.2854 16.2 10.9165 16.658 10.9165C17.116 10.9165 17.4874 11.2854 17.4874 11.7405ZM6.38525 14.5898C6.38525 15.0449 6.01391 15.4138 5.55591 15.4138C5.0979 15.4138 4.72656 15.0449 4.72656 14.5898C4.72656 14.1348 5.0979 13.7658 5.55591 13.7658C6.01391 13.7658 6.38525 14.1348 6.38525 14.5898ZM10.0859 14.5898C10.0859 15.0449 9.71458 15.4138 9.25658 15.4138C8.79857 15.4138 8.42723 15.0449 8.42723 14.5898C8.42723 14.1348 8.79857 13.7658 9.25658 13.7658C9.71458 13.7658 10.0859 14.1348 10.0859 14.5898ZM13.7867 14.5898C13.7867 15.0449 13.4153 15.4138 12.9573 15.4138C12.4993 15.4138 12.128 15.0449 12.128 14.5898C12.128 14.1348 12.4993 13.7658 12.9573 13.7658C13.4153 13.7658 13.7867 14.1348 13.7867 14.5898ZM17.4874 14.5898C17.4874 15.0449 17.116 15.4138 16.658 15.4138C16.2 15.4138 15.8287 15.0449 15.8287 14.5898C15.8287 14.1348 16.2 13.7658 16.658 13.7658C17.116 13.7658 17.4874 14.1348 17.4874 14.5898ZM6.38525 17.4392C6.38525 17.8943 6.01391 18.2632 5.55591 18.2632C5.0979 18.2632 4.72656 17.8943 4.72656 17.4392C4.72656 16.9842 5.0979 16.6152 5.55591 16.6152C6.01391 16.6152 6.38525 16.9842 6.38525 17.4392ZM10.0859 17.4392C10.0859 17.8943 9.71458 18.2632 9.25658 18.2632C8.79857 18.2632 8.42723 17.8943 8.42723 17.4392C8.42723 16.9842 8.79857 16.6152 9.25658 16.6152C9.71458 16.6152 10.0859 16.9842 10.0859 17.4392ZM13.7867 17.4392C13.7867 17.8943 13.4153 18.2632 12.9573 18.2632C12.4993 18.2632 12.128 17.8943 12.128 17.4392C12.128 16.9842 12.4993 16.6152 12.9573 16.6152C13.4153 16.6152 13.7867 16.9842 13.7867 17.4392ZM17.4874 17.4392C17.4874 17.8943 17.116 18.2632 16.658 18.2632C16.2 18.2632 15.8287 17.8943 15.8287 17.4392C15.8287 16.9842 16.2 16.6152 16.658 16.6152C17.116 16.6152 17.4874 16.9842 17.4874 17.4392ZM5.60298 2.5713V5.66128C5.60298 5.88882 5.78863 6.07328 6.01766 6.07328C6.24668 6.07328 6.43233 5.88882 6.43233 5.66128V2.5713C6.43233 2.34376 6.24668 2.1593 6.01766 2.1593C5.78863 2.1593 5.60298 2.34376 5.60298 2.5713ZM16.2956 2.5713V5.66128C16.2956 5.88882 16.4812 6.07328 16.7103 6.07328C16.9393 6.07328 17.1249 5.88882 17.1249 5.66128V2.5713C17.1249 2.34376 16.9393 2.1593 16.7103 2.1593C16.4812 2.1593 16.2956 2.34376 16.2956 2.5713Z" fill="white"/>
<path d="M19.0234 3.68921C19.7104 3.68921 20.2674 4.24261 20.2674 4.9252V19.075C20.2674 19.7576 19.7104 20.311 19.0234 20.311H3.68054C2.99352 20.311 2.43652 19.7576 2.43652 19.075V4.9252C2.43652 4.24261 2.99352 3.68921 3.68054 3.68921H19.0234ZM3.68054 4.5132C3.45156 4.5132 3.26587 4.6977 3.26587 4.9252V19.075C3.26587 19.3025 3.45156 19.487 3.68054 19.487H19.0234C19.2524 19.487 19.4381 19.3025 19.4381 19.075V4.9252C19.4381 4.6977 19.2524 4.5132 19.0234 4.5132H3.68054Z" fill="white"/>
<path d="M12.627 7.72875C12.627 7.04618 12.0699 6.49276 11.3829 6.49276C10.6959 6.49276 10.1389 7.04618 10.1389 7.72875C10.1389 8.41132 10.6959 8.96474 11.3829 8.96474C12.0699 8.96474 12.627 8.41132 12.627 7.72875ZM13.4563 7.72875C13.4563 8.86639 12.528 9.78873 11.3829 9.78873C10.2379 9.78873 9.30957 8.86639 9.30957 7.72875C9.30957 6.59111 10.2379 5.66876 11.3829 5.66876C12.528 5.66876 13.4563 6.59111 13.4563 7.72875Z" fill="white"/>
</svg>
