<svg width="19" height="17" viewBox="0 0 19 17" fill="none" xmlns="http://www.w3.org/2000/svg">
<g clip-path="url(#clip0_1531_3582)">
<path d="M18.2 0.869812V13.2297H15.8825V12.5431H17.4275V1.55647H1.97757V12.5431H8.15754V13.2297H1.20508V0.869812H18.2ZM12.7925 2.24314H6.61254V2.9298H12.7925V2.24314ZM11.2475 4.30312V3.61646H8.15754V4.30312H11.2475ZM5.84005 7.73643H2.75007V8.42309H5.84005V7.73643ZM5.84005 9.10976H2.75007V9.79642H5.84005V9.10976ZM2.75007 11.1697H4.29506V10.4831H2.75007V11.1697ZM13.565 9.10976C13.565 9.38137 13.4744 9.64689 13.3046 9.87273C13.1349 10.0986 12.8936 10.2746 12.6113 10.3785C12.3289 10.4825 12.0183 10.5097 11.7186 10.4567C11.4189 10.4037 11.1436 10.2729 10.9275 10.0808C10.7115 9.88878 10.5643 9.64408 10.5047 9.37768C10.4451 9.11128 10.4757 8.83515 10.5926 8.58421C10.7096 8.33327 10.9076 8.11878 11.1617 7.96788C11.4157 7.81698 11.7144 7.73643 12.02 7.73643C12.4296 7.7368 12.8224 7.8816 13.112 8.13907C13.4017 8.39654 13.5646 8.74564 13.565 9.10976ZM12.7925 9.10976C12.7925 8.97395 12.7472 8.84119 12.6623 8.72827C12.5774 8.61535 12.4568 8.52734 12.3156 8.47536C12.1745 8.42339 12.0192 8.40979 11.8693 8.43629C11.7195 8.46278 11.5818 8.52818 11.4738 8.62421C11.3657 8.72024 11.2922 8.8426 11.2624 8.97579C11.2326 9.10899 11.2479 9.24706 11.3063 9.37253C11.3648 9.498 11.4638 9.60524 11.5908 9.68069C11.7179 9.75615 11.8672 9.79642 12.02 9.79642C12.2248 9.79624 12.4212 9.72383 12.566 9.5951C12.7108 9.46636 12.7923 9.29181 12.7925 9.10976ZM12.7941 6.16192C12.8289 6.24907 12.8839 6.32876 12.9555 6.39588C13.0271 6.463 13.1137 6.51606 13.2097 6.55163C13.3058 6.5872 13.4091 6.60451 13.5132 6.60243C13.6172 6.60036 13.7196 6.57895 13.8137 6.53958C13.9676 6.47566 14.1398 6.45502 14.3073 6.48042C14.4747 6.50582 14.6294 6.57605 14.7508 6.68172C14.8709 6.78843 14.951 6.92556 14.98 7.0743C15.0091 7.22304 14.9857 7.37612 14.913 7.51258C14.8683 7.59634 14.8438 7.6875 14.8412 7.78018C14.8385 7.87286 14.8578 7.96501 14.8977 8.05067C14.9375 8.13634 14.9972 8.21362 15.0727 8.27753C15.1483 8.34144 15.2381 8.39056 15.3363 8.42172C15.496 8.47241 15.6341 8.56573 15.7317 8.6889C15.8294 8.81207 15.8818 8.95907 15.8818 9.10976C15.8818 9.26044 15.8294 9.40744 15.7317 9.53061C15.6341 9.65378 15.496 9.74711 15.3363 9.79779C15.2381 9.82881 15.1482 9.8778 15.0726 9.94162C14.9969 10.0054 14.9372 10.0826 14.8972 10.1683C14.8572 10.2539 14.8379 10.346 14.8405 10.4387C14.8431 10.5313 14.8675 10.6225 14.9122 10.7062C14.9668 10.8057 14.9948 10.9149 14.9943 11.0255C14.9937 11.1362 14.9645 11.2452 14.9089 11.3442C14.8534 11.4431 14.7729 11.5294 14.6738 11.5963C14.5748 11.6633 14.4597 11.709 14.3375 11.7301V16.5683L12.02 14.8255L9.70253 16.5683V11.7301C9.58046 11.709 9.46548 11.6632 9.36647 11.5964C9.26746 11.5295 9.18707 11.4433 9.13152 11.3444C9.07597 11.2455 9.04674 11.1366 9.04609 11.026C9.04545 10.9155 9.0734 10.8063 9.12779 10.7069C9.17262 10.6231 9.19715 10.5319 9.19981 10.4392C9.20246 10.3464 9.18318 10.2542 9.1432 10.1685C9.10322 10.0828 9.04344 10.0055 8.96773 9.94168C8.89202 9.87781 8.80206 9.82879 8.70369 9.79779C8.54405 9.74711 8.40594 9.65378 8.30829 9.53061C8.21064 9.40744 8.15823 9.26044 8.15823 9.10976C8.15823 8.95907 8.21064 8.81207 8.30829 8.6889C8.40594 8.56573 8.54405 8.47241 8.70369 8.42172C8.80199 8.39063 8.89186 8.34156 8.96751 8.27768C9.04315 8.2138 9.10288 8.13653 9.14285 8.05086C9.18281 7.96519 9.20212 7.87302 9.19953 7.7803C9.19693 7.68758 9.17249 7.59638 9.12779 7.51258C9.05504 7.37619 9.03151 7.22315 9.06041 7.07441C9.08931 6.92567 9.16924 6.78851 9.28924 6.68172C9.4106 6.57631 9.56524 6.5063 9.73252 6.48102C9.8998 6.45575 10.0718 6.47642 10.2255 6.54027C10.3197 6.57962 10.4221 6.601 10.5262 6.60303C10.6303 6.60506 10.7337 6.58769 10.8297 6.55205C10.9258 6.51641 11.0124 6.46328 11.0839 6.39609C11.1555 6.3289 11.2104 6.24913 11.2452 6.16192C11.3021 6.01978 11.407 5.89677 11.5457 5.80978C11.6844 5.7228 11.8499 5.6761 12.0196 5.6761C12.1893 5.6761 12.3549 5.7228 12.4936 5.80978C12.6322 5.89677 12.7372 6.01978 12.7941 6.16192ZM13.565 15.0885V11.6277C13.4005 11.6092 13.2339 11.6418 13.0934 11.7201C12.9529 11.7983 12.8471 11.9173 12.7941 12.0569C12.737 12.1988 12.632 12.3216 12.4935 12.4084C12.3549 12.4952 12.1895 12.5418 12.02 12.5418C11.8505 12.5418 11.6851 12.4952 11.5465 12.4084C11.408 12.3216 11.303 12.1988 11.246 12.0569C11.1929 11.9173 11.0872 11.7983 10.9466 11.7201C10.8061 11.6418 10.6395 11.6092 10.475 11.6277V15.0878L12.02 13.926L13.565 15.0885ZM12.0664 11.8276C12.1715 11.5648 12.3655 11.3374 12.6218 11.1766C12.8781 11.0158 13.1841 10.9295 13.4978 10.9294C13.7301 10.9316 13.9592 10.9777 14.1699 11.0647L14.2147 11.0022C14.1234 10.8317 14.0733 10.6461 14.0679 10.4574C14.0624 10.2686 14.1015 10.081 14.1828 9.90651C14.264 9.73207 14.3856 9.57474 14.5396 9.44471C14.6936 9.31467 14.8766 9.21483 15.0768 9.15164V9.06787C14.8768 9.0045 14.6939 8.90456 14.5401 8.77449C14.3862 8.64442 14.2647 8.48712 14.1835 8.31274C14.1022 8.13836 14.063 7.95077 14.0684 7.76209C14.0738 7.57341 14.1236 7.38782 14.2147 7.21732L14.1475 7.15964C13.9557 7.24056 13.7469 7.28481 13.5346 7.28953C13.3224 7.29426 13.1114 7.25935 12.9152 7.18706C12.7191 7.11478 12.5422 7.00673 12.396 6.86989C12.2498 6.73305 12.1375 6.57046 12.0664 6.39263H11.9737C11.9025 6.57046 11.7902 6.73305 11.644 6.86989C11.4978 7.00673 11.3209 7.11478 11.1248 7.18706C10.9287 7.25935 10.7177 7.29426 10.5054 7.28953C10.2931 7.28481 10.0844 7.24056 9.89256 7.15964L9.82535 7.21732C9.91641 7.38782 9.96624 7.57341 9.97161 7.76209C9.97698 7.95077 9.93778 8.13836 9.85654 8.31274C9.77531 8.48712 9.65383 8.64442 9.49997 8.77449C9.3461 8.90456 9.16326 9.0045 8.96325 9.06787V9.15164C9.16341 9.21483 9.34641 9.31467 9.50041 9.44471C9.65441 9.57474 9.77598 9.73207 9.85725 9.90651C9.93851 10.081 9.97767 10.2686 9.97217 10.4574C9.96668 10.6461 9.91666 10.8317 9.82535 11.0022L9.87016 11.064C10.0809 10.9773 10.31 10.9314 10.5422 10.9294C10.8559 10.9295 11.162 11.0158 11.4182 11.1766C11.6745 11.3374 11.8686 11.5648 11.9737 11.8276L12.02 11.8564L12.0664 11.8276Z" fill="white"/>
</g>
<defs>
<clipPath id="clip0_1531_3582">
<rect width="18.5399" height="16.4799" fill="white" transform="translate(0.431641 0.182678)"/>
</clipPath>
</defs>
</svg>
