<svg width="31" height="31" viewBox="0 0 31 31" fill="none" xmlns="http://www.w3.org/2000/svg">
<g clip-path="url(#clip0_1531_3601)">
<path d="M23.3161 0.591309H7.42488C3.55291 0.591309 0.414062 3.73016 0.414062 7.60212V23.4933C0.414062 27.3653 3.55291 30.5041 7.42488 30.5041H23.3161C27.188 30.5041 30.3269 27.3653 30.3269 23.4933V7.60212C30.3269 3.73016 27.188 0.591309 23.3161 0.591309Z" fill="#0277BD"/>
<path d="M6.69531 12.5858L7.02982 16.3181H15.3821V12.5858H6.69531Z" fill="#EBEBEB"/>
<path d="M15.3823 5.03162H15.3694H6.02344L6.36271 8.76398H15.3823V5.03162Z" fill="#EBEBEB"/>
<path d="M15.3817 26.162V22.2789L15.3653 22.2832L11.2087 21.1609L10.943 18.1841H8.92311H7.19629L7.71918 24.0444L15.3645 26.1668L15.3817 26.162Z" fill="#EBEBEB"/>
<path d="M19.9651 16.3182L19.5318 21.1587L15.3691 22.2823V26.1653L23.0206 24.0447L23.0767 23.4141L23.9538 13.5882L24.0448 12.5859L24.7186 5.03162H15.3691V8.76398H20.6283L20.2887 12.5859H15.3691V16.3182H19.9651Z" fill="white"/>
</g>
<defs>
<clipPath id="clip0_1531_3601">
<rect width="29.9128" height="29.9128" fill="white" transform="translate(0.414062 0.591309)"/>
</clipPath>
</defs>
</svg>
