<svg width="15" height="18" viewBox="0 0 15 18" fill="none" xmlns="http://www.w3.org/2000/svg">
<g clip-path="url(#clip0_111_9681)">
<g clip-path="url(#clip1_111_9681)">
<path d="M12.1017 6.95312H10.5117V1.95312C10.5117 1.40312 10.0617 0.953125 9.51172 0.953125H5.51172C4.96172 0.953125 4.51172 1.40312 4.51172 1.95312V6.95312H2.92172C2.03172 6.95312 1.58172 8.03312 2.21172 8.66313L6.80172 13.2531C7.19172 13.6431 7.82172 13.6431 8.21172 13.2531L12.8017 8.66313C13.4317 8.03312 12.9917 6.95312 12.1017 6.95312ZM0.511719 16.9531C0.511719 17.5031 0.961719 17.9531 1.51172 17.9531H13.5117C14.0617 17.9531 14.5117 17.5031 14.5117 16.9531C14.5117 16.4031 14.0617 15.9531 13.5117 15.9531H1.51172C0.961719 15.9531 0.511719 16.4031 0.511719 16.9531Z" fill="white"/>
</g>
</g>
<defs>
<clipPath id="clip0_111_9681">
<rect width="14" height="17" fill="white" transform="translate(0.511719 0.953125)"/>
</clipPath>
<clipPath id="clip1_111_9681">
<rect width="14" height="17" fill="white" transform="translate(0.511719 0.953125)"/>
</clipPath>
</defs>
</svg>
