<svg width="21" height="21" viewBox="0 0 21 21" fill="none" xmlns="http://www.w3.org/2000/svg">
<path d="M17.5681 9.4138C17.5005 9.23278 17.3274 9.11241 17.1339 9.11241H11.5436L14.7681 2.84297C14.8695 2.64575 14.8172 2.40454 14.6427 2.26751C14.5584 2.20084 14.457 2.16797 14.3561 2.16797C14.2482 2.16797 14.1404 2.20593 14.0538 2.28047L10.6524 5.21797L3.86858 11.0768C3.72229 11.2032 3.66951 11.4073 3.7371 11.5883C3.80469 11.7694 3.97738 11.8902 4.1709 11.8902H9.76118L6.53664 18.1596C6.43525 18.3569 6.48757 18.5981 6.6621 18.7351C6.74636 18.8018 6.84775 18.8346 6.94868 18.8346C7.05655 18.8346 7.16442 18.7967 7.25099 18.7221L10.6524 15.7846L17.4362 9.92584C17.583 9.79945 17.6353 9.59528 17.5681 9.4138Z" fill="#FFAC33"/>
</svg>
