<svg width="18" height="19" viewBox="0 0 18 19" fill="none" xmlns="http://www.w3.org/2000/svg">
<path d="M15 4.28809H3C2.175 4.28809 1.5 4.93609 1.5 5.72809V14.3681C1.5 15.1601 2.16749 15.8081 2.99249 15.8081H14.9925C15.8175 15.8081 16.4925 15.1601 16.4925 14.3681V5.72809C16.4925 4.93609 15.8175 4.28809 14.9925 4.28809H15ZM14.7 7.34809L9.3975 10.5305C9.1575 10.6745 8.8425 10.6745 8.6025 10.5305L3.29999 7.34809C3.11249 7.23289 3 7.03851 3 6.82971C3 6.34731 3.54749 6.05933 3.97499 6.31133L9 9.32806L14.025 6.31133C14.4525 6.05933 15 6.34731 15 6.82971C15 7.03851 14.8875 7.23289 14.7 7.34809Z" fill="#BBBCBD"/>
</svg>
