<svg width="32" height="33" viewBox="0 0 32 33" fill="none" xmlns="http://www.w3.org/2000/svg">
<path d="M16.0378 3.6123C8.80208 3.6123 2.93652 9.47786 2.93652 16.7136C2.93652 23.9493 8.80208 29.8149 16.0378 29.8149C23.2736 29.8149 29.1391 23.9493 29.1391 16.7136C29.1391 9.47786 23.2736 3.6123 16.0378 3.6123ZM12.8307 22.1438H10.1777V13.6061H12.8307V22.1438ZM11.4878 12.558C10.6499 12.558 10.1081 11.9644 10.1081 11.2302C10.1081 10.4809 10.6663 9.90502 11.522 9.90502C12.3776 9.90502 12.9017 10.4809 12.9181 11.2302C12.9181 11.9644 12.3776 12.558 11.4878 12.558ZM22.5202 22.1438H19.8672V17.4123C19.8672 16.311 19.4824 15.5631 18.523 15.5631C17.7901 15.5631 17.3548 16.0695 17.1623 16.5567C17.0914 16.73 17.0736 16.9756 17.0736 17.2199V22.1424H14.4193V16.3287C14.4193 15.2629 14.3851 14.3717 14.3497 13.6048H16.6547L16.7761 14.7907H16.8294C17.1787 14.2339 18.0344 13.4123 19.466 13.4123C21.2115 13.4123 22.5202 14.5819 22.5202 17.0957V22.1438Z" fill="white"/>
</svg>
