<svg width="31" height="31" viewBox="0 0 31 31" fill="none" xmlns="http://www.w3.org/2000/svg">
<g clip-path="url(#clip0_1531_3613)">
<path d="M23.1403 0.591309H7.2491C3.37713 0.591309 0.238281 3.73016 0.238281 7.60212V23.4933C0.238281 27.3653 3.37713 30.5041 7.2491 30.5041H23.1403C27.0122 30.5041 30.1511 27.3653 30.1511 23.4933V7.60212C30.1511 3.73016 27.0122 0.591309 23.1403 0.591309Z" fill="#242938"/>
<path d="M15.1946 4.0968C8.74207 4.0968 3.50977 9.32813 3.50977 15.7816C3.50977 20.9443 6.85782 25.3241 11.5005 26.8692C12.0845 26.9774 12.2989 26.6158 12.2989 26.3072C12.2989 26.0285 12.288 25.1081 12.283 24.1317C9.03231 24.8385 8.34637 22.753 8.34637 22.753C7.81484 21.4024 7.04899 21.0433 7.04899 21.0433C5.98882 20.3181 7.1289 20.333 7.1289 20.333C8.30225 20.4154 8.92008 21.5371 8.92008 21.5371C9.96225 23.3235 11.6536 22.807 12.3204 22.5085C12.4253 21.7532 12.7281 21.2378 13.0622 20.946C10.4669 20.6505 7.73861 19.6485 7.73861 15.1713C7.73861 13.8956 8.19506 12.8532 8.94253 12.0349C8.82121 11.7406 8.42125 10.5522 9.05573 8.9427C9.05573 8.9427 10.0369 8.62865 12.2699 10.1404C13.202 9.88153 14.2015 9.7517 15.1946 9.74725C16.1875 9.7517 17.188 9.88153 18.1217 10.1404C20.352 8.62865 21.3318 8.9427 21.3318 8.9427C21.9678 10.5522 21.5678 11.7406 21.4464 12.0349C22.1956 12.8532 22.6489 13.8956 22.6489 15.1713C22.6489 19.6593 19.9154 20.6475 17.3135 20.9367C17.7326 21.2994 18.106 22.0104 18.106 23.1005C18.106 24.664 18.0925 25.9223 18.0925 26.3072C18.0925 26.6181 18.3028 26.9824 18.8951 26.8677C23.5353 25.3209 26.8791 20.9425 26.8791 15.7816C26.8791 9.32813 21.6476 4.0968 15.1946 4.0968ZM7.8861 20.742C7.86036 20.8001 7.76903 20.8175 7.68583 20.7776C7.60108 20.7395 7.55347 20.6603 7.58096 20.6021C7.60611 20.5423 7.69763 20.5257 7.78219 20.5658C7.86714 20.6039 7.91551 20.6838 7.8861 20.742ZM8.46086 21.2548C8.40514 21.3066 8.2962 21.2825 8.22228 21.2009C8.14585 21.1194 8.13153 21.0105 8.18804 20.958C8.2455 20.9064 8.35115 20.9306 8.42777 21.012C8.5042 21.0945 8.5191 21.2026 8.46086 21.2548ZM8.85517 21.911C8.78358 21.9608 8.66651 21.9142 8.59415 21.8102C8.52254 21.7063 8.52254 21.5818 8.59569 21.5318C8.66825 21.4819 8.78358 21.5267 8.85691 21.6299C8.92831 21.7355 8.92831 21.8602 8.85517 21.911ZM9.52203 22.671C9.45799 22.7416 9.32157 22.7227 9.22172 22.6263C9.11956 22.5321 9.09111 22.3984 9.15535 22.3277C9.22018 22.2569 9.35737 22.2769 9.45799 22.3725C9.55937 22.4664 9.59033 22.6011 9.52203 22.671ZM10.3839 22.9275C10.3556 23.0191 10.2242 23.0607 10.0919 23.0218C9.95974 22.9817 9.87325 22.8746 9.89995 22.782C9.92743 22.69 10.0594 22.6466 10.1927 22.6882C10.3247 22.728 10.4114 22.8345 10.3839 22.9275ZM11.3647 23.0364C11.368 23.1327 11.2558 23.2126 11.1168 23.2144C10.9771 23.2175 10.8641 23.1395 10.8626 23.0447C10.8626 22.9474 10.9723 22.8683 11.112 22.8659C11.2509 22.8632 11.3647 22.9406 11.3647 23.0364ZM12.3282 22.9995C12.3449 23.0934 12.2484 23.1901 12.1104 23.2158C11.9747 23.2405 11.8492 23.1825 11.8319 23.0892C11.8151 22.9928 11.9134 22.8963 12.0488 22.8713C12.1871 22.8473 12.3107 22.9039 12.3282 22.9995Z" fill="white"/>
</g>
<defs>
<clipPath id="clip0_1531_3613">
<rect width="29.9128" height="29.9128" fill="white" transform="translate(0.238281 0.591309)"/>
</clipPath>
</defs>
</svg>
