<svg width="45" height="45" viewBox="0 0 45 45" fill="none" xmlns="http://www.w3.org/2000/svg">
<circle cx="22.7032" cy="22.5328" r="21.9893" fill="white"/>
<path d="M17.9619 23.8616V20.174H19.8476V20.5798H18.4331V21.7915H19.7567V22.1865H18.4331V23.4561H19.8476V23.8619H17.9619V23.8616ZM21.9642 22.339L22.4572 20.5954L22.9502 22.339H21.9642ZM21.5356 23.8616L21.857 22.7289H23.0626L23.384 23.8616H23.877L22.7627 20.174H22.1734L21.0591 23.8616H21.5359H21.5356ZM25.2271 21.5805C25.5647 21.5805 25.7254 21.7596 25.7254 22.1443V22.3602H24.7291V22.1443C24.7291 21.7596 24.8898 21.5805 25.2274 21.5805H25.2271ZM24.2679 22.1758V22.9662C24.2679 23.5823 24.6055 23.9142 25.2162 23.9142C25.8269 23.9142 26.1486 23.6457 26.1701 23.0767H25.7254C25.7095 23.4191 25.5541 23.5615 25.2165 23.5615C24.8789 23.5615 24.7291 23.3771 24.7291 22.9925V22.7289H26.181V22.1651C26.181 21.5542 25.849 21.2274 25.2274 21.2274C24.6058 21.2274 24.2682 21.5594 24.2682 22.1755L24.2679 22.1758ZM27.9811 21.7122V21.259H27.9328C27.6058 21.259 27.381 21.4014 27.2527 21.6699V21.2801H26.8185V23.8616H27.2795V22.2968C27.2795 21.9544 27.4454 21.7015 27.874 21.7015C27.917 21.7015 27.9596 21.7067 27.9811 21.7122ZM29.2452 23.5563C28.908 23.5563 28.7522 23.3768 28.7522 22.9925V22.1495C28.7522 21.7652 28.9076 21.586 29.2452 21.586C29.5828 21.586 29.7382 21.7652 29.7382 22.1495V22.9925C29.7382 23.3768 29.5828 23.5563 29.2452 23.5563ZM29.2452 23.9142C29.8669 23.9142 30.1992 23.5826 30.1992 22.9662V22.1758C30.1992 21.5597 29.8672 21.2277 29.2452 21.2277C28.6233 21.2277 28.2916 21.5597 28.2916 22.1758V22.9662C28.2916 23.5826 28.6236 23.9142 29.2452 23.9142ZM31.2011 21.8861C31.2011 21.6806 31.3456 21.5753 31.5975 21.5753C31.8974 21.5753 32.0205 21.7174 32.0205 22.0282H32.4602C32.4602 21.4804 32.2027 21.2274 31.5975 21.2274C31.0562 21.2274 30.756 21.4911 30.756 21.9492C30.756 22.3758 31.0345 22.5286 31.3882 22.6973L31.6614 22.829C31.9398 22.9604 32.0367 23.0237 32.0367 23.2347C32.0367 23.4613 31.876 23.5664 31.5972 23.5664C31.2755 23.5664 31.1363 23.4191 31.1363 23.0923H30.6969C30.6969 23.6561 30.9753 23.9142 31.5972 23.9142C32.1597 23.9142 32.4811 23.6405 32.4811 23.1713C32.4811 22.7448 32.2023 22.592 31.8489 22.4232L31.5757 22.2916C31.2973 22.1599 31.2008 22.0968 31.2008 21.8858L31.2011 21.8861ZM34.5176 22.9925C34.5176 23.3612 34.3727 23.5299 34.0513 23.5299C33.6975 23.5299 33.5316 23.2978 33.5316 22.9135V22.2021C33.5316 21.8178 33.6975 21.5857 34.0513 21.5857C34.3727 21.5857 34.5176 21.7544 34.5176 22.1231V22.9925ZM34.9782 22.9818V22.1335C34.9782 21.5435 34.673 21.2274 34.1532 21.2274C33.853 21.2274 33.6334 21.3539 33.5051 21.5961V21.2801H33.0709V24.8097H33.5319V23.5664C33.6605 23.7771 33.8748 23.8879 34.1532 23.8879C34.673 23.8879 34.9782 23.5719 34.9782 22.9818ZM36.3712 23.5351C36.0928 23.5351 35.9533 23.3927 35.9533 23.1083V23.0293C35.9533 22.7292 36.1408 22.6131 36.6497 22.6131H36.891V22.9925C36.891 23.3456 36.7088 23.5354 36.3712 23.5354V23.5351ZM36.2694 23.8882C36.5746 23.8882 36.7998 23.767 36.9228 23.5351V23.8616H37.3513V22.0545C37.3513 21.4908 37.0567 21.2274 36.4407 21.2274C35.8564 21.2274 35.5671 21.4804 35.5568 22.0019H36.0016C36.0072 21.7226 36.157 21.575 36.441 21.575C36.7462 21.575 36.891 21.7278 36.891 22.0545V22.2548H36.6229C35.8514 22.2548 35.4924 22.5074 35.4924 23.0556V23.1346C35.4924 23.593 35.7976 23.8879 36.2694 23.8879V23.8882ZM38.9322 23.9146C39.5591 23.9146 39.8428 23.6249 39.8428 22.9769H39.3981C39.3981 23.3931 39.2589 23.5563 38.9319 23.5563C38.6049 23.5563 38.4442 23.3768 38.4442 22.9925V22.1495C38.4442 21.7652 38.5996 21.586 38.9319 21.586C39.2642 21.586 39.3928 21.7281 39.3981 22.1339H39.8428C39.8375 21.5018 39.5644 21.2277 38.9322 21.2277C38.3 21.2277 37.9839 21.5597 37.9839 22.1758V22.9662C37.9839 23.5826 38.3158 23.9142 38.9322 23.9142V23.9146ZM41.3004 21.5808C41.6376 21.5808 41.7987 21.76 41.7987 22.1446V22.3605H40.8024V22.1446C40.8024 21.76 40.9631 21.5808 41.3007 21.5808H41.3004ZM40.3411 22.1761V22.9665C40.3411 23.5826 40.6787 23.9146 41.2894 23.9146C41.9002 23.9146 42.2219 23.646 42.2434 23.077H41.7987C41.7828 23.4194 41.6274 23.5618 41.2898 23.5618C40.9522 23.5618 40.8024 23.3774 40.8024 22.9928V22.7292H42.2543V22.1654C42.2543 21.5545 41.9223 21.2277 41.3007 21.2277C40.679 21.2277 40.3414 21.5597 40.3414 22.1758L40.3411 22.1761ZM16.1347 23.9146C16.5153 23.9146 16.8581 23.8355 17.1743 23.6723V21.7918H16.0222V22.1868H16.708V23.409C16.5473 23.4776 16.3384 23.5195 16.1403 23.5195C15.5613 23.5195 15.3418 23.2458 15.3418 22.5347V21.2648C15.3418 20.796 15.6099 20.5167 16.0599 20.5167C16.51 20.5167 16.7133 20.7222 16.7242 21.1647H17.2119C17.1957 20.4533 16.8314 20.1216 16.0599 20.1216C15.2885 20.1216 14.8702 20.5326 14.8702 21.2807V22.5133C14.8702 23.488 15.2561 23.9146 16.1347 23.9146ZM8.61191 20.833C8.61191 20.3161 8.96757 19.8136 9.16222 19.9091C9.38334 20.0181 8.99654 20.5053 8.61191 20.833ZM6.18862 21.0219C6.18862 20.6061 6.60626 19.8151 6.86163 19.8984C7.16279 19.997 6.61186 20.7947 6.18862 21.0219ZM5.76569 23.9969C5.57353 24.0055 5.44553 23.8845 5.44553 23.683C5.44553 23.141 6.20948 22.6238 6.78658 22.3461C6.68411 23.1024 6.42438 23.9672 5.76569 23.9969ZM9.29115 22.2322C8.85577 22.2322 8.52191 22.5476 8.52191 22.9254C8.52191 23.2409 8.71406 23.4926 8.97069 23.4926C9.06069 23.4926 9.14976 23.4424 9.14976 23.3287C9.14976 23.1649 8.92895 23.1251 8.94608 22.8798C8.95698 22.7181 9.11177 22.61 9.26531 22.61C9.57301 22.61 9.71689 22.9031 9.71689 23.2056C9.70381 23.672 9.355 23.9966 8.94484 23.9966C8.40636 23.9966 8.06067 23.4923 8.06067 22.9499C8.06067 22.1433 8.59883 21.8282 8.88068 21.7526C8.88348 21.7526 9.61816 21.8815 9.59512 21.5631C9.58515 21.4234 9.37337 21.3698 9.21984 21.3634C9.04948 21.3567 8.8785 21.417 8.8785 21.417C8.78881 21.3726 8.72683 21.2859 8.68884 21.1855C9.21423 20.7944 9.58609 20.4165 9.58609 19.9878C9.58609 19.7609 9.43224 19.5591 9.13731 19.5591C8.61191 19.5591 8.21421 20.2144 8.21421 20.807C8.21421 20.9077 8.21421 21.0088 8.24005 21.097C7.90682 21.3364 7.65891 21.485 7.21013 21.7498C7.21013 21.6944 7.22197 21.5526 7.25965 21.3677C7.4135 21.2038 7.62466 20.9586 7.62466 20.7693C7.62466 20.6811 7.57358 20.6055 7.47081 20.6055C7.21449 20.6055 7.02234 20.9834 6.97095 21.2483C6.85541 21.387 6.62494 21.5637 6.43247 21.5637C6.27862 21.5637 6.22755 21.4246 6.21447 21.3744C6.70187 21.2103 7.30419 20.555 7.30419 19.9624C7.30419 19.8362 7.2528 19.5588 6.86849 19.5588C6.29139 19.5588 5.80431 20.4034 5.80431 21.059C5.59907 21.059 5.52245 20.8446 5.52245 20.6808C5.52245 20.517 5.58661 20.3528 5.58661 20.3026C5.58661 20.2524 5.56076 20.189 5.48384 20.189C5.29137 20.189 5.17614 20.441 5.17614 20.731C5.18922 21.1343 5.4583 21.3867 5.81739 21.4118C5.86877 21.6512 6.08678 21.8782 6.35586 21.8782C6.52279 21.8782 6.72772 21.8279 6.8688 21.7018C6.85572 21.7903 6.84326 21.8656 6.83018 21.9412C6.26617 22.2312 5.856 22.433 5.48415 22.7604C5.18953 23.0253 5.0226 23.378 5.0226 23.6558C5.0226 24.034 5.26614 24.3864 5.766 24.3864C6.35586 24.3864 6.80433 23.9204 7.02234 23.2773C7.12511 22.9747 7.16622 22.5347 7.19176 22.1311C7.78162 21.8034 8.06129 21.6136 8.36837 21.3992C8.40699 21.4623 8.44591 21.5128 8.49668 21.5505C8.2276 21.6892 7.58666 22.08 7.58666 22.9999C7.58666 23.6555 8.03544 24.3864 8.91992 24.3864C9.65055 24.3864 10.1507 23.7945 10.1507 23.2271C10.1507 22.7102 9.85579 22.2312 9.29147 22.2312L9.29115 22.2322ZM11.4952 23.3147C11.493 23.3186 11.4855 23.3245 11.4715 23.3196C11.4606 23.3156 11.4572 23.3101 11.4575 23.3033C11.4581 23.296 11.6126 22.8477 11.6117 22.3329C11.6098 21.778 11.3806 21.4378 11.0863 21.4378C10.9066 21.4378 10.7786 21.564 10.7786 21.7529C10.7786 22.0934 11.2015 22.1185 11.2015 22.8624C11.2015 23.1649 11.1374 23.4543 11.0349 23.77C10.5606 25.3455 9.04761 26.0765 7.57358 26.0765C6.89402 26.0765 6.41098 25.9393 6.2671 25.8759C6.26118 25.8732 6.25651 25.8618 6.26087 25.8508C6.2643 25.8419 6.27426 25.8355 6.27956 25.838C6.33811 25.8606 6.75263 25.9886 7.26526 25.9886C7.82927 25.9886 8.16282 25.762 8.16282 25.484C8.16282 25.3079 8.02174 25.1692 7.84204 25.1692C7.49603 25.1692 7.47018 25.5976 6.72678 25.5976C6.40631 25.5976 6.12446 25.5348 5.79091 25.4337C4.20134 24.9548 3.44361 23.4797 3.44486 22.0175C3.44548 21.3055 3.64823 20.7384 3.65165 20.7329C3.65414 20.7292 3.66318 20.7252 3.67439 20.7292C3.68591 20.7329 3.68902 20.7427 3.68778 20.7454C3.66909 20.8045 3.53455 21.2109 3.53455 21.7149C3.53455 22.2698 3.76533 22.5975 4.05995 22.5975C4.22656 22.5975 4.36765 22.4713 4.36765 22.2952C4.36765 21.9547 3.94471 21.917 3.94471 21.1858C3.94471 20.8704 4.00887 20.5932 4.11133 20.2656C4.59904 18.7026 6.09892 17.9701 7.57358 17.9588C8.25874 17.9536 8.85857 18.1551 8.88099 18.1728C8.88504 18.1762 8.8894 18.1851 8.88504 18.1955C8.88037 18.2071 8.87227 18.2087 8.86822 18.208C8.86106 18.2071 8.47114 18.047 7.88097 18.047C7.33004 18.047 6.98403 18.2736 6.98403 18.5639C6.98403 18.7277 7.11203 18.8661 7.30419 18.8661C7.6505 18.8661 7.67635 18.4503 8.41944 18.4503C8.74022 18.4503 9.02176 18.5134 9.35531 18.6141C10.9583 19.093 11.6877 20.5807 11.7014 22.0175C11.7085 22.7537 11.4974 23.311 11.4955 23.3147H11.4952ZM7.57358 17.6813C5.13783 17.6813 3.16301 19.6228 3.16301 22.0178C3.16301 24.4128 5.13752 26.3539 7.57358 26.3539C10.0096 26.3539 11.9832 24.4131 11.9832 22.0178C11.9832 19.6225 10.009 17.6813 7.57358 17.6813ZM7.57358 26.5683C5.02198 26.5683 2.94531 24.5389 2.94531 22.0178C2.94531 19.4966 5.02198 17.4673 7.57358 17.4673C10.1252 17.4673 12.2015 19.5092 12.2015 22.0178C12.2015 24.5264 10.1242 26.5683 7.57358 26.5683Z" fill="#00003D"/>
</svg>
