<svg width="45" height="45" viewBox="0 0 45 45" fill="none" xmlns="http://www.w3.org/2000/svg">
<circle cx="22.9297" cy="22.5328" r="21.9893" fill="white"/>
<path d="M7.49219 14.1952C14.1226 14.1868 20.7529 14.1938 27.3829 14.1917C31.1389 14.1917 34.8945 14.1913 38.6504 14.1917C38.6504 19.7367 38.6504 25.2817 38.6504 30.8267C28.2644 30.826 17.8788 30.8281 7.49325 30.8256C7.49361 25.282 7.49503 19.7384 7.49219 14.1952ZM8.79345 15.4746C8.79345 20.162 8.79345 24.8494 8.79345 29.5367C18.3103 29.5371 27.8269 29.5371 37.3438 29.5367C37.3441 24.8494 37.3441 20.162 37.3438 15.4749C27.8272 15.4742 18.3103 15.4746 8.79345 15.4746Z" fill="#233776"/>
<path d="M29.3395 17.7036C30.2242 17.5826 31.1462 17.672 31.9737 18.0131C32.767 18.3384 33.4139 18.9241 33.9819 19.5469C33.6435 19.8754 33.2959 20.1943 32.9565 20.5217C32.5587 19.9992 32.0586 19.5364 31.4498 19.2655C30.8142 18.9753 30.0859 18.9251 29.4024 19.0511C28.1811 19.2679 27.1362 20.207 26.7605 21.3681C26.5706 21.9727 26.5429 22.6236 26.6563 23.2451C26.774 23.8637 27.0793 24.4455 27.5257 24.8951C28.0066 25.3839 28.6091 25.7748 29.2851 25.9369C29.888 26.0801 30.5402 26.0485 31.1139 25.8081C31.5855 25.6109 32.0011 25.2902 32.3227 24.8975C32.6128 24.5399 32.7933 24.0996 32.8417 23.6441C32.0558 23.6395 31.2696 23.6458 30.4837 23.6409C30.4851 23.197 30.4837 22.7531 30.4844 22.3092C31.7906 22.3085 33.0965 22.3096 34.4028 22.3089C34.4074 22.9746 34.3779 23.6483 34.2044 24.295C34.0384 24.9449 33.6716 25.5326 33.2071 26.0165C32.7834 26.458 32.2683 26.8184 31.695 27.044C30.9944 27.3237 30.2231 27.3988 29.4746 27.3335C28.7079 27.2672 27.9597 27.0047 27.3256 26.5738C26.3325 25.8976 25.558 24.8775 25.2822 23.709C25.0846 22.8696 25.0991 21.9804 25.3298 21.1491C25.644 20.0256 26.4224 19.0595 27.3981 18.4184C27.9782 18.037 28.6496 17.7959 29.3395 17.7036Z" fill="#233776"/>
<path d="M10.8848 27.178C12.3527 24.063 13.8196 20.9477 15.2908 17.8345C15.4749 17.8359 15.659 17.8355 15.8431 17.8345C17.2621 20.948 18.6767 24.0634 20.0935 27.178C19.5664 27.1749 19.0389 27.1847 18.5118 27.1731C18.1912 26.4172 17.8546 25.6681 17.5279 24.9147C16.1812 24.9147 14.8348 24.915 13.4884 24.9147C13.1379 25.667 12.7853 26.4183 12.4402 27.1727C11.9219 27.1847 11.4034 27.1749 10.8848 27.178ZM15.5392 20.4364C15.0587 21.4867 14.5664 22.5313 14.0876 23.5819C14.9425 23.5802 15.7969 23.5819 16.6518 23.5812C16.7488 23.5795 16.8466 23.5879 16.9429 23.5735C16.4787 22.5447 16.0305 21.5081 15.5691 20.4778C15.5616 20.4677 15.5467 20.447 15.5392 20.4364Z" fill="#233776"/>
<path d="M21.5693 27.1766C21.5715 24.0627 21.5683 20.9484 21.5711 17.8345C22.0478 17.8355 22.5244 17.8341 23.001 17.8352C23.0007 20.9495 23.0007 24.0634 23.001 27.1773C22.5237 27.1773 22.0467 27.1787 21.5693 27.1766Z" fill="#233776"/>
<path d="M39.9487 29.5166C40.1822 29.4503 40.4488 29.519 40.6176 29.6924C40.8668 29.9419 40.8568 30.3998 40.5874 30.6318C40.3734 30.8353 40.0173 30.8577 39.7695 30.7016C39.5726 30.5823 39.4528 30.3521 39.4681 30.1244C39.4642 29.8443 39.6771 29.5864 39.9487 29.5166ZM39.981 29.6198C39.6643 29.7015 39.5047 30.0886 39.6401 30.3749C39.7375 30.6188 40.0329 30.7595 40.2867 30.6784C40.6059 30.5904 40.7626 30.1917 40.6169 29.905C40.5145 29.671 40.2263 29.5422 39.981 29.6198Z" fill="#233776"/>
<path d="M39.8682 29.7652C40.0256 29.7758 40.192 29.7382 40.3434 29.7922C40.524 29.8803 40.4625 30.1947 40.2531 30.2C40.326 30.3088 40.3985 30.4183 40.4689 30.5295C40.4322 30.5284 40.3597 30.5267 40.3235 30.526C40.2602 30.4274 40.1991 30.3277 40.1337 30.2309C40.1081 30.1842 40.0438 30.2105 40.0025 30.2011C40.0015 30.3102 40.0011 30.419 40.0018 30.5284C39.9567 30.5277 39.9122 30.5274 39.8682 30.5277C39.8685 30.2733 39.8682 30.0193 39.8682 29.7652ZM40.0018 29.8705C40.0015 29.9463 40.0015 30.0217 40.0018 30.0979C40.0843 30.0958 40.1692 30.1077 40.2503 30.0856C40.342 30.06 40.3437 29.9066 40.2499 29.8821C40.1692 29.8596 40.0843 29.873 40.0018 29.8705Z" fill="#233776"/>
</svg>
