<svg width="27" height="27" viewBox="0 0 27 27" fill="none" xmlns="http://www.w3.org/2000/svg">
<path d="M12.1143 16.2176L16.3697 13.7191L12.1143 11.2207V16.2176Z" fill="white"/>
<path d="M13.8457 0.713867C6.66523 0.713867 0.845703 6.5334 0.845703 13.7139C0.845703 20.8943 6.66523 26.7139 13.8457 26.7139C21.0262 26.7139 26.8457 20.8943 26.8457 13.7139C26.8457 6.5334 21.0262 0.713867 13.8457 0.713867ZM20.3457 16.0396C20.3457 18.2791 18.1062 18.2791 18.1062 18.2791H9.58516C7.3457 18.2791 7.3457 16.0396 7.3457 16.0396V11.3932C7.3457 9.15371 9.58516 9.15371 9.58516 9.15371H18.1062C20.3457 9.15371 20.3457 11.3932 20.3457 11.3932V16.0396Z" fill="white"/>
</svg>
