<svg width="44" height="45" viewBox="0 0 44 45" fill="none" xmlns="http://www.w3.org/2000/svg">
<circle cx="22.004" cy="22.5118" r="21.9893" fill="white"/>
<path d="M16.4461 21.615L16.5173 21.3633C16.5262 21.3363 16.5395 21.3273 16.5662 21.3273H17.1578C17.1801 21.3273 17.1934 21.3408 17.1934 21.3633V26.2585C17.1934 26.2809 17.1801 26.2944 17.1578 26.2944H16.4817C16.4595 26.2944 16.4461 26.2809 16.4461 26.2585V24.6177C16.4461 24.5953 16.4105 24.5773 16.3883 24.5953C16.3527 24.6312 16.0102 24.9684 15.4274 24.9684C14.4577 24.9684 13.7949 24.2132 13.7949 23.1119C13.7949 22.0106 14.4221 21.2554 15.4274 21.2554C15.7744 21.2554 16.1881 21.4397 16.3705 21.624C16.3972 21.6554 16.4283 21.6554 16.4461 21.615ZM15.5298 24.2761C16.1214 24.2761 16.4417 23.8311 16.4417 23.1119C16.4417 22.4286 16.1214 21.9431 15.5298 21.9431C14.8937 21.9431 14.5467 22.4286 14.5467 23.1119C14.5467 23.7951 14.8937 24.2761 15.5298 24.2761Z" fill="#000006"/>
<path d="M19.2266 24.9722C18.1724 24.9722 17.7275 24.2036 17.7275 23.3V21.3671C17.7275 21.3446 17.7409 21.3312 17.7631 21.3312H18.4482C18.4704 21.3312 18.4837 21.3446 18.4837 21.3671V23.3C18.4837 23.781 18.7151 24.28 19.3334 24.28C19.8983 24.28 20.1785 23.8215 20.1785 23.336V21.3626C20.1785 21.3401 20.1919 21.3267 20.2141 21.3267H20.8903C20.9125 21.3267 20.9259 21.3401 20.9259 21.3626V24.8598C20.9259 24.8823 20.9125 24.8958 20.8903 24.8958H20.2987C20.272 24.8958 20.2586 24.8823 20.2497 24.8598L20.1785 24.5901C20.1652 24.5497 20.1207 24.5632 20.1029 24.5811C19.9606 24.7789 19.6047 24.9722 19.2266 24.9722Z" fill="#000006"/>
<path d="M22.8322 24.9746C21.8892 24.9746 21.4443 24.5026 21.4443 23.8463C21.4443 23.235 21.9514 22.7405 22.9745 22.7405H23.6952C23.842 22.7405 23.9176 22.6281 23.9176 22.5427C23.9176 22.3225 23.8553 21.9584 23.0991 21.9584C22.5342 21.9584 22.3162 22.2101 22.3118 22.5068C22.3118 22.5292 22.2984 22.5427 22.2762 22.5427H21.6C21.5778 22.5427 21.5644 22.5292 21.5644 22.5068C21.5644 21.6752 22.2895 21.2661 23.0991 21.2661C24.0599 21.2661 24.6605 21.7021 24.6605 22.5787V24.0261C24.6605 24.152 24.7583 24.2599 24.9051 24.2599H25.0608C25.083 24.2599 25.0964 24.2734 25.0964 24.2958V24.8757C25.0964 24.8982 25.083 24.9117 25.0608 24.9117H24.7806C24.398 24.9117 24.1889 24.7903 24.0688 24.579C24.0555 24.5566 24.0288 24.5521 24.0066 24.57C23.8331 24.7409 23.4283 24.9746 22.8322 24.9746ZM23.9131 23.4328V23.3833C23.9131 23.3609 23.8998 23.3474 23.8776 23.3474H22.9923C22.3073 23.3474 22.1916 23.6216 22.1916 23.8418C22.1916 24.0396 22.3473 24.2869 22.8322 24.2869C23.6151 24.2869 23.9087 23.8283 23.9131 23.4328Z" fill="#000006"/>
<path d="M27.3067 21.2554C28.3609 21.2554 28.8057 22.024 28.8057 22.9276V24.8605C28.8057 24.883 28.7924 24.8964 28.7702 24.8964H28.0851C28.0629 24.8964 28.0495 24.883 28.0495 24.8605V22.9276C28.0495 22.4466 27.8182 21.9476 27.1999 21.9476C26.635 21.9476 26.3547 22.4061 26.3547 22.8916V24.8605C26.3547 24.883 26.3414 24.8964 26.3191 24.8964H25.643C25.6208 24.8964 25.6074 24.883 25.6074 24.8605V21.3633C25.6074 21.3408 25.6208 21.3273 25.643 21.3273H26.2346C26.2613 21.3273 26.2747 21.3408 26.2836 21.3633L26.3547 21.633C26.3681 21.6734 26.4126 21.6599 26.4304 21.642C26.5727 21.4532 26.9286 21.2554 27.3067 21.2554Z" fill="#000006"/>
<path d="M29.0766 21.9594C29.0544 21.9594 29.041 21.9459 29.041 21.9234V21.3615C29.041 21.3391 29.0544 21.3256 29.0766 21.3256H29.6727C29.6949 21.3256 29.7083 21.3121 29.7083 21.2896V20.3411C29.7083 20.3187 29.7216 20.3052 29.7438 20.3052H30.4289C30.4511 20.3052 30.4645 20.3187 30.4645 20.3411V21.2941C30.4645 21.3166 30.4778 21.3301 30.5001 21.3301H31.234C31.2563 21.3301 31.2696 21.3436 31.2696 21.366V21.9279C31.2696 21.9504 31.2563 21.9639 31.234 21.9639H30.5001C30.4778 21.9639 30.4645 21.9774 30.4645 21.9998V23.9238C30.4645 24.0991 30.5712 24.2115 30.7803 24.2115H31.234C31.2563 24.2115 31.2696 24.2249 31.2696 24.2474V24.8588C31.2696 24.8812 31.2563 24.8947 31.234 24.8947H30.6913C29.9885 24.8947 29.7127 24.607 29.7127 23.9013V21.9954C29.7127 21.9729 29.6994 21.9594 29.6771 21.9594H29.0766Z" fill="#000006"/>
<path d="M34.6631 24.9722C33.6089 24.9722 33.1641 24.2036 33.1641 23.3V21.3671C33.1641 21.3446 33.1774 21.3312 33.1996 21.3312H33.8847C33.9069 21.3312 33.9203 21.3446 33.9203 21.3671V23.3C33.9203 23.781 34.1516 24.28 34.7699 24.28C35.3348 24.28 35.6151 23.8215 35.6151 23.336V21.3626C35.6151 21.3401 35.6284 21.3267 35.6507 21.3267H36.3268C36.349 21.3267 36.3624 21.3401 36.3624 21.3626V24.8598C36.3624 24.8823 36.349 24.8958 36.3268 24.8958H35.7352C35.7085 24.8958 35.6951 24.8823 35.6862 24.8598L35.6151 24.5901C35.6017 24.5497 35.5572 24.5632 35.5394 24.5811C35.3971 24.7789 35.0412 24.9722 34.6631 24.9722Z" fill="#000006"/>
<path d="M41.3891 24.8964C41.3668 24.8964 41.3535 24.883 41.3535 24.8605V22.9141C41.3535 22.4331 41.2289 21.9476 40.6417 21.9476C40.0768 21.9476 39.9434 22.3926 39.9434 22.9141V24.8605C39.9434 24.883 39.9211 24.8964 39.9078 24.8964H39.2227C39.1961 24.8964 39.1872 24.8875 39.1872 24.8605V22.9141C39.1872 22.4286 39.0537 21.9476 38.4843 21.9476C37.955 21.9476 37.7815 22.3926 37.7815 22.9141V24.8605C37.7815 24.883 37.7681 24.8964 37.7459 24.8964H37.0698C37.0475 24.8964 37.0342 24.883 37.0342 24.8605V21.3633C37.0342 21.3408 37.0475 21.3273 37.0698 21.3273H37.6614C37.6881 21.3273 37.7014 21.3408 37.7103 21.3677L37.7815 21.6285C37.7948 21.6644 37.8304 21.6644 37.8571 21.6375C38.0128 21.4532 38.3598 21.2554 38.6934 21.2554C39.1382 21.2554 39.3962 21.3947 39.6498 21.6779C39.6631 21.6914 39.6898 21.7049 39.7209 21.6779C39.9567 21.4262 40.3215 21.2554 40.7129 21.2554C41.607 21.2554 42.1008 21.8128 42.1008 22.8916V24.8605C42.1008 24.883 42.0874 24.8964 42.0652 24.8964H41.3891Z" fill="#000006"/>
<path d="M31.892 24.8973C31.8698 24.8973 31.8564 24.8838 31.8564 24.8613V21.3641C31.8564 21.3416 31.8698 21.3281 31.892 21.3281H32.5682C32.5904 21.3281 32.6038 21.3416 32.6038 21.3641V24.8613C32.6038 24.8838 32.5904 24.8973 32.5682 24.8973H31.892Z" fill="#000006"/>
<path d="M32.2379 20.8716C32.4885 20.8716 32.6916 20.6663 32.6916 20.4131C32.6916 20.1599 32.4885 19.9546 32.2379 19.9546C31.9873 19.9546 31.7842 20.1599 31.7842 20.4131C31.7842 20.6663 31.9873 20.8716 32.2379 20.8716Z" fill="#000006"/>
<path d="M6.78904 17.9932C3.97772 17.9932 1.7002 20.2947 1.7002 23.1356C1.7002 25.9765 3.97772 28.2781 6.78904 28.2781C9.60036 28.2781 11.8779 25.9765 11.8779 23.1356C11.8779 20.2947 9.60036 17.9932 6.78904 17.9932ZM5.44121 24.5066C4.6939 23.7514 4.6939 22.5333 5.44121 21.7781C6.18852 21.0229 7.39401 21.0229 8.14132 21.7781C8.88864 22.5333 8.88864 23.7514 8.14132 24.5066C7.39401 25.2528 6.18407 25.2528 5.44121 24.5066ZM9.26674 26.6014C8.73739 26.6014 8.31036 26.1698 8.31036 25.6349C8.31036 25.1 8.73739 24.6685 9.26674 24.6685C9.79609 24.6685 10.2231 25.1 10.2231 25.6349C10.2187 26.1698 9.79164 26.6014 9.26674 26.6014Z" fill="#000006"/>
<path d="M11.2894 27.0464C10.938 27.0464 10.6533 27.3341 10.6533 27.6892C10.6533 28.0443 10.938 28.332 11.2894 28.332C11.6408 28.332 11.9255 28.0443 11.9255 27.6892C11.9255 27.3296 11.6408 27.0464 11.2894 27.0464Z" fill="#000006"/>
</svg>
