<svg width="45" height="45" viewBox="0 0 45 45" fill="none" xmlns="http://www.w3.org/2000/svg">
<circle cx="22.5372" cy="22.5328" r="21.9893" fill="white"/>
<path d="M3.10664 18.6214L3.20626 18.9606V25.8217L3.08008 26.0571H5.54403C7.26415 26.0571 8.71197 24.6032 8.71197 22.1315C8.71197 20.3384 7.86187 18.7252 6.0687 18.6006L3.10664 18.6214ZM4.48141 19.3483H5.27838C6.47382 19.3483 7.32392 20.0753 7.32392 22.1315C7.32392 24.6516 6.32771 25.1709 5.17875 25.1709H4.48141V19.3483ZM16.6683 19.293H18.1892L18.415 19.473L18.6674 18.6422H13.6067L13.434 19.5284L13.8325 19.3483H15.2803V25.8701L15.1807 26.1332H16.8277L16.7281 25.8701V19.2999H16.6683V19.293ZM28.1314 24.8524C27.7595 25.3232 27.2813 25.5517 26.7632 25.5517C25.4682 25.5517 24.7708 24.3539 24.7708 22.4846C24.7708 20.8715 25.3221 19.1822 26.6902 19.1822C27.2414 19.1822 27.7595 19.5214 28.0583 20.1445H28.1579V19.0299C27.6864 18.6906 27.2082 18.5591 26.6371 18.5591C24.8439 18.5591 23.323 19.833 23.323 22.6646C23.323 24.9009 24.6911 26.1955 26.4378 26.1955C26.9891 26.1955 27.5868 26.1955 28.0849 25.8563V24.7901V24.8455H28.1314V24.8524ZM34.8325 22.3323C34.8325 20.643 34.1352 18.566 31.7443 18.566C29.6788 18.566 28.4767 20.1999 28.4767 22.36C28.4767 24.804 29.7253 26.2025 31.565 26.2025C33.5839 26.2094 34.8325 24.4647 34.8325 22.3323ZM31.6911 19.2168C32.9397 19.2168 33.4113 20.7261 33.4113 22.1246C33.4113 23.9178 32.86 25.5794 31.565 25.5794C30.3164 25.5794 29.8448 24.1255 29.8448 22.7477C29.8714 20.2345 30.5688 19.2168 31.6911 19.2168ZM39.0166 23.9455L36.9246 18.6214H35.7756L35.8752 18.8568L35.4037 25.7178L35.3041 26.0571H36.1741L36.4995 21.4046L38.4919 26.0571H38.9635L40.9094 21.46L41.2813 26.0571H42.935L42.8354 25.7455L42.2111 18.8083L42.2377 18.6283H41.0887L39.0166 23.9455ZM12.3514 23.8693L13.0488 26.1055H14.6693L14.4966 25.9255L12.0327 18.6491H10.638L10.7907 19.0645L8.49944 25.8425L8.39982 26.0225H9.39603L10.0934 23.7862H12.3847V23.8624H12.3514V23.8693ZM10.359 22.9831L11.2091 20.3868L12.0791 22.9831H10.359ZM21.2974 23.8693L21.9947 26.1055H23.6152L23.4426 25.8701L20.952 18.6214H19.5573L19.7101 19.0368L17.4188 25.8148L17.3192 25.9948H18.3154L19.0128 23.7585H21.304C21.2974 23.7931 21.2974 23.8693 21.2974 23.8693ZM19.2585 22.9831L20.1086 20.3868L20.9786 22.9831H19.2585Z" fill="#002470"/>
</svg>
