<svg width="45" height="45" viewBox="0 0 45 45" fill="none" xmlns="http://www.w3.org/2000/svg">
<circle cx="22.2706" cy="22.5118" r="21.9893" fill="white"/>
<path d="M4.39941 34.5709H23.6949L42.6165 15.8091H4.39941V34.5709Z" fill="#014185"/>
<path fill-rule="evenodd" clip-rule="evenodd" d="M27.0613 19.3346L23.3219 19.3338V28.2084L20.0312 19.3338H16.8152L13.9733 26.7558C13.6741 24.8862 11.7296 24.24 10.159 23.7563C9.18679 23.4313 8.06496 22.9535 8.13974 22.4313C8.13974 21.998 8.66327 21.6003 9.7851 21.6597C10.533 21.6975 11.2061 21.7591 12.5523 22.3956L13.8985 20.1351C12.6271 19.5238 10.9817 19.1372 9.63552 19.1357C7.99017 19.1357 6.64397 19.6491 5.82129 20.5001C5.29777 21.0921 4.92383 21.8437 4.92383 22.6768C4.92383 23.8231 5.37256 24.6362 6.19524 25.2839C7.01791 25.8291 7.91538 26.1845 8.81284 26.4449C9.85989 26.7662 10.6826 27.0444 10.6826 27.6409C10.6826 27.8612 10.6078 28.0615 10.4582 28.2225C10.159 28.4889 9.7851 28.5897 9.18679 28.6024C8.13974 28.6216 7.39186 28.4562 6.12045 27.7195L4.92383 30.0083C6.19524 30.7175 7.69101 31.1345 9.18679 31.1345L9.41115 31.133C10.6826 31.1092 11.8044 30.7346 12.6271 30.0535C12.7019 30.0134 12.7019 29.9764 12.7766 29.9393L12.4027 30.9356H15.843L16.3665 29.2085C16.9648 29.4073 17.6379 29.5231 18.3858 29.5231C19.1337 29.5231 19.732 29.411 20.3303 29.2226L20.9286 30.9356H26.463V27.353H27.7344C30.6512 27.353 32.3713 25.8685 32.3713 23.3787C32.3713 20.6069 30.726 19.3346 27.0613 19.3346ZM18.3858 26.9323C17.9371 26.9323 17.5631 26.8552 17.1892 26.7202L18.3858 22.9869L19.5824 26.732C19.2085 26.8596 18.8345 26.9323 18.3858 26.9323ZM27.2857 24.7853H26.463V21.7754H27.2857C28.4075 21.7754 29.305 22.1397 29.305 23.2651C29.305 24.4225 28.4075 24.7853 27.2857 24.7853Z" fill="white"/>
<path d="M28.4076 33.3707C28.4076 32.7972 28.8563 32.3602 29.3798 32.3602C29.9033 32.3602 30.3521 32.7972 30.3521 33.3707C30.3521 33.9657 29.9033 34.3945 29.3798 34.3945C28.8563 34.3945 28.4076 33.9657 28.4076 33.3707ZM29.3798 34.5978C30.0529 34.5978 30.6512 34.0777 30.6512 33.3707C30.6512 32.674 30.0529 32.1621 29.3798 32.1621C28.7067 32.1621 28.1084 32.674 28.1084 33.3707C28.1084 34.0777 28.7067 34.5978 29.3798 34.5978ZM29.1554 33.4723H29.3798L29.7538 34.0777H29.9781L29.6042 33.4604C29.7538 33.4352 29.9781 33.3261 29.9781 33.0769C29.9781 32.7972 29.7537 32.674 29.4546 32.674H28.9311V34.0777H29.1554V33.4723ZM29.1554 33.2913V32.8528H29.4546C29.5294 32.8528 29.7538 32.8869 29.7538 33.0643C29.7538 33.2772 29.5294 33.2913 29.3798 33.2913H29.1554Z" fill="#014185"/>
</svg>
