<svg width="45" height="45" viewBox="0 0 45 45" fill="none" xmlns="http://www.w3.org/2000/svg">
<circle cx="22.9034" cy="22.5328" r="21.9893" fill="white"/>
<path d="M21.9434 27.2683L31.7559 17.7261L29.2951 15.3535L26.2373 18.335L21.9434 27.2683Z" fill="#000002"/>
<path d="M21.9443 8.18555L12.1592 17.7262L21.9443 27.2684L26.2382 18.3351L29.296 15.3552L21.9443 8.18555Z" fill="#FFCC00"/>
<path d="M7.35435 31.559C7.17153 31.914 6.78971 32.1806 6.21697 32.1806C5.3255 32.1806 4.78027 31.6032 4.78027 30.7908C4.78027 30.032 5.2349 29.3853 6.15549 29.3853C7.05828 29.3853 7.46437 29.9137 7.48217 30.439H6.55834C6.4823 30.1614 6.30433 30.1062 6.17814 30.1062C6.01473 30.1062 5.73807 30.2166 5.73807 30.775C5.73807 31.3334 6.01473 31.4439 6.17814 31.4439C6.27683 31.4439 6.41273 31.4045 6.50819 31.2483C6.53893 31.201 6.57291 31.1268 6.58099 31.0637H7.48217C7.48217 31.2341 7.42554 31.4265 7.35435 31.559Z" fill="#000002"/>
<path d="M8.66192 32.1816C7.98725 32.1816 7.54395 31.7856 7.54395 31.1389C7.54395 30.4842 8.01475 30.1104 8.66192 30.1104C9.31555 30.1104 9.80092 30.4953 9.80092 31.1531C9.80092 31.8156 9.3107 32.1816 8.66192 32.1816ZM8.67484 30.6798C8.43863 30.6798 8.41598 30.9985 8.41598 31.1641C8.41598 31.3313 8.44187 31.6452 8.67484 31.6452C8.90621 31.6452 8.93209 31.3266 8.93209 31.1641C8.93209 30.9985 8.90621 30.6798 8.67484 30.6798Z" fill="#000002"/>
<path d="M14.8779 32.0953V31.0494C14.8779 30.868 14.818 30.7939 14.6854 30.7939C14.5527 30.7939 14.4653 30.9122 14.4653 31.0636V32.0953H13.6192V31.0525C13.6192 30.8711 13.5593 30.8017 13.4266 30.8017C13.2891 30.8017 13.2017 30.9153 13.2017 31.0668V32.0953H12.3718V31.0525C12.3718 30.8711 12.3119 30.8017 12.1792 30.8017C12.0417 30.8017 11.9543 30.9153 11.9543 31.0668V32.0953H11.1244V31.0525C11.1244 30.8711 11.0645 30.8017 10.9302 30.8017C10.7943 30.8017 10.7069 30.9153 10.7069 31.0668V32.0953H9.87695V30.2212H10.6309L10.6503 30.3869C10.7749 30.2354 10.9885 30.125 11.2538 30.125C11.5191 30.125 11.7877 30.2496 11.8783 30.4137C11.9818 30.2575 12.2391 30.1281 12.5125 30.1281C12.8264 30.1281 13.0351 30.2827 13.1338 30.4247C13.2244 30.2827 13.4752 30.1281 13.7405 30.1281C14.0738 30.1281 14.2534 30.2607 14.378 30.4247C14.5705 30.1723 14.8261 30.1281 14.9814 30.1281C15.572 30.1281 15.7127 30.502 15.7127 30.92V32.0953H14.8779Z" fill="#000002"/>
<path d="M16.9126 32.1816C16.2379 32.1816 15.793 31.7856 15.793 31.1389C15.793 30.4842 16.2638 30.1104 16.9126 30.1104C17.5646 30.1104 18.0499 30.4953 18.0499 31.1531C18.0499 31.8156 17.5613 32.1816 16.9126 32.1816ZM16.9239 30.6798C16.6877 30.6798 16.6651 30.9985 16.6651 31.1641C16.6651 31.3313 16.6926 31.6452 16.9239 31.6452C17.1553 31.6452 17.1812 31.3266 17.1812 31.1641C17.1812 30.9985 17.1553 30.6798 16.9239 30.6798Z" fill="#000002"/>
<path d="M19.3928 32.0921V31.0525C19.3928 30.8711 19.3135 30.8002 19.1808 30.8002C19.0433 30.8002 18.956 30.9153 18.956 31.0668V32.0921H18.126V30.2212H18.8929L18.8993 30.4089C19.0595 30.2212 19.2747 30.125 19.5028 30.125C19.7795 30.125 20.2341 30.2796 20.2341 30.7607V32.0921H19.3928Z" fill="#000002"/>
<path d="M22.9962 32.0929L22.1274 32.0883C22.1274 32.0883 22.0142 31.7602 21.9689 31.552C21.8928 31.3012 21.8847 31.1939 21.8847 31.1939C21.8847 31.1939 21.8814 31.3012 21.8087 31.552C21.7682 31.7445 21.6501 32.0931 21.6501 32.0931H20.7749L20.1973 30.2222H21.1001C21.1001 30.2222 21.2036 30.544 21.2408 30.7254C21.2974 30.932 21.3088 31.0535 21.3088 31.0535C21.3088 31.0535 21.32 30.9352 21.3816 30.7254C21.4236 30.5314 21.5256 30.2222 21.5256 30.2222H22.2844C22.2844 30.2222 22.3863 30.5314 22.4284 30.7254C22.4931 30.9462 22.4995 31.0535 22.4995 31.0535C22.4995 31.0535 22.5077 30.9495 22.5724 30.7254C22.6095 30.5471 22.7115 30.2222 22.7115 30.2222H23.5722L22.9962 32.0929Z" fill="#000002"/>
<path d="M24.2996 31.2872C24.3044 31.4749 24.387 31.6374 24.6119 31.6374C24.717 31.6374 24.8497 31.5853 24.8885 31.4717H25.6845C25.6699 31.5522 25.623 31.6484 25.5826 31.7115C25.369 32.0223 24.9646 32.1769 24.5779 32.1769C23.8676 32.1769 23.4437 31.7667 23.4243 31.1799C23.4097 30.6577 23.7204 30.1104 24.5164 30.1104C25.2525 30.1104 25.6991 30.5505 25.6991 31.2872H24.2996ZM24.6005 30.5883C24.4371 30.5883 24.3271 30.7129 24.3125 30.8723H24.8772C24.861 30.7208 24.751 30.5883 24.6005 30.5883Z" fill="#000002"/>
<path d="M27.1506 32.0935L27.128 31.9263C26.9872 32.0667 26.696 32.1772 26.4759 32.1772C26.3352 32.1772 26.0165 32.1518 25.8498 31.9342C25.7171 31.756 25.7026 31.4673 25.8191 31.2827C25.9792 31.0351 26.3465 30.9435 26.7105 30.8978C26.8432 30.8836 27.0293 30.8426 27.0293 30.729C27.0293 30.639 26.9807 30.5618 26.8594 30.5618C26.738 30.5618 26.6313 30.6612 26.6313 30.7874H25.8417L25.8465 30.7653C25.9291 30.3188 26.264 30.0933 26.8318 30.0933C27.7913 30.0933 27.9045 30.4182 27.9094 30.9798L27.9158 31.5051C27.9207 31.8632 27.9385 31.9452 27.9773 32.0935L27.1506 32.0935ZM27.0438 31.2654C27.0438 31.2654 26.9338 31.2984 26.8319 31.3268C26.7672 31.3457 26.6054 31.3757 26.6054 31.5019C26.6054 31.565 26.6572 31.6423 26.772 31.6376C26.9872 31.6307 27.0438 31.5082 27.0438 31.3237V31.2654Z" fill="#000002"/>
<path d="M28.0947 29.4521H28.9247V32.0929H28.0947V29.4521Z" fill="#000002"/>
<path d="M29.9504 32.1544C29.4003 32.1544 29.253 31.8957 29.253 31.3972V30.7394H28.999V30.222H29.253V29.4521H30.083V30.222H30.4098V30.7394H30.083V31.2489C30.083 31.4303 30.1445 31.5455 30.3306 31.5455C30.3597 31.5455 30.3985 31.5409 30.4357 31.534C30.4551 31.5294 30.4551 31.526 30.4551 31.526V32.0545C30.2998 32.1238 30.1218 32.1538 29.9503 32.1538" fill="#000002"/>
<path d="M32.6754 32.0929H31.8438V31.0564C31.8438 30.875 31.7613 30.8009 31.627 30.8009C31.4943 30.8009 31.4069 30.9208 31.4069 31.0722V32.0929H30.543V29.4521H31.3471V30.4097C31.4733 30.2582 31.7111 30.1257 31.9473 30.1257C32.2272 30.1257 32.6754 30.2803 32.6754 30.7615V32.0929Z" fill="#000002"/>
<path d="M34.5461 30.6952C34.7856 30.6258 34.9458 30.4128 34.9458 30.1336C34.9458 29.7077 34.6319 29.4521 34.1093 29.4521H33.0674V32.096H34.1384C34.7193 32.096 35.0655 31.8152 35.0655 31.342C35.0655 30.9255 34.7451 30.7378 34.5461 30.6952ZM33.3052 30.8277H34.1384C34.3957 30.8277 34.8277 30.894 34.8277 31.3388C34.8277 31.8152 34.3957 31.8862 34.1384 31.8862H33.3052V30.8277ZM34.1384 30.6148H33.3052V29.662H34.1093C34.3326 29.662 34.7079 29.7234 34.7079 30.1399C34.7079 30.446 34.5057 30.6148 34.1384 30.6148Z" fill="#000002"/>
<path d="M36.8809 31.8989L36.855 31.9023L36.7693 31.908C36.724 31.908 36.6609 31.8906 36.6609 31.7361V30.7075C36.6609 30.3495 36.4263 30.1602 35.9813 30.1602C35.5478 30.1602 35.2857 30.3684 35.2468 30.7501L35.2435 30.7723H35.47L35.4717 30.7548C35.4831 30.6618 35.5137 30.5813 35.5606 30.5198C35.6448 30.4109 35.7871 30.3542 35.97 30.3542C36.4052 30.3542 36.4392 30.6192 36.4392 30.7012V30.7564C36.4392 30.8747 36.3615 30.9078 36.245 30.9204C35.9667 30.9583 35.6205 31.0182 35.4183 31.135C35.3325 31.1808 35.2597 31.2501 35.2225 31.318C35.14 31.4615 35.1351 31.6855 35.2112 31.8496C35.2986 32.0389 35.5057 32.143 35.7904 32.143C36.0865 32.143 36.3098 32.0184 36.4457 31.7928V31.8196C36.4505 32.0105 36.5444 32.1035 36.732 32.1035L36.8841 32.0767L36.8808 32.061L36.8809 31.8989ZM36.4392 31.0896V31.3641C36.4392 31.5155 36.3211 31.9446 35.8018 31.9446C35.5526 31.9446 35.3795 31.7979 35.3795 31.5865C35.3795 31.3073 35.5979 31.2489 35.8309 31.1874C36.0089 31.1416 36.2645 31.1038 36.4392 31.0896Z" fill="#000002"/>
<path d="M37.8124 30.1602C37.5487 30.1602 37.3206 30.3006 37.2106 30.5088V30.2122H36.9873V32.0973H37.2106V31.0451C37.2106 30.6318 37.4484 30.3558 37.806 30.3558C38.1198 30.3558 38.2735 30.5388 38.2735 30.9142V32.0973H38.4952V30.9142C38.4952 30.7281 38.4952 30.1602 37.8124 30.1602Z" fill="#000002"/>
<path d="M39.4494 30.9192C39.4736 30.8955 40.2098 30.2109 40.2098 30.2109H39.9089C39.9089 30.2109 39.0044 31.0533 38.9381 31.1148V29.4521H38.7148V32.096H38.9381V31.3846C38.951 31.3731 39.2504 31.107 39.2827 31.0785C39.3086 31.1164 39.9962 32.096 39.9962 32.096H40.268C40.268 32.096 39.4688 30.9476 39.4494 30.9192Z" fill="#000002"/>
</svg>
