<svg width="45" height="45" viewBox="0 0 45 45" fill="none" xmlns="http://www.w3.org/2000/svg">
<circle cx="22.1045" cy="22.5118" r="21.9893" fill="white"/>
<path d="M15.443 11.4414C12.4778 11.451 9.63764 12.6369 7.54603 14.7387C5.45441 16.8405 4.28233 19.6864 4.28712 22.6516C4.29192 25.6168 5.47321 28.459 7.57162 30.554C9.67003 32.649 12.514 33.8257 15.4792 33.8257C18.4444 33.8257 21.2885 32.649 23.3869 30.554C25.4853 28.459 26.6666 25.6168 26.6714 22.6516C26.6762 19.6864 25.5041 16.8405 23.4125 14.7387C21.3209 12.6369 18.4807 11.451 15.5155 11.4414L15.443 11.4414Z" fill="#EB001B"/>
<path d="M29.6383 11.4414C26.6732 11.451 23.833 12.6369 21.7413 14.7387C19.6497 16.8405 18.4776 19.6864 18.4824 22.6516C18.4872 25.6168 19.6685 28.459 21.7669 30.554C23.8653 32.649 26.7094 33.8257 29.6746 33.8257C32.6398 33.8257 35.4838 32.649 37.5822 30.554C39.6806 28.459 40.8619 25.6168 40.8667 22.6516C40.8715 19.6864 39.6994 16.8405 37.6078 14.7387C35.5162 12.6369 32.676 11.451 29.7108 11.4414L29.6383 11.4414Z" fill="#F79E1B"/>
<path d="M22.5771 13.6255C21.3012 14.6973 20.2697 16.0651 19.5603 17.6256C18.851 19.1862 18.4824 20.8986 18.4824 22.6338C18.4824 24.3689 18.851 26.0814 19.5603 27.642C20.2697 29.2025 21.3012 30.5703 22.5771 31.6421C23.853 30.5703 24.8846 29.2025 25.5939 27.642C26.3032 26.0814 26.6718 24.3689 26.6718 22.6338C26.6718 20.8986 26.3032 19.1862 25.5939 17.6256C24.8846 16.0651 23.853 14.6973 22.5771 13.6255Z" fill="#FF5F00"/>
</svg>
