<svg width="54" height="54" viewBox="0 0 54 54" fill="none" xmlns="http://www.w3.org/2000/svg">
<g clip-path="url(#clip0_111_9640)">
<g clip-path="url(#clip1_111_9640)">
<g clip-path="url(#clip2_111_9640)">
<path opacity="0.1" d="M27.0308 53.3092C41.6564 53.3092 53.5128 41.4528 53.5128 26.8272C53.5128 12.2016 41.6564 0.345215 27.0308 0.345215C12.4052 0.345215 0.548828 12.2016 0.548828 26.8272C0.548828 41.4528 12.4052 53.3092 27.0308 53.3092Z" fill="#3F6864"/>
<path d="M37.9757 20.8907C37.8638 20.6211 37.6495 20.4068 37.3799 20.2948C37.2472 20.2382 37.1048 20.2083 36.9606 20.2065H31.4435C31.1509 20.2065 30.8702 20.3228 30.6632 20.5297C30.4563 20.7366 30.3401 21.0173 30.3401 21.31C30.3401 21.6026 30.4563 21.8833 30.6632 22.0902C30.8702 22.2971 31.1509 22.4134 31.4435 22.4134H34.3013L28.1332 28.5815L24.503 24.9402C24.4005 24.8368 24.2784 24.7547 24.144 24.6987C24.0095 24.6426 23.8652 24.6138 23.7196 24.6138C23.5739 24.6138 23.4297 24.6426 23.2952 24.6987C23.1608 24.7547 23.0388 24.8368 22.9362 24.9402L16.3156 31.5607C16.2122 31.6632 16.1301 31.7853 16.0741 31.9198C16.0181 32.0542 15.9893 32.1985 15.9893 32.3441C15.9893 32.4898 16.0181 32.634 16.0741 32.7685C16.1301 32.903 16.2122 33.025 16.3156 33.1276C16.4183 33.231 16.5403 33.3131 16.6747 33.3691C16.8092 33.4251 16.9534 33.4539 17.0991 33.4539C17.2447 33.4539 17.389 33.4251 17.5234 33.3691C17.6579 33.3131 17.78 33.231 17.8825 33.1276L23.7196 27.2794L27.3498 30.9207C27.4524 31.0241 27.5745 31.1062 27.7089 31.1622C27.8433 31.2183 27.9876 31.2471 28.1332 31.2471C28.2789 31.2471 28.4231 31.2183 28.5576 31.1622C28.6921 31.1062 28.8141 31.0241 28.9167 30.9207L35.8572 23.9692V26.827C35.8572 27.1197 35.9734 27.4004 36.1803 27.6073C36.3873 27.8142 36.668 27.9305 36.9606 27.9305C37.2532 27.9305 37.5339 27.8142 37.7408 27.6073C37.9478 27.4004 38.064 27.1197 38.064 26.827V21.31C38.0622 21.1658 38.0323 21.0233 37.9757 20.8907Z" fill="#3F6864"/>
</g>
</g>
</g>
<defs>
<clipPath id="clip0_111_9640">
<rect width="52.964" height="52.964" fill="white" transform="translate(0.548828 0.345215)"/>
</clipPath>
<clipPath id="clip1_111_9640">
<rect width="52.964" height="52.964" fill="white" transform="translate(0.548828 0.345215)"/>
</clipPath>
<clipPath id="clip2_111_9640">
<rect width="52.964" height="52.964" fill="white" transform="translate(0.548828 0.345215)"/>
</clipPath>
</defs>
</svg>
