<svg width="31" height="31" viewBox="0 0 31 31" fill="none" xmlns="http://www.w3.org/2000/svg">
<g clip-path="url(#clip0_1531_3595)">
<path d="M23.402 0.591309H7.51082C3.63885 0.591309 0.5 3.73016 0.5 7.60212V23.4933C0.5 27.3653 3.63885 30.5041 7.51082 30.5041H23.402C27.274 30.5041 30.4128 27.3653 30.4128 23.4933V7.60212C30.4128 3.73016 27.274 0.591309 23.402 0.591309Z" fill="#E14E1D"/>
<path d="M6.1084 5.03162L7.11443 16.3182H20.0506L19.6165 21.1592L15.4514 22.2853L11.2941 21.1608L11.0161 18.0525H7.26973L7.80544 24.0445L15.4504 26.1678L23.1051 24.0445L24.1313 12.5864H10.528L10.1865 8.76427H24.4582H24.4696L24.8039 5.03162H6.1084Z" fill="white"/>
<path d="M15.4562 5.03162H6.1084L7.11443 16.3182H15.4562V12.5864H10.528L10.1865 8.76427H15.4562V5.03162Z" fill="#EBEBEB"/>
<path d="M15.456 22.2833L15.4512 22.2849L11.2939 21.1604L11.0159 18.052H7.26953L7.80525 24.044L15.4502 26.1674L15.456 26.1657V22.2833Z" fill="#EBEBEB"/>
</g>
<defs>
<clipPath id="clip0_1531_3595">
<rect width="29.9128" height="29.9128" fill="white" transform="translate(0.5 0.591309)"/>
</clipPath>
</defs>
</svg>
