<svg width="25" height="24" viewBox="0 0 25 24" fill="none" xmlns="http://www.w3.org/2000/svg">
<g clip-path="url(#clip0_1531_3571)">
<g clip-path="url(#clip1_1531_3571)">
<path d="M17.6083 12.4637L12.3472 16.6961L7.08599 12.3069C6.91232 12.163 6.6943 12.0833 6.46876 12.0816C6.32483 12.0813 6.18261 12.1128 6.05223 12.1738C5.92184 12.2347 5.80648 12.3237 5.71437 12.4343C5.63187 12.5332 5.56972 12.6476 5.53146 12.7706C5.49321 12.8937 5.47961 13.0231 5.49144 13.1513C5.50327 13.2797 5.54031 13.4044 5.60042 13.5184C5.66052 13.6324 5.74253 13.7334 5.84173 13.8157L11.7201 18.7144C11.8954 18.8585 12.1154 18.9372 12.3423 18.9372C12.5692 18.9372 12.789 18.8585 12.9644 18.7144L18.8428 13.9823C18.9434 13.9013 19.0271 13.8014 19.089 13.6881C19.1509 13.5749 19.1898 13.4505 19.2034 13.3221C19.217 13.1937 19.2052 13.0639 19.1685 12.9401C19.1319 12.8164 19.0711 12.7011 18.9897 12.6008C18.9081 12.5009 18.8077 12.418 18.6941 12.3571C18.5804 12.296 18.4559 12.2581 18.3275 12.2454C18.1992 12.2326 18.0696 12.2453 17.9461 12.2828C17.8227 12.3202 17.7079 12.3817 17.6083 12.4637Z" fill="white"/>
<path d="M11.7201 11.8566C11.8954 12.0007 12.1154 12.0795 12.3423 12.0795C12.5692 12.0795 12.789 12.0007 12.9644 11.8566L18.8428 7.12449C18.9434 7.04365 19.0271 6.9437 19.089 6.83041C19.1509 6.71711 19.1898 6.59271 19.2034 6.46433C19.217 6.33596 19.2052 6.20615 19.1685 6.08237C19.1319 5.9586 19.0711 5.84329 18.9897 5.74307C18.9089 5.64243 18.8089 5.55876 18.6956 5.49686C18.5824 5.43497 18.4579 5.39607 18.3296 5.38242C18.2011 5.36877 18.0713 5.38061 17.9476 5.41728C17.8239 5.45396 17.7085 5.51473 17.6083 5.59611L12.3472 9.83835L7.08599 5.44916C6.91232 5.30523 6.6943 5.22564 6.46876 5.22382C6.32483 5.22358 6.18261 5.25506 6.05223 5.31603C5.92184 5.37699 5.80648 5.46593 5.71437 5.57652C5.63187 5.67552 5.56972 5.78983 5.53146 5.91288C5.49321 6.03594 5.47961 6.16534 5.49144 6.29365C5.50327 6.42198 5.54031 6.5467 5.60042 6.66069C5.66052 6.77468 5.74253 6.87569 5.84173 6.95794L11.7201 11.8566Z" fill="white"/>
</g>
</g>
<defs>
<clipPath id="clip0_1531_3571">
<rect width="23.5135" height="23.5135" fill="white" transform="translate(0.594727 0.324707)"/>
</clipPath>
<clipPath id="clip1_1531_3571">
<rect width="23.5135" height="23.5135" fill="white" transform="translate(0.59375 0.324738)"/>
</clipPath>
</defs>
</svg>
