<svg width="45" height="45" viewBox="0 0 45 45" fill="none" xmlns="http://www.w3.org/2000/svg">
<circle cx="22.6377" cy="22.5328" r="21.9893" fill="white"/>
<path fill-rule="evenodd" clip-rule="evenodd" d="M4.76556 24.8048C4.93646 24.7192 4.979 24.5488 4.979 24.3779V20.58C4.979 20.4519 4.93622 20.2385 4.76556 20.1531H6.55816C7.36889 20.1531 8.17962 20.4947 8.17962 21.4333C8.17962 21.9027 7.75298 22.2868 7.28356 22.3721C7.96642 22.3721 8.56371 22.7562 8.56371 23.4816C8.56371 24.5486 7.49676 24.8045 6.72857 24.8045L4.76556 24.8048ZM6.21661 20.58H5.91808V22.2015H6.13128C6.68603 22.2015 7.19823 22.0308 7.19823 21.3905C7.19823 20.7507 6.77136 20.58 6.21661 20.58ZM6.34472 22.6283H5.91808V24.3354C6.13128 24.3779 6.34472 24.3779 6.55816 24.3779C7.02758 24.3779 7.497 24.2075 7.497 23.4819C7.497 22.799 6.94225 22.6283 6.34472 22.6283ZM10.3563 20.58H10.1429V22.2015H10.3563C10.8685 22.2015 11.2526 21.9027 11.2526 21.3479C11.2526 20.7932 10.8683 20.58 10.3563 20.58ZM12.7034 24.8476C12.5325 24.8476 12.3193 24.8476 12.1489 24.762C11.8501 24.6764 11.4233 23.9938 11.2526 23.695C10.9538 23.2682 10.7406 22.6281 10.1431 22.6281V24.3777C10.1431 24.5486 10.1857 24.719 10.3565 24.8045H8.94829C9.11894 24.719 9.16173 24.5486 9.16173 24.3777V20.58C9.16173 20.4519 9.11894 20.2385 8.94829 20.1531H10.6553C11.3805 20.1531 12.2768 20.4519 12.2768 21.3479C12.2768 22.0736 11.6792 22.4574 10.9964 22.4574C11.9355 22.4574 12.5325 24.719 13.5997 24.719C13.3084 24.8037 13.0067 24.8469 12.7034 24.8476ZM13.6423 24.8048C13.7701 24.7622 13.8982 24.5913 13.8982 24.3779V20.58C13.8982 20.3666 13.7701 20.2385 13.6423 20.1531H15.0931C14.9652 20.2387 14.8371 20.3666 14.8371 20.58V24.3779C14.8371 24.5913 14.9652 24.7622 15.0931 24.8048H13.6423ZM16.7575 24.8048C16.8856 24.7192 16.971 24.5488 16.971 24.3779V20.7079H15.9468C15.6908 20.7079 15.4346 20.7504 15.2214 20.836L15.5627 20.1531H18.9342C19.1902 20.1531 19.489 20.1531 19.745 20.1103C19.6168 20.4519 19.233 20.7079 19.0196 20.7079H17.9101V24.3779C17.9101 24.5488 17.9954 24.7192 18.1663 24.8048H16.7575ZM19.9154 24.8048C20.0435 24.7622 20.1716 24.5913 20.1716 24.3779V20.58C20.1716 20.3666 20.0435 20.2385 19.9154 20.1531H21.3664C21.2383 20.2387 21.1102 20.3666 21.1102 20.58V24.3779C21.1102 24.5913 21.2383 24.7622 21.3664 24.8048H19.9154ZM24.1406 23.7378C24.1406 22.8846 22.0493 22.6711 22.0493 21.2629C22.0493 20.4093 22.8602 20.1106 23.5859 20.1106C23.9272 20.1106 24.3966 20.1534 24.6954 20.2815L24.7379 21.1778C24.5675 20.7937 24.0979 20.4949 23.671 20.4949C23.3297 20.4949 22.9884 20.6656 22.9884 21.0497C22.9884 21.9457 25.1223 22.2019 25.1223 23.5246C25.1223 24.4637 24.2687 24.8904 23.4152 24.8904C22.9461 24.8904 22.3483 24.8048 21.9642 24.549C21.9642 24.3781 21.9214 24.2077 21.9214 24.0794C21.9214 23.8664 21.9642 23.6955 22.0067 23.4821C22.2202 24.0368 22.6896 24.4637 23.3297 24.4637C23.7563 24.4632 24.1406 24.25 24.1406 23.7378ZM28.5784 24.8048C28.6639 24.7622 28.7918 24.5913 28.7918 24.3779V22.6709C28.5358 22.6283 28.1945 22.6283 27.8102 22.6283C27.3838 22.6283 27.042 22.6283 26.7863 22.6709V24.3779C26.7863 24.5913 26.9141 24.7622 26.9997 24.8048H25.634C25.7196 24.7622 25.8474 24.5913 25.8474 24.3779V20.58C25.8474 20.3666 25.7196 20.2385 25.634 20.1531H26.9997C26.9141 20.2387 26.7863 20.3666 26.7863 20.58V22.1589C27.0422 22.1589 27.384 22.2017 27.8102 22.2017C28.1945 22.2017 28.5358 22.1589 28.7918 22.1589V20.58C28.7918 20.3666 28.6639 20.2385 28.5784 20.1531H29.9441C29.8162 20.2387 29.7307 20.3666 29.7307 20.58V24.3779C29.7307 24.5913 29.8162 24.7622 29.9441 24.8048H28.5784ZM6.55816 30.8222C6.6007 30.7791 6.64349 30.7366 6.64349 30.6513C6.64349 30.6513 6.6007 30.5657 6.6007 30.4804C6.6007 30.4804 6.21661 29.4564 6.17407 29.3283H4.46704C4.42425 29.4562 3.99762 30.4804 3.99762 30.4804C3.95483 30.6087 3.91229 30.6513 3.91229 30.6943C3.91229 30.7794 3.99762 30.7794 4.0404 30.8222H3.10156C3.23568 30.7305 3.35144 30.6146 3.44287 30.4804L4.93646 26.5118C4.97924 26.5118 4.97924 26.4693 4.97924 26.4693C4.97924 26.3409 4.89392 26.2558 4.80835 26.2128H6.00341L7.53954 30.4801C7.62511 30.651 7.75298 30.7366 7.88109 30.8219H6.55816V30.8222ZM5.32055 27.0666L4.63769 28.8592C4.85113 28.9017 5.06457 28.9017 5.27777 28.9017C5.49097 28.9017 5.74719 28.9017 6.00317 28.8592L5.32055 27.0666ZM8.09429 30.8222C8.2224 30.7791 8.35051 30.6087 8.35051 30.3953V26.5974C8.35051 26.3839 8.2224 26.2561 8.09429 26.213H9.54534C9.41722 26.2561 9.28911 26.3839 9.28911 26.5974V30.3955C9.28911 30.609 9.41722 30.7794 9.54534 30.8224L8.09429 30.8222ZM11.6792 26.5974H11.4658V28.2191H11.6792C12.1914 28.2191 12.5753 27.9626 12.5753 27.3656C12.5753 26.8106 12.1912 26.5974 11.6792 26.5974ZM14.1542 30.8647C13.941 30.8647 13.7701 30.8647 13.5995 30.8222C13.3009 30.6943 12.8313 30.0112 12.6606 29.7122C12.4044 29.2858 12.0631 28.6457 11.4658 28.6457V30.3953C11.4658 30.5657 11.5083 30.7366 11.6792 30.8222H10.271C10.4416 30.7366 10.4844 30.5657 10.4844 30.3953V26.5974C10.4844 26.4695 10.4416 26.2561 10.271 26.213H11.978C12.7034 26.213 13.5997 26.4695 13.5997 27.3656C13.5997 28.0907 12.9168 28.4751 12.4474 28.4751C13.4291 28.5181 14.0263 30.7368 15.008 30.7368C14.7517 30.8222 14.453 30.8647 14.1542 30.8647ZM19.9154 26.6397L18.5071 30.8222C18.379 30.8222 18.2509 30.7791 18.2083 30.7366C18.0805 30.6087 17.867 30.054 17.7817 29.8405L17.1414 28.2188L16.2025 30.8222H15.7759L14.1968 26.6397C14.1725 26.5488 14.1296 26.4639 14.0709 26.3904C14.0121 26.317 13.9388 26.2565 13.8554 26.2128H15.2209C15.1781 26.2558 15.1356 26.2984 15.1356 26.3837C15.1356 26.4262 15.1356 26.5116 15.1781 26.5541L16.2023 29.3283L17.2693 26.2128L18.4641 29.2002L19.4029 26.469C19.4029 26.426 19.4457 26.3835 19.4457 26.3407C19.4457 26.2556 19.4029 26.2556 19.3601 26.2128H20.2564C20.1732 26.2566 20.0999 26.3171 20.0412 26.3905C19.9825 26.464 19.9397 26.5488 19.9154 26.6397ZM21.5799 27.0666L20.8972 28.8592C21.1104 28.9017 21.3239 28.9017 21.5373 28.9017C21.7507 28.9017 22.0067 28.9017 22.2202 28.8592L21.5799 27.0666ZM22.7747 30.8222C22.8602 30.7791 22.8602 30.7366 22.8602 30.6513C22.8602 30.6513 22.8602 30.5657 22.8175 30.4804C22.8175 30.4804 22.4759 29.4564 22.3906 29.3283H20.7263C20.6838 29.4562 20.2569 30.4804 20.2569 30.4804C20.2141 30.6087 20.1716 30.6513 20.1716 30.6943C20.1716 30.7794 20.2569 30.7794 20.2995 30.8222H19.3606C19.4887 30.7366 19.6168 30.6087 19.6594 30.4804L21.1958 26.5118L21.2385 26.4693C21.2385 26.3409 21.1532 26.2558 21.0679 26.2128H22.2627L23.7988 30.4801C23.8844 30.651 24.0123 30.7366 24.1406 30.8219H22.7747V30.8222ZM26.9572 26.6822L25.8902 28.6027V30.3953C25.8902 30.5657 25.9327 30.7366 26.0611 30.8222H24.7377C24.8656 30.7366 24.9086 30.5657 24.9086 30.3953V28.6027L23.9695 27.0666C23.8839 26.9387 23.5003 26.2558 22.9879 26.2558C23.1157 26.2128 23.5426 26.1275 23.7986 26.1275C24.2683 26.1275 24.4817 26.1705 24.7377 26.5971L25.6337 28.0054C25.7193 27.877 26.4019 26.6397 26.4019 26.6397C26.4875 26.5118 26.5303 26.3837 26.5303 26.3409C26.5303 26.2984 26.5303 26.2558 26.4447 26.213H27.4263C27.2557 26.2984 27.0853 26.5118 26.9572 26.6822ZM29.5175 29.7552C29.5175 28.9017 27.4689 28.6883 27.4689 27.28C27.4689 26.4265 28.2799 26.1275 29.005 26.1275C29.3463 26.1275 29.816 26.1705 30.115 26.2984L30.1575 27.1944C29.9866 26.8106 29.5175 26.5118 29.0906 26.5118C28.7493 26.5118 28.408 26.6822 28.408 27.0666C28.408 27.9626 30.4988 28.2191 30.4988 29.5418C30.4988 30.5234 29.6881 30.907 28.8346 30.907C28.3654 30.907 27.7676 30.8219 27.3838 30.5657C27.3838 30.3953 27.3408 30.2674 27.3408 30.0965C27.3408 29.8831 27.3838 29.7122 27.3838 29.5418C27.6398 30.054 28.109 30.4804 28.7067 30.4804C29.1761 30.4804 29.5175 30.2674 29.5175 29.7552ZM42.0214 16.9525C41.2107 17.7207 39.5036 18.4036 38.6929 18.7023C37.5404 19.1292 37.0282 19.2999 36.3881 19.5131C35.6629 19.7265 34.2117 20.1959 34.2117 20.1959C37.1991 21.092 39.3332 21.3482 39.3332 21.3482C39.3332 21.3482 40.3148 21.0497 41.8935 20.1959C42.747 19.769 43.1314 19.5131 43.4297 19.2143C43.5575 19.129 43.8565 18.8302 43.8993 18.4461C43.8993 18.4036 43.9419 18.3608 43.9419 18.2752V18.1899C43.8993 18.1473 43.8993 18.1045 43.8993 18.1045C43.8993 18.1045 43.8993 18.0192 43.8563 17.9339C43.8563 17.8911 43.7712 17.6779 43.6003 17.5498C43.4724 17.4642 43.3015 17.251 42.6612 17.0376C42.4478 16.952 42.0639 16.8667 42.0639 16.8667L42.0214 16.9525Z" fill="#2C4A7C"/>
<path fill-rule="evenodd" clip-rule="evenodd" d="M43.9416 18.2317C43.9416 18.2317 43.9416 18.1463 43.8991 18.1035C43.8991 18.0182 43.8561 17.9754 43.8135 17.8901C43.7339 17.8122 43.6624 17.7265 43.6001 17.6341C43.5145 17.5913 43.4292 17.506 43.3441 17.4207C42.9172 17.1645 42.405 17.0366 41.9354 16.9513C41.2102 16.8659 40.3567 16.8659 40.2711 16.8659C40.0151 16.8659 38.2656 16.8659 37.8389 16.9085C35.8759 16.9513 33.443 16.9513 32.8029 16.9513C26.2736 16.9513 23.4145 16.8231 20.2565 16.1831C17.5678 15.6709 16.0742 15.1589 16.0742 15.1589C18.4641 15.0736 32.3335 14.476 34.8513 14.4335C36.516 14.391 37.6678 14.3482 38.6069 14.4335C39.1191 14.4335 39.546 14.4763 40.1007 14.6044C40.6124 14.6897 41.0823 14.8178 41.3381 14.9032C41.8928 15.1166 42.405 15.4154 42.6185 15.7567C42.6185 15.7567 42.704 15.7995 42.7889 15.9273C42.8745 16.0982 43.0023 16.2689 43.0454 16.3114C43.3867 16.8662 43.5571 17.1649 43.6001 17.2931C43.6857 17.4212 43.728 17.5493 43.771 17.6771C43.8561 17.7625 43.8561 17.8478 43.8561 17.8903C43.8991 18.0185 43.8991 18.1466 43.9416 18.1891V18.2317Z" fill="#C82E37"/>
</svg>
