<svg width="31" height="31" viewBox="0 0 31 31" fill="none" xmlns="http://www.w3.org/2000/svg">
<g clip-path="url(#clip0_1531_3608)">
<path d="M23.2262 0.591309H7.33503C3.46307 0.591309 0.324219 3.73016 0.324219 7.60212V23.4933C0.324219 27.3653 3.46307 30.5041 7.33503 30.5041H23.2262C27.0982 30.5041 30.237 27.3653 30.237 23.4933V7.60212C30.237 3.73016 27.0982 0.591309 23.2262 0.591309Z" fill="#F0DB4F"/>
<path d="M8.1895 25.589L10.4786 24.2036C10.9203 24.9866 11.322 25.6492 12.2856 25.6492C13.2093 25.6492 13.7916 25.2879 13.7916 23.8824V14.3246H16.6027V23.9222C16.6027 26.8336 14.8961 28.1589 12.4061 28.1589C10.1574 28.1589 8.85205 26.9943 8.18945 25.5887" fill="#323330"/>
<path d="M18.1289 25.2873L20.4177 23.9621C21.0203 24.9461 21.8034 25.6689 23.1887 25.6689C24.3536 25.6689 25.0963 25.0865 25.0963 24.2833C25.0963 23.3196 24.3332 22.9781 23.0482 22.4161L22.3456 22.1148C20.3174 21.2515 18.9721 20.1672 18.9721 17.8781C18.9721 15.7697 20.5785 14.1633 23.0885 14.1633C24.8755 14.1633 26.1606 14.7859 27.0842 16.4123L24.8955 17.8178C24.4135 16.9545 23.8917 16.6131 23.0885 16.6131C22.2652 16.6131 21.7431 17.1352 21.7431 17.8178C21.7431 18.6611 22.2652 19.0025 23.4699 19.5247L24.1726 19.8258C26.562 20.85 27.9074 21.8939 27.9074 24.2431C27.9074 26.7733 25.9196 28.1587 23.249 28.1587C20.6388 28.1587 18.9521 26.9138 18.1289 25.2873Z" fill="#323330"/>
</g>
<defs>
<clipPath id="clip0_1531_3608">
<rect width="29.9128" height="29.9128" fill="white" transform="translate(0.324219 0.591309)"/>
</clipPath>
</defs>
</svg>
