<svg width="92" height="93" viewBox="0 0 92 93" fill="none" xmlns="http://www.w3.org/2000/svg">
<g filter="url(#filter0_d_111_9566)">
<rect x="18.5332" y="9.11279" width="56.4949" height="56.4949" rx="28.2475" fill="white" shape-rendering="crispEdges"/>
<g clip-path="url(#clip0_111_9566)">
<g clip-path="url(#clip1_111_9566)">
<path d="M54.7668 25.958H39.9298C38.5534 25.958 36.5059 26.8699 36.5059 29.3819V45.3603C36.5059 47.8723 38.5534 48.7842 39.9298 48.7842H57.0495V46.5016H39.9435C39.4162 46.4879 38.7885 46.2791 38.7885 45.3603C38.7885 45.2451 38.7988 45.1423 38.8159 45.0487C38.9437 44.3925 39.4813 44.2304 39.9424 44.219H55.9082C55.9287 44.219 55.9435 44.2087 55.9641 44.2076H57.0495V28.2406C57.0495 26.9818 56.0257 25.958 54.7668 25.958ZM54.7668 41.9363H38.7885V29.3819C38.7885 28.462 39.4162 28.2543 39.9298 28.2406H47.919V36.2298L50.2016 35.0885L52.4843 36.2298V28.2406H54.7668V41.9363Z" fill="#0BB09F"/>
</g>
</g>
</g>
<defs>
<filter id="filter0_d_111_9566" x="-0.00419915" y="0.285459" width="91.8045" height="91.8042" filterUnits="userSpaceOnUse" color-interpolation-filters="sRGB">
<feFlood flood-opacity="0" result="BackgroundImageFix"/>
<feColorMatrix in="SourceAlpha" type="matrix" values="0 0 0 0 0 0 0 0 0 0 0 0 0 0 0 0 0 0 127 0" result="hardAlpha"/>
<feOffset dx="-0.882733" dy="8.82733"/>
<feGaussianBlur stdDeviation="8.82733"/>
<feComposite in2="hardAlpha" operator="out"/>
<feColorMatrix type="matrix" values="0 0 0 0 0.772549 0 0 0 0 0.815686 0 0 0 0 0.847059 0 0 0 0.2 0"/>
<feBlend mode="normal" in2="BackgroundImageFix" result="effect1_dropShadow_111_9566"/>
<feBlend mode="normal" in="SourceGraphic" in2="effect1_dropShadow_111_9566" result="shape"/>
</filter>
<clipPath id="clip0_111_9566">
<rect width="28.2475" height="28.2475" fill="white" transform="translate(32.6572 23.2373)"/>
</clipPath>
<clipPath id="clip1_111_9566">
<rect width="28.2475" height="28.2475" fill="white" transform="translate(32.6562 23.2368)"/>
</clipPath>
</defs>
</svg>
