<svg width="92" height="93" viewBox="0 0 92 93" fill="none" xmlns="http://www.w3.org/2000/svg">
<g filter="url(#filter0_d_111_9549)">
<rect x="18.5332" y="9.31006" width="56.4949" height="56.4949" rx="28.2475" fill="white" shape-rendering="crispEdges"/>
<g clip-path="url(#clip0_111_9549)">
<g clip-path="url(#clip1_111_9549)">
<g clip-path="url(#clip2_111_9549)">
<path d="M60.2156 34.5111L58.8703 33.7712L46.7625 27.0446H46.6146C46.5321 27.0097 46.4465 26.9827 46.3589 26.9639H45.8611C45.7692 26.9827 45.6792 27.0097 45.5921 27.0446H45.4441L33.3363 33.7712C33.1293 33.8885 32.957 34.0587 32.8372 34.2642C32.7174 34.4698 32.6543 34.7036 32.6543 34.9416C32.6543 35.1796 32.7174 35.4133 32.8372 35.6189C32.957 35.8245 33.1293 35.9947 33.3363 36.112L36.6861 37.9686V44.3453C36.6861 45.4157 37.1113 46.4423 37.8682 47.1991C38.6251 47.9561 39.6517 48.3813 40.7221 48.3813H51.4846C52.555 48.3813 53.5815 47.9561 54.3384 47.1991C55.0953 46.4423 55.5205 45.4157 55.5205 44.3453V37.9686L58.2111 36.4618V40.3094C58.2111 40.6662 58.3529 41.0083 58.6052 41.2606C58.8574 41.5129 59.1997 41.6547 59.5565 41.6547C59.9133 41.6547 60.2554 41.5129 60.5077 41.2606C60.76 41.0083 60.9018 40.6662 60.9018 40.3094V35.6815C60.9013 35.4431 60.8376 35.2091 60.7171 35.0035C60.5965 34.7978 60.4235 34.6278 60.2156 34.5111ZM52.8299 44.3453C52.8299 44.7021 52.6881 45.0443 52.4358 45.2966C52.1835 45.5488 51.8414 45.6906 51.4846 45.6906H40.7221C40.3653 45.6906 40.0231 45.5488 39.7708 45.2966C39.5185 45.0443 39.3768 44.7021 39.3768 44.3453V39.4618L45.4441 42.8251L45.6459 42.9059H45.767C45.8787 42.9199 45.9917 42.9199 46.1034 42.9059C46.215 42.9199 46.328 42.9199 46.4397 42.9059H46.5607C46.6321 42.8908 46.7004 42.8635 46.7625 42.8251L52.8299 39.4618V44.3453ZM46.1034 40.121L36.7668 34.9282L46.1034 29.7352L55.4398 34.9282L46.1034 40.121Z" fill="#E25A93"/>
</g>
</g>
</g>
</g>
<defs>
<filter id="filter0_d_111_9549" x="-0.00419915" y="0.482724" width="91.8045" height="91.8042" filterUnits="userSpaceOnUse" color-interpolation-filters="sRGB">
<feFlood flood-opacity="0" result="BackgroundImageFix"/>
<feColorMatrix in="SourceAlpha" type="matrix" values="0 0 0 0 0 0 0 0 0 0 0 0 0 0 0 0 0 0 127 0" result="hardAlpha"/>
<feOffset dx="-0.882733" dy="8.82733"/>
<feGaussianBlur stdDeviation="8.82733"/>
<feComposite in2="hardAlpha" operator="out"/>
<feColorMatrix type="matrix" values="0 0 0 0 0.772549 0 0 0 0 0.815686 0 0 0 0 0.847059 0 0 0 0.2 0"/>
<feBlend mode="normal" in2="BackgroundImageFix" result="effect1_dropShadow_111_9549"/>
<feBlend mode="normal" in="SourceGraphic" in2="effect1_dropShadow_111_9549" result="shape"/>
</filter>
<clipPath id="clip0_111_9549">
<rect width="28.2475" height="28.2475" fill="white" transform="translate(32.6572 23.4331)"/>
</clipPath>
<clipPath id="clip1_111_9549">
<rect width="28.2475" height="28.2475" fill="white" transform="translate(32.6562 23.4331)"/>
</clipPath>
<clipPath id="clip2_111_9549">
<rect width="28.2475" height="28.2475" fill="white" transform="translate(32.6553 23.4331)"/>
</clipPath>
</defs>
</svg>
