<svg width="92" height="93" viewBox="0 0 92 93" fill="none" xmlns="http://www.w3.org/2000/svg">
<g filter="url(#filter0_d_111_9602)">
<rect x="18.6035" y="9.74756" width="56.4949" height="56.4949" rx="28.2475" fill="white" shape-rendering="crispEdges"/>
<g clip-path="url(#clip0_111_9602)">
<g clip-path="url(#clip1_111_9602)">
<path d="M36.9323 43.2965V42.9967C36.9323 42.786 37.016 42.584 37.165 42.435C37.3139 42.286 37.516 42.2023 37.7267 42.2023H46.5541C46.7648 42.2023 46.9668 42.286 47.1158 42.435C47.2648 42.584 47.3485 42.786 47.3485 42.9967V43.2954L47.3407 43.3844C47.2752 43.9439 47.0727 44.4786 46.7513 44.9411C46.1901 45.7435 44.9671 46.7336 42.1404 46.7336C39.314 46.7336 38.0909 45.7438 37.5285 44.9413C37.2071 44.4782 37.0049 43.943 36.9399 43.3832L36.8522 43.3934M36.9323 43.2965L47.4368 42.9967C47.4368 42.7626 47.3437 42.5381 47.1782 42.3726C47.0127 42.207 46.7882 42.114 46.5541 42.114H37.7267C37.4926 42.114 37.2681 42.207 37.1025 42.3726C36.937 42.5381 36.844 42.7626 36.844 42.9967V43.2993C36.8459 43.3307 36.8487 43.3621 36.8522 43.3934M36.9323 43.2965C36.9341 43.3255 36.9366 43.3543 36.9399 43.3832L36.8522 43.3934M36.9323 43.2965L37.456 44.9917C37.1263 44.5167 36.9189 43.9678 36.8522 43.3934M49.4183 46.233L49.3658 46.3214L49.461 46.36C50.301 46.7005 51.3731 46.9102 52.7343 46.9102C55.4386 46.9102 57.0018 46.0835 57.8599 45.0444C58.2753 44.5411 58.4863 44.0325 58.5948 43.6431C58.6569 43.4168 58.6946 43.1841 58.7074 42.9497L58.7075 42.9449V42.9132C58.7075 42.5648 58.6389 42.2199 58.5056 41.8979C58.3723 41.5761 58.1768 41.2836 57.9305 41.0373C57.6842 40.791 57.3917 40.5955 57.0699 40.4622C56.7479 40.3289 56.403 40.2603 56.0546 40.2603H49.4141H49.4127C49.3807 40.2603 49.3461 40.2603 49.3111 40.2628L49.1239 40.2767L49.254 40.412C49.7069 40.8834 50.0357 41.4755 50.1922 42.1344L50.2082 42.2023H50.278H56.0546C56.4425 42.2023 56.7577 42.5127 56.7654 42.8977C56.7575 42.9752 56.7428 43.052 56.7217 43.127C56.6524 43.3765 56.5299 43.6083 56.3626 43.8059L56.3618 43.8069C55.9711 44.2825 55.0322 44.9682 52.7343 44.9682C51.5894 44.9682 50.782 44.7976 50.2133 44.5685L50.121 44.5314L50.0951 44.6274C49.9697 45.0919 49.763 45.6527 49.4183 46.233ZM34.9902 43.324L34.9903 43.3254C34.9917 43.4101 34.9974 43.4947 35.0073 43.5788C35.1062 44.4691 35.4262 45.3205 35.9383 46.0555C36.9202 47.4576 38.788 48.6756 42.1404 48.6756C45.4927 48.6756 47.3605 47.459 48.3425 46.0545C48.8548 45.3196 49.1749 44.4677 49.2735 43.5773C49.2821 43.4943 49.2877 43.4102 49.2905 43.3268V43.324V42.9967C49.2905 42.271 49.0022 41.5749 48.489 41.0618C47.9759 40.5486 47.2798 40.2603 46.5541 40.2603H37.7267C37.001 40.2603 36.3049 40.5486 35.7917 41.0618C35.2786 41.5749 34.9902 42.271 34.9902 42.9967L34.9902 43.324ZM39.2862 33.2867C39.2862 32.5297 39.5869 31.8037 40.1222 31.2685C40.6574 30.7332 41.3834 30.4325 42.1404 30.4325C42.8973 30.4325 43.6233 30.7332 44.1586 31.2685C44.6939 31.8037 44.9945 32.5297 44.9945 33.2867C44.9945 34.0436 44.6939 34.7696 44.1586 35.3049C43.6233 35.8402 42.8973 36.1408 42.1404 36.1408C41.3834 36.1408 40.6574 35.8402 40.1222 35.3049C39.5869 34.7696 39.2862 34.0436 39.2862 33.2867ZM42.1404 28.4905C40.8684 28.4905 39.6484 28.9958 38.749 29.8953C37.8495 30.7947 37.3442 32.0146 37.3442 33.2867C37.3442 34.5587 37.8495 35.7786 38.749 36.6781C39.6484 37.5776 40.8684 38.0828 42.1404 38.0828C43.4124 38.0828 44.6323 37.5776 45.5318 36.6781C46.4313 35.7786 46.9365 34.5587 46.9365 33.2867C46.9365 32.0146 46.4313 30.7947 45.5318 29.8953C44.6323 28.9958 43.4124 28.4905 42.1404 28.4905ZM51.056 34.4636C51.056 34.0188 51.2327 33.5922 51.5472 33.2777C51.8618 32.9632 52.2884 32.7864 52.7332 32.7864C53.178 32.7864 53.6046 32.9632 53.9191 33.2777C54.2337 33.5922 54.4104 34.0188 54.4104 34.4636C54.4104 34.9084 54.2337 35.3351 53.9191 35.6496C53.6046 35.9641 53.178 36.1408 52.7332 36.1408C52.2884 36.1408 51.8618 35.9641 51.5472 35.6496C51.2327 35.3351 51.056 34.9084 51.056 34.4636ZM52.7332 30.8444C51.7733 30.8444 50.8528 31.2257 50.1741 31.9045C49.4953 32.5832 49.114 33.5037 49.114 34.4636C49.114 35.4235 49.4953 36.3441 50.1741 37.0228C50.8528 37.7016 51.7733 38.0828 52.7332 38.0828C53.6931 38.0828 54.6136 37.7016 55.2923 37.0228C55.9711 36.3441 56.3524 35.4235 56.3524 34.4636C56.3524 33.5037 55.9711 32.5832 55.2923 31.9045C54.6136 31.2257 53.6931 30.8444 52.7332 30.8444Z" fill="#496EC5"/>
<path d="M36.9323 43.2965V42.9967C36.9323 42.786 37.016 42.584 37.165 42.435C37.3139 42.286 37.516 42.2023 37.7267 42.2023H46.5541C46.7648 42.2023 46.9668 42.286 47.1158 42.435C47.2648 42.584 47.3485 42.786 47.3485 42.9967V43.2954L47.3407 43.3844C47.2752 43.9439 47.0727 44.4786 46.7513 44.9411C46.1901 45.7435 44.9671 46.7336 42.1404 46.7336C39.314 46.7336 38.0909 45.7438 37.5285 44.9413C37.2071 44.4782 37.0049 43.943 36.9399 43.3832M36.9323 43.2965L47.4368 42.9967C47.4368 42.7626 47.3437 42.5381 47.1782 42.3726C47.0127 42.207 46.7882 42.114 46.5541 42.114H37.7267C37.4926 42.114 37.2681 42.207 37.1025 42.3726C36.937 42.5381 36.844 42.7626 36.844 42.9967V43.2993C36.8459 43.3307 36.8487 43.3621 36.8522 43.3934M36.9323 43.2965C36.9341 43.3255 36.9366 43.3543 36.9399 43.3832M36.9323 43.2965L37.456 44.9917C37.1263 44.5167 36.9189 43.9678 36.8522 43.3934M36.9399 43.3832L36.8522 43.3934M49.4183 46.233L49.3658 46.3214L49.461 46.36C50.301 46.7005 51.3731 46.9102 52.7343 46.9102C55.4386 46.9102 57.0018 46.0835 57.8599 45.0444C58.2753 44.5411 58.4863 44.0325 58.5948 43.6431C58.6569 43.4168 58.6946 43.1841 58.7074 42.9497L58.7075 42.9449V42.9132C58.7075 42.5648 58.6389 42.2199 58.5056 41.8979C58.3723 41.5761 58.1768 41.2836 57.9305 41.0373C57.6842 40.791 57.3917 40.5955 57.0699 40.4622C56.7479 40.3289 56.403 40.2603 56.0546 40.2603H49.4141H49.4127C49.3807 40.2603 49.3461 40.2603 49.3111 40.2628L49.1239 40.2767L49.254 40.412C49.7069 40.8834 50.0357 41.4755 50.1921 42.1344L50.2082 42.2023H50.278H56.0546C56.4425 42.2023 56.7577 42.5127 56.7654 42.8977C56.7575 42.9752 56.7428 43.052 56.7217 43.127C56.6524 43.3765 56.5299 43.6083 56.3626 43.8059L56.3618 43.8069C55.9711 44.2825 55.0322 44.9682 52.7343 44.9682C51.5894 44.9682 50.782 44.7976 50.2133 44.5685L50.121 44.5314L50.0951 44.6274C49.9697 45.0919 49.763 45.6527 49.4183 46.233ZM34.9902 43.324L34.9903 43.3254C34.9917 43.4101 34.9974 43.4947 35.0073 43.5788C35.1062 44.4691 35.4262 45.3205 35.9383 46.0555C36.9202 47.4576 38.788 48.6756 42.1404 48.6756C45.4927 48.6756 47.3605 47.459 48.3425 46.0545C48.8548 45.3196 49.1749 44.4677 49.2735 43.5773C49.2821 43.4943 49.2877 43.4102 49.2905 43.3268V43.324V42.9967C49.2905 42.271 49.0022 41.5749 48.489 41.0618C47.9759 40.5486 47.2798 40.2603 46.5541 40.2603H37.7267C37.001 40.2603 36.3049 40.5486 35.7917 41.0618C35.2786 41.5749 34.9902 42.271 34.9902 42.9967L34.9902 43.324ZM39.2862 33.2867C39.2862 32.5297 39.5869 31.8037 40.1222 31.2685C40.6574 30.7332 41.3834 30.4325 42.1404 30.4325C42.8973 30.4325 43.6233 30.7332 44.1586 31.2685C44.6939 31.8037 44.9945 32.5297 44.9945 33.2867C44.9945 34.0436 44.6939 34.7696 44.1586 35.3049C43.6233 35.8402 42.8973 36.1408 42.1404 36.1408C41.3834 36.1408 40.6574 35.8402 40.1222 35.3049C39.5869 34.7696 39.2862 34.0436 39.2862 33.2867ZM42.1404 28.4905C40.8684 28.4905 39.6484 28.9958 38.749 29.8953C37.8495 30.7947 37.3442 32.0146 37.3442 33.2867C37.3442 34.5587 37.8495 35.7786 38.749 36.6781C39.6484 37.5776 40.8684 38.0828 42.1404 38.0828C43.4124 38.0828 44.6323 37.5776 45.5318 36.6781C46.4313 35.7786 46.9365 34.5587 46.9365 33.2867C46.9365 32.0146 46.4313 30.7947 45.5318 29.8953C44.6323 28.9958 43.4124 28.4905 42.1404 28.4905ZM51.056 34.4636C51.056 34.0188 51.2327 33.5922 51.5472 33.2777C51.8618 32.9632 52.2884 32.7864 52.7332 32.7864C53.178 32.7864 53.6046 32.9632 53.9191 33.2777C54.2337 33.5922 54.4104 34.0188 54.4104 34.4636C54.4104 34.9084 54.2337 35.3351 53.9191 35.6496C53.6046 35.9641 53.178 36.1408 52.7332 36.1408C52.2884 36.1408 51.8618 35.9641 51.5472 35.6496C51.2327 35.3351 51.056 34.9084 51.056 34.4636ZM52.7332 30.8444C51.7733 30.8444 50.8528 31.2257 50.1741 31.9045C49.4953 32.5832 49.114 33.5037 49.114 34.4636C49.114 35.4235 49.4953 36.3441 50.1741 37.0228C50.8528 37.7016 51.7733 38.0828 52.7332 38.0828C53.6931 38.0828 54.6136 37.7016 55.2923 37.0228C55.9711 36.3441 56.3524 35.4235 56.3524 34.4636C56.3524 33.5037 55.9711 32.5832 55.2923 31.9045C54.6136 31.2257 53.6931 30.8444 52.7332 30.8444Z" stroke="#496EC5" stroke-width="0.176547"/>
</g>
</g>
</g>
<defs>
<filter id="filter0_d_111_9602" x="0.0661134" y="0.920224" width="91.8045" height="91.8042" filterUnits="userSpaceOnUse" color-interpolation-filters="sRGB">
<feFlood flood-opacity="0" result="BackgroundImageFix"/>
<feColorMatrix in="SourceAlpha" type="matrix" values="0 0 0 0 0 0 0 0 0 0 0 0 0 0 0 0 0 0 127 0" result="hardAlpha"/>
<feOffset dx="-0.882733" dy="8.82733"/>
<feGaussianBlur stdDeviation="8.82733"/>
<feComposite in2="hardAlpha" operator="out"/>
<feColorMatrix type="matrix" values="0 0 0 0 0.772549 0 0 0 0 0.815686 0 0 0 0 0.847059 0 0 0 0.2 0"/>
<feBlend mode="normal" in2="BackgroundImageFix" result="effect1_dropShadow_111_9602"/>
<feBlend mode="normal" in="SourceGraphic" in2="effect1_dropShadow_111_9602" result="shape"/>
</filter>
<clipPath id="clip0_111_9602">
<rect width="28.2475" height="28.2475" fill="white" transform="translate(32.7275 23.8708)"/>
</clipPath>
<clipPath id="clip1_111_9602">
<rect width="28.2475" height="28.2475" fill="white" transform="translate(32.7266 23.8711)"/>
</clipPath>
</defs>
</svg>
