<svg width="92" height="92" viewBox="0 0 92 92" fill="none" xmlns="http://www.w3.org/2000/svg">
<g filter="url(#filter0_d_111_9593)">
<rect x="18.6035" y="8.94287" width="56.4949" height="56.4949" rx="28.2475" fill="white" shape-rendering="crispEdges"/>
<g clip-path="url(#clip0_111_9593)">
<g clip-path="url(#clip1_111_9593)">
<g clip-path="url(#clip2_111_9593)">
<path fill-rule="evenodd" clip-rule="evenodd" d="M41.8248 34.6824C41.1343 34.6824 40.5693 35.2473 40.5693 35.9378C40.5693 36.6409 41.1343 37.2058 41.8248 37.2058C42.5152 37.2058 43.0802 36.6409 43.0802 35.9504C43.0802 35.2473 42.5152 34.6824 41.8248 34.6824Z" fill="#E25A93"/>
<path fill-rule="evenodd" clip-rule="evenodd" d="M46.8424 34.6824C46.1519 34.6824 45.5869 35.2473 45.5869 35.9378C45.5869 36.6409 46.1519 37.2058 46.8424 37.2058C47.5329 37.2058 48.0978 36.6409 48.0978 35.9504C48.0978 35.2473 47.5329 34.6824 46.8424 34.6824Z" fill="#E25A93"/>
<path fill-rule="evenodd" clip-rule="evenodd" d="M51.8628 34.6824C51.1724 34.6824 50.6074 35.2473 50.6074 35.9378C50.6074 36.6409 51.1724 37.2058 51.8628 37.2058C52.5534 37.2058 53.1183 36.6409 53.1183 35.9504C53.1183 35.2473 52.5534 34.6824 51.8628 34.6824Z" fill="#E25A93"/>
<path fill-rule="evenodd" clip-rule="evenodd" d="M60.4455 30.2621C60.2447 28.7555 59.8055 27.4875 58.8016 26.4832C57.7977 25.4788 56.5303 25.0394 55.0244 24.8386C53.5813 24.6377 51.7366 24.6377 49.4402 24.6377H44.2325C41.9487 24.6377 40.104 24.6377 38.6609 24.8386C37.155 25.0394 35.8876 25.4788 34.8837 26.4832C33.8673 27.4875 33.4406 28.7555 33.2398 30.2621C33.0391 31.7058 33.0391 33.5513 33.0391 35.8488V36.0371C33.0391 38.322 33.0391 40.1675 33.2398 41.6113C33.4406 43.1178 33.8798 44.3858 34.8837 45.3901C35.8374 46.3443 37.0547 46.7711 38.4601 46.9846C38.4601 47.2231 38.4601 47.4491 38.4601 47.6499C38.4727 48.3405 38.5856 49.3951 39.464 49.9851C39.9283 50.299 40.4428 50.3492 40.8695 50.3115C41.2836 50.2738 41.6977 50.1483 42.0992 49.9851C42.8648 49.6838 43.8561 49.1691 45.0482 48.5538L45.1235 48.5162C46.6168 47.7379 48.1101 47.2231 49.365 47.2231H49.4528C51.7366 47.2231 53.5813 47.2231 55.037 47.0223C56.5428 46.8213 57.8102 46.382 58.8141 45.3776C59.818 44.3732 60.2573 43.1053 60.458 41.5987C60.6588 40.1424 60.6588 38.2969 60.6588 36.012V35.8236C60.6588 33.5388 60.6588 31.6933 60.458 30.237L60.4455 30.2621ZM57.9609 41.2848C57.7977 42.5152 57.4966 43.168 57.0322 43.6326C56.5679 44.097 55.9154 44.3984 54.6982 44.5615C53.4307 44.7373 51.7618 44.7373 49.3525 44.7373C47.4952 44.7373 45.5752 45.4781 43.9564 46.3192C42.6764 46.9846 41.8106 47.4366 41.1832 47.6751C41.0953 47.7127 41.0326 47.7379 40.9699 47.7504C40.9699 47.7127 40.9699 47.6625 40.9699 47.5997C40.9573 46.9971 41.0326 46.1183 41.1455 44.8001L41.1957 44.21C41.2585 43.5196 40.744 42.9043 40.0538 42.8416C39.3636 42.7788 38.7487 43.2936 38.686 43.9841L38.6358 44.4988C37.6319 44.323 37.0547 44.0469 36.6405 43.62C36.1762 43.1555 35.8751 42.5027 35.7119 41.2723C35.5363 40.0043 35.5363 38.3346 35.5363 35.9241C35.5363 33.5137 35.5363 31.8439 35.7119 30.5759C35.8751 29.3456 36.1762 28.6928 36.6405 28.2283C37.1048 27.7638 37.7574 27.4624 38.9746 27.2992C40.242 27.1235 41.911 27.1235 44.3204 27.1235H49.3398C51.7366 27.1235 53.4182 27.1235 54.6856 27.2992C55.9154 27.4624 56.5679 27.7638 57.0322 28.2283C57.4966 28.6928 57.7977 29.3456 57.9609 30.5634C58.1365 31.8314 58.1365 33.5011 58.1365 35.9116C58.1365 38.322 58.1365 39.9918 57.9609 41.2598V41.2848Z" fill="#E25A93"/>
</g>
</g>
</g>
</g>
<defs>
<filter id="filter0_d_111_9593" x="0.0661134" y="0.115537" width="91.8045" height="91.8042" filterUnits="userSpaceOnUse" color-interpolation-filters="sRGB">
<feFlood flood-opacity="0" result="BackgroundImageFix"/>
<feColorMatrix in="SourceAlpha" type="matrix" values="0 0 0 0 0 0 0 0 0 0 0 0 0 0 0 0 0 0 127 0" result="hardAlpha"/>
<feOffset dx="-0.882733" dy="8.82733"/>
<feGaussianBlur stdDeviation="8.82733"/>
<feComposite in2="hardAlpha" operator="out"/>
<feColorMatrix type="matrix" values="0 0 0 0 0.772549 0 0 0 0 0.815686 0 0 0 0 0.847059 0 0 0 0.2 0"/>
<feBlend mode="normal" in2="BackgroundImageFix" result="effect1_dropShadow_111_9593"/>
<feBlend mode="normal" in="SourceGraphic" in2="effect1_dropShadow_111_9593" result="shape"/>
</filter>
<clipPath id="clip0_111_9593">
<rect width="28.2475" height="28.2475" fill="white" transform="translate(32.7275 23.0667)"/>
</clipPath>
<clipPath id="clip1_111_9593">
<rect width="28.2475" height="28.2475" fill="white" transform="translate(32.7266 23.0674)"/>
</clipPath>
<clipPath id="clip2_111_9593">
<rect width="28.2475" height="26.3643" fill="white" transform="translate(32.7256 24.0095)"/>
</clipPath>
</defs>
</svg>
