<svg width="93" height="92" viewBox="0 0 93 92" fill="none" xmlns="http://www.w3.org/2000/svg">
<g filter="url(#filter0_d_111_9620)">
<rect x="19.3027" y="8.96045" width="56.4949" height="56.4949" rx="28.2475" fill="white" shape-rendering="crispEdges"/>
<g clip-path="url(#clip0_111_9620)">
<g clip-path="url(#clip1_111_9620)">
<path d="M45.1912 41.9184C45.8386 41.9184 46.3682 41.3888 46.3682 40.7414V33.6795C46.3682 33.0322 45.8386 32.5025 45.1912 32.5025C44.5438 32.5025 44.0142 33.0322 44.0142 33.6795V40.7414C44.0142 41.3888 44.5438 41.9184 45.1912 41.9184ZM47.5451 25.4407C41.0483 25.4407 35.7754 30.7135 35.7754 37.2104C35.7754 43.7073 41.0483 48.9803 47.5451 48.9803C54.0421 48.9803 59.315 43.7073 59.315 37.2104C59.315 30.7135 54.0421 25.4407 47.5451 25.4407ZM47.5451 46.6263C42.3547 46.6263 38.1293 42.4009 38.1293 37.2104C38.1293 32.02 42.3547 27.7946 47.5451 27.7946C52.7356 27.7946 56.961 32.02 56.961 37.2104C56.961 42.4009 52.7356 46.6263 47.5451 46.6263ZM49.8991 41.9184C50.5464 41.9184 51.0761 41.3888 51.0761 40.7414V33.6795C51.0761 33.0322 50.5464 32.5025 49.8991 32.5025C49.2518 32.5025 48.7222 33.0322 48.7222 33.6795V40.7414C48.7222 41.3888 49.2518 41.9184 49.8991 41.9184Z" fill="#496EC5"/>
</g>
</g>
</g>
<defs>
<filter id="filter0_d_111_9620" x="0.765332" y="0.133115" width="91.8045" height="91.8042" filterUnits="userSpaceOnUse" color-interpolation-filters="sRGB">
<feFlood flood-opacity="0" result="BackgroundImageFix"/>
<feColorMatrix in="SourceAlpha" type="matrix" values="0 0 0 0 0 0 0 0 0 0 0 0 0 0 0 0 0 0 127 0" result="hardAlpha"/>
<feOffset dx="-0.882733" dy="8.82733"/>
<feGaussianBlur stdDeviation="8.82733"/>
<feComposite in2="hardAlpha" operator="out"/>
<feColorMatrix type="matrix" values="0 0 0 0 0.772549 0 0 0 0 0.815686 0 0 0 0 0.847059 0 0 0 0.2 0"/>
<feBlend mode="normal" in2="BackgroundImageFix" result="effect1_dropShadow_111_9620"/>
<feBlend mode="normal" in="SourceGraphic" in2="effect1_dropShadow_111_9620" result="shape"/>
</filter>
<clipPath id="clip0_111_9620">
<rect width="28.2475" height="28.2475" fill="white" transform="translate(33.4258 23.0845)"/>
</clipPath>
<clipPath id="clip1_111_9620">
<rect width="28.2475" height="28.2475" fill="white" transform="translate(33.4238 23.0854)"/>
</clipPath>
</defs>
</svg>
