<svg width="22" height="23" viewBox="0 0 22 23" fill="none" xmlns="http://www.w3.org/2000/svg">
<path d="M7.86106 12.5715L8.81819 13.5286L6.3321 15.7234L6.30304 15.7504C6.24397 15.8094 6.19712 15.8795 6.16515 15.9566C6.13318 16.0337 6.11673 16.1164 6.11673 16.1999C6.11673 16.2834 6.13318 16.3661 6.16515 16.4432C6.19712 16.5203 6.24397 16.5904 6.30304 16.6494C6.41952 16.7657 6.57442 16.8355 6.73868 16.8457C6.90295 16.8559 7.0653 16.8058 7.19527 16.7048L7.25881 16.6487L9.59889 14.3087L10.554 15.2644L8.21525 17.6045C7.86576 17.9542 7.40056 18.1641 6.90714 18.1949C6.41371 18.2256 5.92605 18.075 5.53586 17.7715L5.43447 17.6863L5.34659 17.6052C4.99014 17.2484 4.78266 16.7695 4.76622 16.2654C4.74978 15.7613 4.9256 15.2699 5.25805 14.8906L5.34727 14.7946L5.40337 14.7406L7.86106 12.5715ZM5.70281 4.48667C6.21727 4.0211 6.89103 3.77113 7.58466 3.7885C8.2783 3.80586 8.9387 4.08922 9.42923 4.57995L9.49682 4.65295L9.56171 4.73406C9.75346 4.99443 9.84553 5.3149 9.82122 5.63733C9.79691 5.95977 9.65784 6.26281 9.42923 6.49149L9.34812 6.5726L9.40557 6.70711C9.50439 6.95978 9.55154 7.2297 9.54423 7.50091C9.53691 7.77212 9.47528 8.03911 9.36299 8.28609L16.5414 14.6203L16.5982 14.6743C16.9707 15.047 17.18 15.5523 17.18 16.0793C17.18 16.6062 16.9707 17.1115 16.5982 17.4842C16.4099 17.6725 16.1863 17.8219 15.9403 17.9238C15.6942 18.0258 15.4305 18.0782 15.1642 18.0782C14.8979 18.0782 14.6341 18.0258 14.3881 17.9238C14.1421 17.8219 13.9185 17.6725 13.7302 17.4842L7.03913 10.7931L6.95261 10.8749L6.83094 10.9743C6.62912 11.1283 6.40001 11.2427 6.15569 11.3116L6.12932 11.3176L6.12324 11.3433L6.07931 11.4812C5.9813 11.753 5.82313 12.0085 5.60548 12.2268C5.47994 12.3524 5.33088 12.452 5.16683 12.52C5.00278 12.5879 4.82694 12.6229 4.64937 12.6229C4.47179 12.6229 4.29596 12.5879 4.13191 12.52C3.96785 12.452 3.8188 12.3524 3.69326 12.2268L1.78172 10.3152L1.71345 10.2416C1.48193 9.97285 1.3653 9.62392 1.38869 9.27C1.41208 8.91608 1.57363 8.58553 1.8385 8.34963L1.89731 8.29758L1.95747 8.24689L2.05548 8.17389L2.18255 8.0921C2.31098 8.01504 2.44684 7.95421 2.58676 7.9096L2.69085 7.87715L2.69761 7.85282L2.74155 7.7156C2.83888 7.4432 2.99705 7.1877 3.21538 6.96937L5.60548 4.57995L5.70281 4.48667ZM8.43899 9.27904C8.31167 9.18991 8.15892 9.14438 8.00358 9.14925C7.84825 9.15412 7.69865 9.20914 7.57717 9.30607L7.51701 9.35947L14.6866 16.5284L14.7454 16.5811C14.8648 16.6754 15.0124 16.7267 15.1645 16.7267C15.3166 16.7267 15.4643 16.6754 15.5836 16.5811L15.6424 16.5284L15.6917 16.473C15.788 16.3509 15.8361 16.1977 15.827 16.0425C15.8179 15.8873 15.7522 15.7408 15.6424 15.6308L8.5032 9.32905L8.43899 9.27904ZM14.9489 3.80533L15.0706 3.82764L15.635 3.95268C15.9195 4.01552 16.1829 4.15086 16.3997 4.34556C16.6165 4.54027 16.7793 4.78772 16.8722 5.06389C16.9651 5.34006 16.985 5.63557 16.93 5.92172C16.875 6.20786 16.747 6.47493 16.5583 6.69697L16.465 6.79769L15.4417 7.82037L15.4741 7.93663L15.5579 7.95826L16.6029 6.91395C16.8916 6.62504 17.2751 6.45045 17.6826 6.42249C18.0901 6.39453 18.4939 6.51509 18.8193 6.76186L18.9119 6.83757L18.993 6.91395C19.1801 7.10113 19.3207 7.32965 19.4033 7.58109L19.4398 7.70817L19.5905 8.328C19.6543 8.58921 19.6548 8.86188 19.5921 9.12333C19.5293 9.38479 19.405 9.62749 19.2296 9.83127L19.1437 9.9232L17.2653 11.8023C17.0699 11.9976 16.8295 12.142 16.5653 12.2228C16.3011 12.3036 16.0211 12.3185 15.7499 12.266L15.6329 12.2389L14.5278 11.9422L13.1665 10.7411L13.6106 10.297L15.9831 10.933C16.0306 10.9457 16.0803 10.9479 16.1288 10.9394C16.1772 10.9308 16.2232 10.9118 16.2636 10.8837L16.3096 10.8458L18.188 8.96675C18.2219 8.93273 18.2482 8.89186 18.2651 8.84687C18.282 8.80188 18.2891 8.7538 18.286 8.70584L18.2772 8.64839L18.1265 8.02856C18.1135 7.97531 18.0878 7.92602 18.0515 7.88493C18.0152 7.84384 17.9695 7.81219 17.9183 7.7927C17.8671 7.77321 17.8119 7.76646 17.7575 7.77305C17.7031 7.77964 17.6511 7.79936 17.606 7.83051L17.5587 7.86972L16.1041 9.325C16.0695 9.35958 16.0279 9.38624 15.982 9.40316C15.9361 9.42008 15.8872 9.42686 15.8384 9.42301L15.7796 9.41287L14.569 9.09856C14.5214 9.08617 14.4771 9.06354 14.4392 9.03225C14.4012 9.00096 14.3706 8.96177 14.3493 8.91741L14.3284 8.86199L13.981 7.61286C13.9676 7.56493 13.9649 7.51462 13.9732 7.46555C13.9815 7.41647 14.0005 7.36984 14.029 7.32897L14.0675 7.28301L15.5092 5.84192C15.5485 5.80272 15.5775 5.75445 15.5937 5.70138C15.6099 5.64831 15.6128 5.59207 15.6021 5.53763C15.5914 5.48318 15.5675 5.43221 15.5324 5.3892C15.4974 5.34619 15.4523 5.31248 15.4011 5.29103L15.343 5.27278L14.7779 5.14773C14.7338 5.13791 14.6881 5.13703 14.6437 5.14516C14.5992 5.15329 14.5568 5.17025 14.519 5.19505L14.4663 5.23831L12.5845 7.12011C12.5495 7.15497 12.5227 7.19705 12.5057 7.24341C12.4888 7.28977 12.4822 7.33928 12.4865 7.38845L12.4966 7.44658L13.1117 9.7407L12.5723 10.2159L11.551 9.31486L11.5888 9.28106L11.1907 7.79671C11.1248 7.55078 11.1153 7.29312 11.1629 7.04299C11.2105 6.79286 11.3141 6.55673 11.4658 6.35225L11.5469 6.25221L11.628 6.16434L13.5098 4.28254C13.696 4.09641 13.923 3.95634 14.1728 3.87349C14.4227 3.79064 14.6884 3.7673 14.9489 3.80533ZM8.39911 5.46677C8.14053 5.2441 7.8073 5.12745 7.4663 5.14024C7.1253 5.15303 6.80174 5.2943 6.56057 5.53572L4.17182 7.92447L4.11978 7.98395C4.01705 8.11387 3.96561 8.27698 3.9752 8.44233C3.98479 8.60767 4.05476 8.76374 4.17182 8.88091L3.69394 9.3588L3.63513 9.30607C3.5158 9.21177 3.36815 9.16048 3.21605 9.16048C3.06396 9.16048 2.91631 9.21177 2.79697 9.30607L2.73749 9.35947L4.64903 11.271L4.70175 11.2122C4.80439 11.0822 4.85572 10.919 4.846 10.7537C4.83628 10.5883 4.76619 10.4323 4.64903 10.3152L5.12759 9.83736L5.1864 9.8894C5.30573 9.9837 5.45338 10.035 5.60548 10.035C5.75757 10.035 5.90522 9.9837 6.02455 9.8894L6.08336 9.83736L7.9949 7.92514L8.04762 7.86566L8.09494 7.79807C8.17344 7.66868 8.20625 7.51669 8.18812 7.36643C8.16998 7.21618 8.10194 7.07636 7.9949 6.96937L7.51769 6.49149L8.47278 5.5364L8.39911 5.46677Z" fill="white"/>
</svg>
