<svg width="54" height="54" viewBox="0 0 54 54" fill="none" xmlns="http://www.w3.org/2000/svg">
<g clip-path="url(#clip0_111_9661)">
<g clip-path="url(#clip1_111_9661)">
<g clip-path="url(#clip2_111_9661)">
<path opacity="0.1" d="M26.9293 53.3092C41.5549 53.3092 53.4113 41.4528 53.4113 26.8272C53.4113 12.2016 41.5549 0.345215 26.9293 0.345215C12.3037 0.345215 0.447266 12.2016 0.447266 26.8272C0.447266 41.4528 12.3037 53.3092 26.9293 53.3092Z" fill="#435377"/>
<path d="M31.1923 23.712C31.1572 22.8416 31.0604 21.9764 31.0098 21.1077C30.9655 20.3516 30.6392 20.0331 29.8838 19.9916C29.7124 19.9824 29.5404 19.9651 29.369 19.9438C29.3496 19.9391 29.3299 19.9355 29.3101 19.9311C29.1425 19.8971 28.9727 19.8785 28.8004 19.8639C28.717 19.8512 28.6337 19.8394 28.5503 19.8276C28.4978 19.82 28.4512 19.8212 28.4085 19.8298C28.3828 19.8276 28.3576 19.8251 28.3318 19.8223C28.3302 19.835 28.3279 19.848 28.3258 19.8602C28.1567 20.955 27.9161 22.0034 27.5137 23.001C27.5117 22.9899 27.2415 20.9609 27.245 20.9498C27.2699 20.8928 27.2916 20.8389 27.317 20.785C27.3189 20.7796 27.3217 20.7739 27.3245 20.7685C27.3383 20.7388 27.3523 20.7054 27.366 20.6761C27.3731 20.665 27.3798 20.65 27.387 20.6389C27.408 20.5981 27.4316 20.5535 27.4316 20.5022C27.4316 20.4575 27.4147 20.4168 27.4007 20.3871L27.3937 20.3687C27.3937 20.361 27.3902 20.3576 27.3866 20.3501C27.3831 20.3395 27.3764 20.3244 27.3692 20.3134L27.3657 20.3099C27.3621 20.3023 27.3621 20.2988 27.3586 20.2949C27.3309 20.2542 27.2997 20.2468 27.2752 20.2427H27.2445C27.2343 20.2352 27.2235 20.2352 27.2133 20.2352C27.1646 20.2316 27.0402 20.2316 26.8845 20.2316C26.7288 20.2316 26.6076 20.2316 26.5593 20.2352C26.5522 20.2352 26.5383 20.2352 26.5281 20.2427H26.4939C26.4697 20.2463 26.4385 20.2538 26.411 20.2949C26.411 20.2984 26.4074 20.3025 26.4039 20.306L26.4004 20.3137C26.3933 20.3248 26.3866 20.3397 26.383 20.3503C26.3794 20.3579 26.3794 20.3614 26.3759 20.3688L26.3688 20.3838C26.3551 20.4173 26.3376 20.4581 26.3376 20.5027C26.3376 20.554 26.3618 20.5986 26.3826 20.6394C26.3896 20.6505 26.3963 20.6655 26.4035 20.6766C26.4173 20.7059 26.4309 20.7394 26.4447 20.769C26.4482 20.7766 26.4517 20.784 26.4545 20.7911C26.4781 20.8432 26.5001 20.8949 26.5244 20.9503C26.5279 20.9614 26.2778 22.8868 26.2565 22.998C26.1683 22.7799 26.0882 22.559 26.015 22.3358L25.7009 21.2017C25.5986 20.7632 25.5165 20.3159 25.4461 19.8607C25.4442 19.848 25.4417 19.835 25.44 19.8229C25.4143 19.8256 25.3891 19.8279 25.3633 19.8304C25.3207 19.8217 25.2741 19.8205 25.2216 19.8281C25.1382 19.8396 25.0549 19.8518 24.9715 19.8644C24.7988 19.8794 24.629 19.898 24.4618 19.9317C24.442 19.9361 24.4223 19.9396 24.4028 19.9443C24.2314 19.9657 24.0595 19.9826 23.8881 19.9921C23.1327 20.0339 22.806 20.3521 22.7621 21.1082C22.7114 21.977 22.6146 22.8421 22.5795 23.7125C22.5681 23.9858 22.576 24.256 22.5949 24.5252C22.6363 25.1067 22.7335 25.6814 22.8177 26.2647C22.8517 26.497 22.9247 26.685 23.0337 26.8352C23.1704 27.0236 23.3632 27.1536 23.6062 27.2422C23.7655 27.3001 23.9321 27.3323 24.1048 27.3733C24.1087 27.4007 24.1108 27.4319 24.1103 27.4673C24.109 27.7467 24.1778 28.8899 24.2715 30.2348C24.2715 30.2363 24.2715 30.2379 24.2718 30.2395C24.2726 30.2688 24.2734 30.298 24.2746 30.3272H24.2781C24.3861 31.8667 24.5247 33.6469 24.6267 34.6919C24.633 34.7595 24.6413 34.8279 24.6499 34.8914C24.6519 35.3648 24.7918 35.7226 25.0348 35.9355C25.0348 35.9378 25.0367 35.9402 25.0392 35.9402C25.1755 36.0591 25.3438 36.1327 25.5397 36.1559C25.7255 36.1789 25.9348 36.1556 26.1632 36.0824C26.4078 36.0034 26.6309 35.8447 26.8854 35.709C27.14 35.8445 27.363 36.0037 27.6077 36.0824C27.8361 36.1551 28.0454 36.1784 28.2312 36.1559C28.4271 36.1327 28.5959 36.0591 28.7317 35.9402C28.7336 35.9402 28.7361 35.938 28.7361 35.9355C28.9794 35.7226 29.119 35.3646 29.1209 34.8914C29.1296 34.8277 29.1379 34.7598 29.1442 34.6919C29.2462 33.6466 29.3848 31.8669 29.4927 30.3272H29.4962C29.4969 30.2979 29.4978 30.2686 29.4991 30.2395C29.4994 30.2379 29.4994 30.2363 29.4994 30.2348C29.5931 28.8899 29.6619 27.7462 29.6606 27.4673C29.6602 27.4317 29.6622 27.4005 29.6661 27.3733C29.8387 27.3323 30.0054 27.2998 30.1647 27.2422C30.3836 27.1624 30.562 27.0493 30.6952 26.8897C30.8274 26.731 30.9153 26.5259 30.9536 26.2647C31.0408 25.6599 31.1419 25.0642 31.1808 24.4596C31.1972 24.212 31.203 23.9631 31.1923 23.712Z" fill="#435377"/>
<path d="M25.1164 16.1307C25.1724 15.5263 25.4684 15.0819 26.0617 14.8439C26.3261 14.7388 26.6037 14.6926 26.8863 14.6895C27.1688 14.6926 27.4463 14.7388 27.7108 14.8439C28.3041 15.0813 28.5997 15.5261 28.6561 16.1307C28.6644 16.22 28.6578 16.3078 28.6578 16.397C28.6526 17.0252 28.5057 17.623 28.2496 18.1985C28.1208 18.4852 27.9307 18.7311 27.7045 18.9526C27.4697 19.1821 27.179 19.2923 26.8863 19.2808C26.5938 19.292 26.3028 19.1821 26.0681 18.9526C25.8417 18.7309 25.6518 18.4856 25.523 18.1985C25.2669 17.6228 25.1196 17.0251 25.1149 16.397C25.1149 16.3074 25.1081 16.22 25.1164 16.1307Z" fill="#435377"/>
<path d="M16.6772 36.036C16.6905 36.081 16.7368 36.1256 16.8276 36.1683C17.2116 36.3484 17.6423 36.45 18.0476 36.5736C19.4153 36.9916 20.8137 37.2847 22.2404 37.378C24.1395 37.502 26.0435 37.6628 27.9438 37.6383C30.657 37.6036 33.36 37.3523 35.9692 36.5152C36.26 36.4219 37.544 36.1849 36.9477 35.7366C36.8189 35.6397 36.6759 35.5627 36.5285 35.4972C35.9273 35.2298 35.2635 35.1685 34.629 35.0184C33.6764 34.7931 32.7069 34.645 31.7355 34.5313C31.6763 34.5242 31.617 34.5163 31.5578 34.5159C31.1738 34.5112 31.0449 34.3413 31.0642 33.9412C31.1025 33.1446 31.0761 33.1392 31.8705 33.2253C33.3868 33.3897 34.8905 33.6385 36.3242 34.1671C36.9646 34.4034 37.5945 34.7166 38.1577 35.0999C38.8736 35.587 38.8546 36.265 38.1791 36.8178C37.3845 37.468 36.4223 37.7674 35.4566 38.0281C33.7997 38.4758 32.1081 38.7476 30.3944 38.8266C28.717 38.904 27.0344 39.0051 25.3588 38.9495C22.6344 38.8587 19.9169 38.6134 17.3238 37.6762C16.7494 37.4688 16.1893 37.1686 15.6922 36.8137C14.9847 36.3084 15.0064 35.6428 15.6785 35.092C16.4639 34.4481 17.4097 34.1229 18.3685 33.9004C19.6741 33.5974 21.0048 33.4031 22.3255 33.1657C22.6013 33.116 22.7451 33.2056 22.7371 33.5225C22.7107 34.592 22.8865 34.4181 21.9524 34.5426C20.4311 34.7461 18.92 35.0024 17.4721 35.5379C17.3285 35.5904 16.6119 35.8171 16.6772 36.036Z" fill="#435377"/>
</g>
</g>
</g>
<defs>
<clipPath id="clip0_111_9661">
<rect width="52.964" height="52.964" fill="white" transform="translate(0.447266 0.345215)"/>
</clipPath>
<clipPath id="clip1_111_9661">
<rect width="52.964" height="52.964" fill="white" transform="translate(0.447266 0.345215)"/>
</clipPath>
<clipPath id="clip2_111_9661">
<rect width="52.964" height="52.964" fill="white" transform="translate(0.447266 0.345215)"/>
</clipPath>
</defs>
</svg>
