<svg width="33" height="33" viewBox="0 0 33 33" fill="none" xmlns="http://www.w3.org/2000/svg">
<path d="M20.3749 16.714C20.3749 17.4956 20.1431 18.2597 19.7089 18.9096C19.2747 19.5595 18.6575 20.066 17.9353 20.3651C17.2132 20.6642 16.4186 20.7425 15.652 20.59C14.8854 20.4375 14.1813 20.0611 13.6286 19.5084C13.0759 18.9558 12.6995 18.2516 12.547 17.485C12.3945 16.7184 12.4728 15.9238 12.7719 15.2017C13.071 14.4796 13.5775 13.8624 14.2274 13.4281C14.8773 12.9939 15.6414 12.7621 16.423 12.7621C17.4701 12.7654 18.4734 13.1828 19.2138 13.9232C19.9543 14.6636 20.3717 15.6669 20.3749 16.714ZM28.7728 11.2801V22.1479C28.7728 23.9821 28.0441 25.7412 26.7472 27.0382C25.4502 28.3351 23.6911 29.0638 21.8569 29.0638H10.9891C9.15491 29.0638 7.39583 28.3351 6.09885 27.0382C4.80188 25.7412 4.07324 23.9821 4.07324 22.1479V11.2801C4.07324 9.44592 4.80188 7.68684 6.09885 6.38987C7.39583 5.09289 9.15491 4.36426 10.9891 4.36426H21.8569C23.6911 4.36426 25.4502 5.09289 26.7472 6.38987C28.0441 7.68684 28.7728 9.44592 28.7728 11.2801ZM22.3509 16.714C22.3509 15.5416 22.0032 14.3955 21.3519 13.4207C20.7005 12.4458 19.7747 11.686 18.6915 11.2374C17.6083 10.7887 16.4164 10.6713 15.2665 10.9C14.1166 11.1288 13.0604 11.6933 12.2314 12.5224C11.4023 13.3514 10.8377 14.4076 10.609 15.5575C10.3803 16.7074 10.4977 17.8993 10.9464 18.9825C11.395 20.0657 12.1548 20.9915 13.1296 21.6429C14.1045 22.2942 15.2506 22.6419 16.423 22.6419C17.9952 22.6419 19.503 22.0174 20.6147 20.9057C21.7263 19.794 22.3509 18.2862 22.3509 16.714ZM24.3268 10.2921C24.3268 9.99904 24.2399 9.71251 24.0771 9.4688C23.9142 9.22509 23.6828 9.03515 23.412 8.92298C23.1412 8.81081 22.8432 8.78146 22.5558 8.83865C22.2683 8.89583 22.0042 9.03697 21.797 9.24423C21.5897 9.45149 21.4486 9.71555 21.3914 10.003C21.3342 10.2905 21.3635 10.5885 21.4757 10.8593C21.5879 11.1301 21.7778 11.3615 22.0215 11.5244C22.2652 11.6872 22.5518 11.7741 22.8449 11.7741C23.2379 11.7741 23.6149 11.618 23.8928 11.3401C24.1707 11.0621 24.3268 10.6852 24.3268 10.2921Z" fill="white"/>
</svg>
