<svg width="22" height="22" viewBox="0 0 22 22" fill="none" xmlns="http://www.w3.org/2000/svg">
<g clip-path="url(#clip0_111_10055)">
<g clip-path="url(#clip1_111_10055)">
<path d="M17.4304 18.2244C15.6745 18.2244 13.963 17.833 12.296 17.0501C10.6289 16.2671 9.15211 15.2326 7.86559 13.9467C6.57907 12.6608 5.54463 11.184 4.76225 9.5163C3.97989 7.84866 3.58844 6.1372 3.58789 4.38192C3.58789 4.13691 3.66956 3.93275 3.83289 3.76941C3.99623 3.60608 4.20039 3.52441 4.44539 3.52441H7.75289C7.94345 3.52441 8.11359 3.58566 8.26331 3.70816C8.41303 3.83067 8.5015 3.98719 8.52873 4.17775L9.05956 7.03608C9.08678 7.22664 9.08324 7.40031 9.04894 7.55712C9.01464 7.71391 8.93652 7.85329 8.81456 7.97525L6.85456 9.97608C7.42623 10.9561 8.14081 11.8749 8.99831 12.7323C9.8558 13.5898 10.8018 14.3316 11.8363 14.9578L13.7554 13.0386C13.8779 12.916 14.0379 12.8244 14.2356 12.7634C14.4332 12.7024 14.6271 12.6852 14.817 12.7119L17.6346 13.2835C17.8252 13.3244 17.9816 13.4165 18.1041 13.5596C18.2267 13.7028 18.2879 13.8694 18.2879 14.0594V17.3669C18.2879 17.6119 18.2062 17.8161 18.0429 17.9794C17.8795 18.1427 17.6754 18.2244 17.4304 18.2244Z" fill="#424242"/>
</g>
</g>
<defs>
<clipPath id="clip0_111_10055">
<rect width="21" height="21" fill="white" transform="translate(0.4375 0.374023)"/>
</clipPath>
<clipPath id="clip1_111_10055">
<rect width="21" height="21" fill="white" transform="translate(0.4375 0.374023)"/>
</clipPath>
</defs>
</svg>
