<svg width="18" height="19" viewBox="0 0 18 19" fill="none" xmlns="http://www.w3.org/2000/svg">
<path d="M15.0304 12.6685L12.9095 12.436C12.4001 12.3799 11.899 12.5482 11.54 12.893L10.0036 14.3679C7.64047 13.2136 5.70319 11.3619 4.50077 9.08524L6.04553 7.60228C6.40459 7.25759 6.58 6.7766 6.52155 6.28761L6.27936 4.26752C6.17916 3.45788 5.4694 2.84863 4.61768 2.84863H3.17311C2.22953 2.84863 1.44461 3.60211 1.50307 4.50795C1.94563 11.3537 7.6488 16.8209 14.7716 17.2457C15.7151 17.3018 16.5 16.5483 16.5 15.6424V14.2556C16.5083 13.446 15.8738 12.7647 15.0304 12.6685Z" fill="#BBBCBD"/>
</svg>
