<svg width="31" height="31" viewBox="0 0 31 31" fill="none" xmlns="http://www.w3.org/2000/svg">
<g clip-path="url(#clip0_1531_3627)">
<path d="M23.8786 0.591919H7.98738C4.11541 0.591919 0.976562 3.73077 0.976562 7.60273V23.4939C0.976562 27.3659 4.11541 30.5047 7.98738 30.5047H23.8786C27.7505 30.5047 30.8894 27.3659 30.8894 23.4939V7.60273C30.8894 3.73077 27.7505 0.591919 23.8786 0.591919Z" fill="#F4F2ED"/>
<path d="M15.9328 17.763C17.1368 17.763 18.1127 16.787 18.1127 15.5831C18.1127 14.3792 17.1368 13.4032 15.9328 13.4032C14.729 13.4032 13.7529 14.3792 13.7529 15.5831C13.7529 16.787 14.729 17.763 15.9328 17.763Z" fill="#00D8FF"/>
<path fill-rule="evenodd" clip-rule="evenodd" d="M15.9339 11.1504C18.8607 11.1504 21.5796 11.5704 23.6297 12.2761C26.0997 13.1265 27.6184 14.4154 27.6184 15.5826C27.6184 16.7989 26.009 18.1682 23.3564 19.047C21.3511 19.7114 18.7122 20.0582 15.9339 20.0582C13.0855 20.0582 10.388 19.7326 8.36009 19.0396C5.79438 18.1627 4.24902 16.7757 4.24902 15.5826C4.24902 14.4249 5.69905 13.1459 8.13436 12.2969C10.1921 11.5795 12.9781 11.1504 15.9335 11.1504H15.9339Z" stroke="#00D8FF" stroke-width="1.04122"/>
<path fill-rule="evenodd" clip-rule="evenodd" d="M12.0753 13.3795C13.5376 10.8442 15.2595 8.69863 16.8952 7.2753C18.8657 5.56039 20.7411 4.88878 21.752 5.47179C22.8056 6.07939 23.1878 8.15778 22.624 10.8945C22.1981 12.9636 21.1799 15.4228 19.7919 17.8296C18.3688 20.2972 16.7394 22.4712 15.1261 23.8813C13.0847 25.6658 11.111 26.3116 10.0775 25.7156C9.07463 25.1377 8.69111 23.2423 9.17223 20.7085C9.57873 18.5675 10.5989 15.9397 12.0749 13.3795H12.0753Z" stroke="#00D8FF" stroke-width="1.04122"/>
<path fill-rule="evenodd" clip-rule="evenodd" d="M12.0787 17.8357C10.6124 15.3031 9.61411 12.7393 9.19739 10.6115C8.69578 8.04776 9.05043 6.08761 10.0605 5.5029C11.1131 4.89352 13.1046 5.60041 15.1941 7.45567C16.7739 8.85833 18.396 10.9683 19.788 13.3727C21.2152 15.838 22.2848 18.3356 22.7009 20.4374C23.2274 23.0973 22.8013 25.1296 21.7687 25.7273C20.7669 26.3073 18.9334 25.6933 16.9785 24.0109C15.3267 22.5896 13.5595 20.3935 12.0787 17.8357Z" stroke="#00D8FF" stroke-width="1.04122"/>
</g>
<defs>
<clipPath id="clip0_1531_3627">
<rect width="29.9128" height="29.9128" fill="white" transform="translate(0.976562 0.591309)"/>
</clipPath>
</defs>
</svg>
