<svg width="31" height="31" viewBox="0 0 31 31" fill="none" xmlns="http://www.w3.org/2000/svg">
<g clip-path="url(#clip0_1531_3634)">
<path d="M23.7926 0.591919H7.90144C4.02947 0.591919 0.890625 3.73077 0.890625 7.60273V23.4939C0.890625 27.3659 4.02947 30.5047 7.90144 30.5047H23.7926C27.6646 30.5047 30.8034 27.3659 30.8034 23.4939V7.60273C30.8034 3.73077 27.6646 0.591919 23.7926 0.591919Z" fill="#764ABC"/>
<path d="M20.3546 19.9414C21.2171 19.8521 21.8713 19.1086 21.8415 18.2165C21.8118 17.3244 21.0683 16.6107 20.1762 16.6107H20.1167C19.1948 16.6404 18.4811 17.4135 18.5108 18.3355C18.5406 18.7816 18.719 19.1681 18.9866 19.4358C17.9755 21.4283 16.4292 22.8855 14.1095 24.1048C12.5334 24.9374 10.8978 25.2348 9.26215 25.0267C7.92392 24.8483 6.88308 24.2534 6.22883 23.2721C5.27719 21.8149 5.18798 20.2388 5.99091 18.6626C6.55595 17.5325 7.4481 16.6998 8.01314 16.2835C7.89419 15.897 7.71575 15.2426 7.62654 14.7668C3.31445 17.8895 3.76053 22.1123 5.06902 24.1048C6.05039 25.5917 8.04287 26.5136 10.2435 26.5136C10.8383 26.5136 11.4331 26.4541 12.0278 26.3054C15.8344 25.562 18.719 23.3018 20.3546 19.9414Z" fill="white"/>
<path d="M25.5884 16.2539C23.3284 13.6071 19.9976 12.15 16.1911 12.15H15.7153C15.4476 11.6147 14.8825 11.2578 14.2581 11.2578H14.1986C13.2767 11.2876 12.563 12.0608 12.5927 12.9827C12.6225 13.8748 13.3659 14.5885 14.2581 14.5885H14.3176C14.9718 14.5588 15.5369 14.1425 15.7748 13.5774H16.3101C18.5701 13.5774 20.7113 14.2317 22.6443 15.5104C24.1312 16.4918 25.2019 17.7706 25.7966 19.317C26.3022 20.5659 26.2724 21.7852 25.7372 22.8261C24.9045 24.4022 23.5068 25.2647 21.6629 25.2647C20.4734 25.2647 19.3434 24.9078 18.7485 24.6402C18.4215 24.9375 17.8267 25.4133 17.4104 25.7107C18.6891 26.3055 19.9976 26.6326 21.2466 26.6326C24.1015 26.6326 26.213 25.0565 27.0159 23.4803C27.8784 21.7555 27.8189 18.7817 25.5884 16.2539Z" fill="white"/>
<path d="M10.4814 20.4473C10.5112 21.3394 11.2546 22.0531 12.1468 22.0531H12.2063C13.1281 22.0233 13.8419 21.2501 13.8121 20.3282C13.7824 19.4361 13.0389 18.7224 12.1468 18.7224H12.0873C12.0278 18.7224 11.9386 18.7224 11.8791 18.7522C10.6598 16.7299 10.1543 14.5292 10.3327 12.1502C10.4517 10.3658 11.0464 8.81943 12.0873 7.54069C12.9497 6.44036 14.6151 5.90506 15.7451 5.87532C18.8974 5.81585 20.2357 9.74133 20.3248 11.3175C20.7115 11.4067 21.3657 11.6149 21.8118 11.7636C21.455 6.94591 18.4811 4.44788 15.6262 4.44788C12.9497 4.44788 10.4814 6.38087 9.50004 9.23578C8.13207 13.0423 9.02423 16.7001 10.6896 19.5848C10.5409 19.7929 10.4517 20.1201 10.4814 20.4473Z" fill="white"/>
</g>
<defs>
<clipPath id="clip0_1531_3634">
<rect width="29.9128" height="29.9128" fill="white" transform="translate(0.890625 0.591309)"/>
</clipPath>
</defs>
</svg>
