<svg width="53" height="54" viewBox="0 0 53 54" fill="none" xmlns="http://www.w3.org/2000/svg">
<g clip-path="url(#clip0_111_9650)">
<g clip-path="url(#clip1_111_9650)">
<g clip-path="url(#clip2_111_9650)">
<path opacity="0.1" d="M26.7426 52.9413C41.1659 52.9413 52.8583 41.2489 52.8583 26.8256C52.8583 12.4023 41.1659 0.709961 26.7426 0.709961C12.3193 0.709961 0.626953 12.4023 0.626953 26.8256C0.626953 41.2489 12.3193 52.9413 26.7426 52.9413Z" fill="#82455E"/>
<path d="M26.7439 18.4845V15.4486C26.7439 14.9589 26.1563 14.7195 25.819 15.0677L21.684 19.1918C21.4663 19.4095 21.4663 19.7468 21.684 19.9644L25.8081 24.0885C26.1563 24.4258 26.7439 24.1864 26.7439 23.6968V20.6608C30.8027 20.6608 34.0128 24.3823 33.1205 28.5935C32.609 31.0636 30.6068 33.0549 28.1476 33.5663C24.2629 34.3824 20.8026 31.7165 20.2803 28.1147C20.2041 27.5924 19.7471 27.1897 19.2139 27.1897C18.561 27.1897 18.0387 27.7665 18.1257 28.4194C18.8004 33.1964 23.3489 36.7328 28.4958 35.7317C31.8909 35.068 34.6221 32.3367 35.2859 28.9417C36.3632 23.3595 32.1194 18.4845 26.7439 18.4845Z" fill="#82455E"/>
</g>
</g>
</g>
<defs>
<clipPath id="clip0_111_9650">
<rect width="52.2313" height="52.964" fill="white" transform="translate(0.626953 0.345215)"/>
</clipPath>
<clipPath id="clip1_111_9650">
<rect width="52.2313" height="52.964" fill="white" transform="translate(0.626953 0.345215)"/>
</clipPath>
<clipPath id="clip2_111_9650">
<rect width="52.2313" height="52.9568" fill="white" transform="translate(0.626953 0.348633)"/>
</clipPath>
</defs>
</svg>
