<svg width="30" height="31" viewBox="0 0 30 31" fill="none" xmlns="http://www.w3.org/2000/svg">
<g clip-path="url(#clip0_1531_3623)">
<path d="M22.9645 0.591919H7.07332C3.20135 0.591919 0.0625 3.73077 0.0625 7.60273V23.4939C0.0625 27.3659 3.20135 30.5047 7.07332 30.5047H22.9645C26.8365 30.5047 29.9753 27.3659 29.9753 23.4939V7.60273C29.9753 3.73077 26.8365 0.591919 22.9645 0.591919Z" fill="#F4F2ED"/>
<path fill-rule="evenodd" clip-rule="evenodd" d="M9.76104 13.4453C10.462 10.641 12.2149 9.23877 15.0192 9.23877C19.2256 9.23877 19.7515 12.3936 21.8547 12.9194C23.257 13.2701 24.4838 12.7443 25.5354 11.342C24.8344 14.1462 23.0815 15.5485 20.2773 15.5485C16.0708 15.5485 15.545 12.3936 13.4417 11.8678C12.0394 11.5172 10.8127 12.043 9.76104 13.4453ZM4.50293 19.755C5.20391 16.9508 6.95682 15.5485 9.76104 15.5485C13.9675 15.5485 14.4933 18.7034 16.5966 19.2292C17.9989 19.5798 19.2256 19.054 20.2773 17.6517C19.5763 20.456 17.8234 21.8582 15.0192 21.8582C10.8127 21.8582 10.2869 18.7034 8.18361 18.1776C6.78134 17.8269 5.55455 18.3527 4.50293 19.755Z" fill="url(#paint0_linear_1531_3623)"/>
</g>
<defs>
<linearGradient id="paint0_linear_1531_3623" x1="10.17" y1="9.23877" x2="19.1672" y2="22.2672" gradientUnits="userSpaceOnUse">
<stop stop-color="#32B1C1"/>
<stop offset="1" stop-color="#14C6B7"/>
</linearGradient>
<clipPath id="clip0_1531_3623">
<rect width="29.9128" height="29.9128" fill="white" transform="translate(0.0625 0.591309)"/>
</clipPath>
</defs>
</svg>
