<svg width="6" height="9" viewBox="0 0 6 9" fill="none" xmlns="http://www.w3.org/2000/svg">
<path d="M1.63435 0.898392L4.96977 4.23381C5.09084 4.35487 5.15137 4.5025 5.15137 4.67668C5.15137 4.85086 5.09084 4.99848 4.96977 5.11955L1.63435 8.45497C1.51329 8.57726 1.36567 8.63841 1.19149 8.63841C1.0173 8.63841 0.869679 8.57726 0.748616 8.45497C0.626317 8.3339 0.565168 8.18628 0.565168 8.0121C0.565168 7.83791 0.626317 7.69029 0.748616 7.56923L3.64116 4.67668L0.748616 1.78413C0.626318 1.66307 0.565168 1.51544 0.565168 1.34126C0.565168 1.16708 0.626318 1.01945 0.748616 0.898392C0.86968 0.777328 1.0173 0.716797 1.19149 0.716797C1.36567 0.716797 1.51329 0.777328 1.63435 0.898392Z" fill="white"/>
</svg>
