<svg width="335" height="157" viewBox="0 0 335 157" fill="none" xmlns="http://www.w3.org/2000/svg">
<g clip-path="url(#clip0_111_9544)">
<g clip-path="url(#clip1_111_9544)">
<g clip-path="url(#clip2_111_9544)">
<path d="M320.537 9.77584C319.498 6.01683 321.702 2.12668 325.461 1.08694C329.221 0.0472071 333.111 2.25162 334.15 6.01063C335.19 9.76966 332.986 13.6598 329.227 14.6996C325.467 15.7392 321.577 13.5349 320.537 9.77584ZM1.36132 150.963C1.50027 150.245 2.19493 149.776 2.91289 149.915C3.63085 150.054 4.10023 150.749 3.96128 151.466L1.36132 150.963ZM6.23811 141.379C6.05676 142.087 5.33543 142.514 4.627 142.334C3.91856 142.152 3.49129 141.43 3.67264 140.723L6.23811 141.379ZM6.52888 130.702C6.7483 130.004 7.49168 129.617 8.18926 129.836C8.88685 130.056 9.27451 130.799 9.05505 131.496L6.52888 130.702ZM12.4243 121.745C12.1658 122.429 11.4017 122.774 10.7177 122.515C10.0336 122.258 9.68852 121.493 9.94698 120.809L12.4243 121.745ZM13.9388 111.139C14.2387 110.471 15.0226 110.174 15.6895 110.474C16.3564 110.774 16.6539 111.558 16.3539 112.224L13.9388 111.139ZM20.8848 102.995C20.5398 103.64 19.7374 103.883 19.0926 103.537C18.4479 103.192 18.205 102.39 18.55 101.745L20.8848 102.995ZM23.8415 92.7063C24.2358 92.0901 25.0547 91.91 25.6706 92.3046C26.2865 92.6992 26.466 93.5175 26.0717 94.1336L23.8415 92.7063ZM31.9725 85.7488C31.5247 86.3269 30.693 86.4326 30.1149 85.9848C29.5368 85.537 29.4311 84.7053 29.8789 84.1272L31.9725 85.7488ZM36.722 76.1543C37.2268 75.6251 38.065 75.6053 38.5942 76.1102C39.1233 76.6149 39.143 77.453 38.6383 77.9822L36.722 76.1543ZM46.0994 71.0059C45.5365 71.4727 44.7018 71.3949 44.235 70.8319C43.7681 70.269 43.8461 69.4343 44.409 68.9674L46.0994 71.0059ZM52.9345 62.77C53.5529 62.3797 54.3706 62.5646 54.7609 63.1831C55.1512 63.8015 54.9663 64.6193 54.3479 65.0095L52.9345 62.77ZM63.3155 60.1752C62.6493 60.4767 61.8649 60.1809 61.5634 59.5147C61.262 58.8484 61.5577 58.0639 62.224 57.7625L63.3155 60.1752ZM72.1038 54.1029C72.8056 53.8974 73.5411 54.2997 73.7466 55.0015C73.9521 55.7033 73.5498 56.4389 72.848 56.6444L72.1038 54.1029ZM82.7985 54.4549C82.0754 54.564 81.4008 54.0662 81.2917 53.3432C81.1826 52.62 81.6803 51.9454 82.4034 51.8363L82.7985 54.4549ZM92.8555 50.8186C93.5847 50.7697 94.2158 51.3216 94.2644 52.0513C94.3138 52.7808 93.7621 53.412 93.0321 53.4609L92.8555 50.8186ZM103.327 52.9556C102.596 52.9788 101.986 52.4051 101.962 51.6742C101.939 50.9433 102.513 50.332 103.244 50.3088L103.327 52.9556ZM113.636 50.1457C114.368 50.1455 114.961 50.7382 114.961 51.4696C114.961 52.2008 114.369 52.7937 113.637 52.7939L113.636 50.1457ZM123.956 52.9377C123.225 52.9177 122.649 52.3088 122.669 51.5778C122.688 50.8468 123.297 50.2704 124.028 50.2905L123.956 52.9377ZM134.4 50.7009C135.131 50.7381 135.693 51.3604 135.656 52.0907C135.619 52.8211 134.996 53.383 134.265 53.3457L134.4 50.7009ZM144.582 53.9749C143.852 53.9237 143.302 53.2908 143.353 52.5613C143.405 51.8318 144.037 51.282 144.767 51.3333L144.582 53.9749ZM155.108 52.1393C155.836 52.2011 156.377 52.8419 156.315 53.5705C156.253 54.2992 155.613 54.8398 154.883 54.778L155.108 52.1393ZM165.183 55.7056C164.455 55.6368 163.921 54.9909 163.989 54.2629C164.058 53.5349 164.704 53.0004 165.432 53.0691L165.183 55.7056ZM175.748 54.0688C176.476 54.1403 177.007 54.7884 176.936 55.5162C176.864 56.2439 176.216 56.7758 175.489 56.7042L175.748 54.0688ZM185.795 57.7129C185.067 57.6429 184.534 56.996 184.604 56.2681C184.674 55.5402 185.321 55.0068 186.048 55.0769L185.795 57.7129ZM196.34 56.0264C197.068 56.0898 197.608 56.7318 197.544 57.4603C197.481 58.1888 196.839 58.728 196.111 58.6646L196.34 56.0264ZM206.462 59.4828C205.733 59.4321 205.182 58.7995 205.234 58.07C205.284 57.3405 205.917 56.7903 206.646 56.8411L206.462 59.4828ZM216.952 57.4276C217.682 57.4587 218.25 58.0762 218.218 58.8067C218.187 59.5374 217.57 60.1045 216.839 60.0735L216.952 57.4276ZM227.242 60.3249C226.511 60.3221 225.921 59.7272 225.923 58.9958C225.926 58.2646 226.521 57.6739 227.252 57.6767L227.242 60.3249ZM237.533 57.4556C238.263 57.4195 238.884 57.9824 238.921 58.7128C238.957 59.4432 238.394 60.0645 237.664 60.1006L237.533 57.4556ZM248.072 59.2348C247.346 59.3222 246.687 58.8044 246.599 58.0784C246.512 57.3523 247.029 56.6929 247.756 56.6056L248.072 59.2348ZM257.848 54.9432C258.563 54.7905 259.267 55.2464 259.419 55.9616C259.572 56.6768 259.116 57.3803 258.401 57.533L257.848 54.9432ZM268.529 54.787C267.835 55.0189 267.085 54.6447 266.854 53.9512C266.622 53.2576 266.996 52.5074 267.689 52.2755L268.529 54.787ZM277.92 48.183C278.587 47.8848 279.37 48.1842 279.668 48.8518C279.967 49.5195 279.668 50.3026 279 50.6009L277.92 48.183ZM289.77 45.3041C289.127 45.6522 288.324 45.4129 287.976 44.7698C287.628 44.1266 287.867 43.3231 288.51 42.975L289.77 45.3041ZM298.628 36.9118C299.237 36.507 300.059 36.6727 300.464 37.2818C300.868 37.8909 300.703 38.7127 300.094 39.1175L298.628 36.9118ZM309.76 31.9272C309.199 32.3962 308.364 32.3217 307.895 31.7607C307.426 31.1996 307.5 30.3645 308.062 29.8955L309.76 31.9272ZM316.53 21.8085C317.021 21.2667 317.858 21.2257 318.4 21.7168C318.942 22.208 318.983 23.0454 318.492 23.5872L316.53 21.8085ZM325.816 13.8928C325.437 14.5188 324.623 14.7197 323.998 14.3416C323.372 13.9634 323.171 13.1495 323.549 12.5235L325.816 13.8928ZM1.79073 156.275C0.478495 156.098 0.478505 156.098 0.478516 156.098C0.478506 156.098 0.47852 156.098 0.478516 156.098C0.478535 156.098 0.478584 156.098 0.47861 156.097C0.478664 156.097 0.478733 156.096 0.478818 156.096C0.478986 156.094 0.479217 156.093 0.47951 156.091C0.480094 156.087 0.480928 156.08 0.482013 156.072C0.484185 156.057 0.487363 156.034 0.491581 156.004C0.500016 155.944 0.512605 155.857 0.529585 155.742C0.563545 155.513 0.615076 155.175 0.686089 154.737C0.828109 153.86 1.04809 152.582 1.36132 150.963L3.96128 151.466C3.65351 153.057 3.4382 154.309 3.30018 155.161C3.23118 155.586 3.1815 155.912 3.14926 156.13C3.13314 156.238 3.12139 156.32 3.11374 156.374C3.10993 156.402 3.10714 156.422 3.10535 156.434C3.10445 156.441 3.10381 156.446 3.10341 156.448C3.10322 156.45 3.10308 156.451 3.10301 156.452C3.10302 156.452 3.10295 156.452 1.79073 156.275ZM3.67264 140.723C4.44956 137.688 5.39306 134.313 6.52888 130.702L9.05505 131.496C7.9349 135.057 7.00433 138.386 6.23811 141.379L3.67264 140.723ZM9.94698 120.809C11.136 117.662 12.4622 114.421 13.9388 111.139L16.3539 112.224C14.9014 115.453 13.5958 118.645 12.4243 121.745L9.94698 120.809ZM18.55 101.745C20.1733 98.7124 21.9337 95.6855 23.8415 92.7063L26.0717 94.1336C24.2041 97.0511 22.4783 100.018 20.8848 102.995L18.55 101.745ZM29.8789 84.1272C32.0093 81.3767 34.2873 78.7067 36.722 76.1543L38.6383 77.9822C36.2706 80.4642 34.0515 83.0649 31.9725 85.7488L29.8789 84.1272ZM44.409 68.9674C47.0905 66.7438 49.9294 64.6665 52.9345 62.77L54.3479 65.0095C51.4445 66.8418 48.6977 68.8514 46.0994 71.0059L44.409 68.9674ZM62.224 57.7625C65.3626 56.3424 68.6537 55.1131 72.1038 54.1029L72.848 56.6444C69.5184 57.6193 66.3433 58.8053 63.3155 60.1752L62.224 57.7625ZM82.4034 51.8363C84.1224 51.577 85.8755 51.3691 87.6632 51.2154L87.8901 53.8538C86.1581 54.0027 84.4612 54.204 82.7985 54.4549L82.4034 51.8363ZM87.6632 51.2154C89.3979 51.0662 91.1289 50.9343 92.8555 50.8186L93.0321 53.4609C91.3213 53.5755 89.6079 53.7061 87.8901 53.8538L87.6632 51.2154ZM103.244 50.3088C106.727 50.1981 110.192 50.1465 113.636 50.1457L113.637 52.7939C110.218 52.7947 106.782 52.8459 103.327 52.9556L103.244 50.3088ZM124.028 50.2905C127.509 50.386 130.968 50.5258 134.4 50.7009L134.265 53.3457C130.851 53.1715 127.414 53.0326 123.956 52.9377L124.028 50.2905ZM144.767 51.3333C148.242 51.5774 151.69 51.8493 155.108 52.1393L154.883 54.778C151.476 54.4889 148.041 54.218 144.582 53.9749L144.767 51.3333ZM165.432 53.0691C168.904 53.3969 172.344 53.7337 175.748 54.0688L175.489 56.7042C172.085 56.3693 168.65 56.0328 165.183 55.7056L165.432 53.0691ZM186.048 55.0769C189.521 55.411 192.951 55.7316 196.34 56.0264L196.111 58.6646C192.711 58.3688 189.271 58.0475 185.795 57.7129L186.048 55.0769ZM206.646 56.8411C210.134 57.0837 213.569 57.2839 216.952 57.4276L216.839 60.0735C213.429 59.9285 209.969 59.7269 206.462 59.4828L206.646 56.8411ZM227.252 57.6767C230.745 57.6896 234.172 57.6216 237.533 57.4556L237.664 60.1006C234.251 60.2692 230.776 60.338 227.242 60.3249L227.252 57.6767ZM247.756 56.6056C251.204 56.1907 254.569 55.6434 257.848 54.9432L258.401 57.533C255.036 58.2516 251.591 58.8114 248.072 59.2348L247.756 56.6056ZM267.689 52.2755C269.305 51.7352 270.897 51.1476 272.464 50.5098L273.462 52.9627C271.841 53.6224 270.197 54.2294 268.529 54.787L267.689 52.2755ZM272.464 50.5098C274.346 49.7439 276.164 48.9676 277.92 48.183L279 50.6009C277.216 51.3977 275.371 52.1857 273.462 52.9627L272.464 50.5098ZM288.51 42.975C292.226 40.9641 295.589 38.9319 298.628 36.9118L300.094 39.1175C296.986 41.1826 293.556 43.2559 289.77 45.3041L288.51 42.975ZM308.062 29.8955C311.457 27.0568 314.247 24.3266 316.53 21.8085L318.492 23.5872C316.127 26.1954 313.249 29.0102 309.76 31.9272L308.062 29.8955ZM323.549 12.5235C324.52 10.9166 325.161 9.63381 325.556 8.7635C325.754 8.3283 325.89 7.99618 325.975 7.77817C326.017 7.66916 326.047 7.58868 326.066 7.53811C326.075 7.51281 326.081 7.49501 326.084 7.48485C326.086 7.47977 326.087 7.4766 326.088 7.47536C326.088 7.47474 326.088 7.47501 326.088 7.47536C326.088 7.47554 326.088 7.47543 326.087 7.47586C326.087 7.47559 326.087 7.47607 326.087 7.47586C326.087 7.476 326.087 7.47694 326.087 7.47701C326.087 7.47724 326.087 7.47749 327.344 7.89324C328.601 8.309 328.601 8.30925 328.601 8.30952C328.601 8.30932 328.601 8.30961 328.601 8.30952C328.601 8.30991 328.6 8.3109 328.6 8.31135C328.6 8.31226 328.599 8.3133 328.599 8.31445C328.598 8.31676 328.597 8.31956 328.597 8.32285C328.594 8.32941 328.591 8.33793 328.588 8.34837C328.581 8.36925 328.57 8.39784 328.558 8.43393C328.531 8.50614 328.493 8.60844 328.443 8.73943C328.341 9.00141 328.186 9.37817 327.968 9.85847C327.531 10.8191 326.842 12.1938 325.816 13.8928L323.549 12.5235Z" fill="#85B6FF"/>
</g>
</g>
</g>
<defs>
<clipPath id="clip0_111_9544">
<rect width="334.556" height="156.244" fill="white" transform="translate(0.287109 0.39209)"/>
</clipPath>
<clipPath id="clip1_111_9544">
<rect width="334.556" height="156.244" fill="white" transform="translate(0.289062 0.391357)"/>
</clipPath>
<clipPath id="clip2_111_9544">
<rect width="334.556" height="156.244" fill="white" transform="translate(0.291016 0.390625)"/>
</clipPath>
</defs>
</svg>
