<svg width="6" height="9" viewBox="0 0 6 9" fill="none" xmlns="http://www.w3.org/2000/svg">
<path d="M1.63338 0.953079L4.9688 4.2885C5.08986 4.40956 5.15039 4.55718 5.15039 4.73137C5.15039 4.90555 5.08986 5.05317 4.9688 5.17424L1.63338 8.50965C1.51231 8.63195 1.36469 8.6931 1.19051 8.6931C1.01633 8.6931 0.868703 8.63195 0.747639 8.50965C0.625341 8.38859 0.564191 8.24097 0.564191 8.06678C0.564191 7.8926 0.625341 7.74498 0.747639 7.62391L3.64019 4.73137L0.74764 1.83882C0.625341 1.71775 0.564191 1.57013 0.564191 1.39595C0.564191 1.22177 0.625341 1.07414 0.74764 0.953079C0.868703 0.832016 1.01633 0.771484 1.19051 0.771484C1.36469 0.771484 1.51231 0.832016 1.63338 0.953079Z" fill="white"/>
</svg>
