<svg width="6" height="8" viewBox="0 0 6 8" fill="none" xmlns="http://www.w3.org/2000/svg">
<path d="M1.63338 0.241653L4.9688 3.57707C5.08986 3.69813 5.15039 3.84576 5.15039 4.01994C5.15039 4.19412 5.08986 4.34175 4.9688 4.46281L1.63338 7.79823C1.51231 7.92053 1.36469 7.98168 1.19051 7.98168C1.01633 7.98168 0.868703 7.92053 0.747639 7.79823C0.625341 7.67716 0.564191 7.52954 0.564191 7.35536C0.564191 7.18117 0.625341 7.03355 0.747639 6.91249L3.64019 4.01994L0.74764 1.12739C0.625341 1.00633 0.564191 0.858706 0.564191 0.684523C0.564191 0.51034 0.625341 0.362717 0.74764 0.241653C0.868703 0.12059 1.01633 0.0600584 1.19051 0.0600584C1.36469 0.0600584 1.51231 0.12059 1.63338 0.241653Z" fill="white"/>
</svg>
