<svg width="6" height="9" viewBox="0 0 6 9" fill="none" xmlns="http://www.w3.org/2000/svg">
<path d="M1.63338 0.664505L4.9688 3.99992C5.08986 4.12099 5.15039 4.26861 5.15039 4.44279C5.15039 4.61697 5.08986 4.7646 4.9688 4.88566L1.63338 8.22108C1.51231 8.34338 1.36469 8.40453 1.19051 8.40453C1.01633 8.40453 0.868703 8.34338 0.747639 8.22108C0.625341 8.10002 0.564191 7.95239 0.564191 7.77821C0.564191 7.60403 0.625341 7.4564 0.747639 7.33534L3.64019 4.44279L0.74764 1.55024C0.625341 1.42918 0.564191 1.28156 0.564191 1.10737C0.564191 0.933191 0.625341 0.785568 0.74764 0.664505C0.868703 0.543442 1.01633 0.48291 1.19051 0.48291C1.36469 0.48291 1.51231 0.543442 1.63338 0.664505Z" fill="white"/>
</svg>
