<svg width="6" height="9" viewBox="0 0 6 9" fill="none" xmlns="http://www.w3.org/2000/svg">
<path d="M1.63338 0.530228L4.9688 3.86565C5.08986 3.98671 5.15039 4.13433 5.15039 4.30851C5.15039 4.4827 5.08986 4.63032 4.9688 4.75138L1.63338 8.0868C1.51231 8.2091 1.36469 8.27025 1.19051 8.27025C1.01633 8.27025 0.868703 8.2091 0.747639 8.0868C0.625341 7.96574 0.564191 7.81811 0.564191 7.64393C0.564191 7.46975 0.625341 7.32213 0.747639 7.20106L3.64019 4.30851L0.74764 1.41597C0.625341 1.2949 0.564191 1.14728 0.564191 0.973097C0.564191 0.798914 0.625341 0.651291 0.74764 0.530227C0.868703 0.409164 1.01633 0.348633 1.19051 0.348633C1.36469 0.348633 1.51231 0.409164 1.63338 0.530228Z" fill="white"/>
</svg>
