<svg width="353" height="289" viewBox="0 0 353 289" fill="none" xmlns="http://www.w3.org/2000/svg">
<g clip-path="url(#clip0_111_9634)">
<g clip-path="url(#clip1_111_9634)">
<g clip-path="url(#clip2_111_9634)">
<path d="M2.99071 1.64626C3.08497 0.921079 3.74926 0.409613 4.47443 0.503868C5.19962 0.598122 5.71109 1.26241 5.61683 1.98758L2.99071 1.64626ZM339.444 288.159C338.771 288.444 337.994 288.131 337.708 287.457L333.051 276.488C332.764 275.815 333.079 275.038 333.751 274.752C334.425 274.466 335.202 274.78 335.488 275.453L339.628 285.203L349.378 281.063C350.051 280.777 350.829 281.092 351.115 281.765C351.4 282.438 351.087 283.216 350.413 283.502L339.444 288.159ZM339.429 281.755C339.67 281.064 340.425 280.7 341.115 280.942C341.805 281.183 342.17 281.937 341.929 282.628L339.429 281.755ZM345.071 272.806C344.865 273.508 344.13 273.911 343.428 273.705C342.726 273.499 342.324 272.764 342.529 272.062L345.071 272.806ZM345.148 262.24C345.32 261.529 346.035 261.092 346.745 261.263C347.457 261.434 347.895 262.149 347.723 262.86L345.148 262.24ZM349.873 252.79C349.739 253.51 349.048 253.984 348.33 253.851C347.61 253.717 347.136 253.026 347.27 252.307L349.873 252.79ZM348.829 242.275C348.919 241.55 349.581 241.035 350.306 241.125C351.033 241.214 351.547 241.876 351.457 242.602L348.829 242.275ZM352.372 232.33C352.334 233.06 351.711 233.621 350.981 233.583C350.251 233.545 349.689 232.923 349.727 232.192L352.372 232.33ZM349.827 222.084C349.8 221.353 350.371 220.739 351.102 220.714C351.833 220.687 352.447 221.258 352.473 221.989L349.827 222.084ZM351.557 211.661C351.663 212.385 351.162 213.058 350.439 213.164C349.716 213.27 349.043 212.769 348.936 212.046L351.557 211.661ZM346.818 202.243C346.612 201.542 347.014 200.805 347.715 200.6C348.417 200.393 349.153 200.795 349.359 201.497L346.818 202.243ZM345.575 191.765C345.901 192.419 345.635 193.215 344.981 193.54C344.326 193.866 343.53 193.6 343.205 192.945L345.575 191.765ZM337.89 184.561C337.434 183.989 337.529 183.156 338.102 182.7C338.673 182.245 339.506 182.339 339.961 182.911L337.89 184.561ZM332.554 175.494C333.126 175.95 333.219 176.784 332.763 177.355C332.306 177.927 331.473 178.019 330.902 177.563L332.554 175.494ZM322.542 172.242C321.887 171.914 321.623 171.119 321.951 170.465C322.279 169.811 323.074 169.547 323.728 169.874L322.542 172.242ZM313.987 166.054C314.688 166.262 315.087 166.999 314.879 167.7C314.669 168.401 313.932 168.801 313.231 168.592L313.987 166.054ZM303.464 166.432C302.741 166.321 302.245 165.645 302.355 164.922C302.466 164.2 303.142 163.703 303.865 163.814L303.464 166.432ZM293.59 162.821C294.32 162.854 294.885 163.473 294.852 164.204C294.819 164.934 294.201 165.5 293.47 165.467L293.59 162.821ZM283.107 165.355C282.376 165.356 281.783 164.763 281.782 164.032C281.781 163.301 282.374 162.707 283.105 162.707L283.107 165.355ZM272.529 162.714C273.261 162.714 273.854 163.307 273.854 164.038C273.854 164.77 273.26 165.362 272.529 165.362V162.714ZM261.95 165.342C261.218 165.338 260.628 164.743 260.631 164.012C260.634 163.28 261.23 162.69 261.96 162.693L261.95 165.342ZM251.396 162.618C252.128 162.626 252.714 163.225 252.707 163.957C252.699 164.687 252.1 165.274 251.369 165.266L251.396 162.618ZM240.786 165.116C240.055 165.103 239.473 164.499 239.486 163.768C239.5 163.037 240.103 162.455 240.835 162.468L240.786 165.116ZM230.275 162.224C231.006 162.245 231.582 162.854 231.561 163.585C231.541 164.316 230.931 164.891 230.201 164.871L230.275 162.224ZM219.613 164.514C218.882 164.485 218.314 163.87 218.343 163.139C218.371 162.408 218.987 161.839 219.718 161.868L219.613 164.514ZM209.167 161.384C209.897 161.423 210.458 162.045 210.419 162.776C210.381 163.506 209.758 164.067 209.028 164.029L209.167 161.384ZM198.45 163.399C197.72 163.35 197.169 162.719 197.217 161.989C197.266 161.26 197.897 160.708 198.627 160.757L198.45 163.399ZM188.117 159.969C188.846 160.03 189.387 160.67 189.327 161.398C189.266 162.128 188.626 162.669 187.897 162.609L188.117 159.969ZM177.351 161.638C176.624 161.564 176.093 160.915 176.167 160.187C176.241 159.46 176.891 158.929 177.618 159.003L177.351 161.638ZM167.136 157.839C167.863 157.927 168.38 158.587 168.292 159.313C168.204 160.039 167.544 160.556 166.818 160.468L167.136 157.839ZM156.308 159.079C155.584 158.975 155.082 158.303 155.185 157.58C155.289 156.856 155.96 156.354 156.684 156.458L156.308 159.079ZM146.273 154.835C146.993 154.957 147.48 155.64 147.358 156.361C147.237 157.082 146.554 157.568 145.832 157.446L146.273 154.835ZM135.405 155.547C134.687 155.406 134.219 154.71 134.36 153.992C134.501 153.275 135.197 152.808 135.915 152.949L135.405 155.547ZM125.613 150.767C126.327 150.929 126.773 151.639 126.611 152.352C126.448 153.065 125.739 153.511 125.026 153.349L125.613 150.767ZM114.711 150.82C114.004 150.633 113.581 149.91 113.767 149.203C113.953 148.495 114.678 148.073 115.385 148.259L114.711 150.82ZM105.258 145.392C105.958 145.604 106.353 146.344 106.14 147.043C105.928 147.743 105.189 148.138 104.489 147.925L105.258 145.392ZM94.3867 144.626C93.6973 144.383 93.3336 143.627 93.5755 142.938C93.8174 142.247 94.573 141.884 95.2633 142.127L94.3867 144.626ZM85.4338 138.421C86.1116 138.695 86.4387 139.467 86.1642 140.145C85.8898 140.823 85.1179 141.15 84.4401 140.876L85.4338 138.421ZM74.6898 136.629C74.0276 136.318 73.7422 135.53 74.0524 134.868C74.3626 134.206 75.1509 133.92 75.8131 134.23L74.6898 136.629ZM66.4555 129.506C67.0979 129.856 67.3354 130.66 66.9859 131.302C66.6365 131.944 65.8324 132.182 65.19 131.832L66.4555 129.506ZM56.0078 126.435C55.3905 126.043 55.2078 125.225 55.5999 124.607C55.992 123.99 56.8103 123.807 57.4276 124.2L56.0078 126.435ZM48.8107 118.266C49.3967 118.704 49.5169 119.534 49.0793 120.12C48.6417 120.705 47.812 120.826 47.2261 120.388L48.8107 118.266ZM38.9445 113.654C38.3973 113.169 38.3469 112.333 38.832 111.785C39.317 111.238 40.1539 111.188 40.7011 111.672L38.9445 113.654ZM33.2055 104.399C33.7063 104.933 33.6802 105.77 33.1473 106.272C32.6143 106.772 31.7764 106.746 31.2756 106.213L33.2055 104.399ZM24.3366 98.0737C23.8901 97.4946 23.9976 96.6631 24.5768 96.2164C25.1559 95.7698 25.9873 95.8775 26.4338 96.4565L24.3366 98.0737ZM20.4887 87.8845C20.8744 88.5058 20.6833 89.3223 20.0621 89.708C19.4407 90.0938 18.6244 89.9023 18.2387 89.2808L20.4887 87.8845ZM13.0696 79.9184C12.7492 79.261 13.0224 78.4684 13.6797 78.1479C14.3371 77.8276 15.1297 78.1008 15.4501 78.7582L13.0696 79.9184ZM11.3608 69.1746C11.6141 69.8607 11.2634 70.6221 10.5774 70.8755C9.89147 71.1288 9.12996 70.7781 8.8766 70.092L11.3608 69.1746ZM5.66365 59.92C5.47629 59.2131 5.89742 58.4882 6.6043 58.3008C7.31115 58.1135 8.03607 58.5347 8.22346 59.2415L5.66365 59.92ZM6.00413 49.0585C6.1288 49.7791 5.64573 50.4643 4.92514 50.5889C4.20458 50.7136 3.51937 50.2305 3.39469 49.51L6.00413 49.0585ZM2.00664 38.9445C1.93999 38.2163 2.47632 37.5719 3.20456 37.5052C3.93279 37.4386 4.57717 37.9749 4.64382 38.7032L2.00664 38.9445ZM4.07266 28.2237C4.08657 28.9549 3.50508 29.5589 2.77394 29.5727C2.04279 29.5867 1.43882 29.0052 1.42495 28.274L4.07266 28.2237ZM1.57478 17.5667C1.60819 16.8361 2.22748 16.271 2.95801 16.3044C3.68851 16.3379 4.25364 16.9571 4.2202 17.6877L1.57478 17.5667ZM4.99492 7.32601C4.92013 8.05345 4.26983 8.58255 3.54237 8.50778C2.81491 8.43301 2.28583 7.78267 2.36059 7.05523L4.99492 7.32601ZM338.927 286.94C337.699 286.444 337.699 286.444 337.699 286.444C337.699 286.443 337.7 286.442 337.7 286.44C337.702 286.438 337.703 286.433 337.705 286.427C337.71 286.415 337.718 286.396 337.728 286.37C337.748 286.32 337.778 286.243 337.818 286.141C337.898 285.937 338.017 285.632 338.168 285.233C338.47 284.435 338.904 283.259 339.429 281.755L341.929 282.628C341.396 284.155 340.954 285.353 340.645 286.17C340.489 286.58 340.367 286.894 340.285 287.107C340.243 287.213 340.21 287.295 340.189 287.349C340.178 287.377 340.17 287.398 340.164 287.412C340.161 287.42 340.158 287.425 340.157 287.429C340.156 287.431 340.156 287.432 340.155 287.433C340.155 287.434 340.155 287.435 340.155 287.435C340.155 287.436 340.155 287.436 340.155 287.436C340.155 287.436 340.154 287.436 338.927 286.94ZM342.529 272.062C343.392 269.117 344.289 265.812 345.148 262.24L347.723 262.86C346.852 266.478 345.944 269.824 345.071 272.806L342.529 272.062ZM347.27 252.307C347.871 249.071 348.403 245.711 348.829 242.275L351.457 242.602C351.024 246.095 350.483 249.508 349.873 252.79L347.27 252.307ZM349.727 232.192C349.903 228.832 349.946 225.449 349.827 222.084L352.473 221.989C352.596 225.44 352.551 228.901 352.372 232.33L349.727 232.192ZM348.936 212.046C348.445 208.699 347.751 205.417 346.818 202.243L349.359 201.497C350.33 204.802 351.049 208.206 351.557 211.661L348.936 212.046ZM343.205 192.945C341.727 189.98 339.968 187.17 337.89 184.561L339.961 182.911C342.163 185.676 344.021 188.644 345.575 191.765L343.205 192.945ZM330.902 177.563C328.423 175.584 325.646 173.798 322.542 172.242L323.728 169.874C326.994 171.512 329.927 173.396 332.554 175.494L330.902 177.563ZM313.231 168.592C310.216 167.695 306.966 166.968 303.464 166.432L303.865 163.814C307.478 164.367 310.847 165.119 313.987 166.054L313.231 168.592ZM293.47 165.467C291.799 165.391 290.083 165.352 288.317 165.352V162.704C290.121 162.704 291.878 162.744 293.59 162.821L293.47 165.467ZM288.317 165.352C286.611 165.352 284.874 165.354 283.107 165.355L283.105 162.707C284.872 162.706 286.61 162.704 288.317 162.704V165.352ZM272.529 165.362C269.087 165.361 265.557 165.357 261.95 165.342L261.96 162.693C265.563 162.708 269.089 162.713 272.529 162.714V165.362ZM251.369 165.266C247.897 165.231 244.366 165.182 240.786 165.116L240.835 162.468C244.406 162.534 247.93 162.583 251.396 162.618L251.369 165.266ZM230.201 164.871C226.707 164.773 223.176 164.655 219.613 164.514L219.718 161.868C223.269 162.008 226.791 162.126 230.275 162.224L230.201 164.871ZM209.028 164.029C205.523 163.845 201.995 163.636 198.45 163.399L198.627 160.757C202.158 160.993 205.673 161.202 209.167 161.384L209.028 164.029ZM187.897 162.609C184.389 162.316 180.873 161.994 177.351 161.638L177.618 159.003C181.122 159.357 184.624 159.679 188.117 159.969L187.897 162.609ZM166.818 160.468C163.31 160.043 159.804 159.581 156.308 159.079L156.684 156.458C160.161 156.956 163.647 157.416 167.136 157.839L166.818 160.468ZM145.832 157.446C142.34 156.858 138.861 156.226 135.405 155.547L135.915 152.949C139.348 153.622 142.802 154.251 146.273 154.835L145.832 157.446ZM125.026 153.349C121.557 152.56 118.117 151.717 114.711 150.82L115.385 148.259C118.762 149.149 122.173 149.984 125.613 150.767L125.026 153.349ZM104.489 147.925C101.077 146.888 97.7076 145.789 94.3867 144.626L95.2633 142.127C98.547 143.278 101.881 144.365 105.258 145.392L104.489 147.925ZM84.4401 140.876C81.1281 139.535 77.8754 138.121 74.6898 136.629L75.8131 134.23C78.9538 135.701 82.1632 137.097 85.4338 138.421L84.4401 140.876ZM65.19 131.832C62.0467 130.122 58.983 128.325 56.0078 126.435L57.4276 124.2C60.35 126.055 63.362 127.823 66.4555 129.506L65.19 131.832ZM47.2261 120.388C44.3599 118.248 41.5963 116.005 38.9445 113.654L40.7011 111.672C43.2953 113.972 46.0013 116.168 48.8107 118.266L47.2261 120.388ZM31.2756 106.213C28.8353 103.616 26.5191 100.905 24.3366 98.0737L26.4338 96.4565C28.5623 99.2177 30.8226 101.863 33.2055 104.399L31.2756 106.213ZM18.2387 89.2808C16.3754 86.2794 14.6494 83.1599 13.0696 79.9184L15.4501 78.7582C16.9902 81.9183 18.6726 84.9588 20.4887 87.8845L18.2387 89.2808ZM8.8766 70.092C7.66588 66.8137 6.59252 63.4243 5.66365 59.92L8.22346 59.2415C9.13119 62.666 10.1794 65.9758 11.3608 69.1746L8.8766 70.092ZM3.39469 49.51C2.80266 46.0882 2.33817 42.5673 2.00664 38.9445L4.64382 38.7032C4.96908 42.2575 5.42445 45.7083 6.00413 49.0585L3.39469 49.51ZM1.42495 28.274C1.35887 24.7924 1.40746 21.224 1.57478 17.5667L4.2202 17.6877C4.05542 21.2898 4.00771 24.8011 4.07266 28.2237L1.42495 28.274ZM2.36059 7.05523C2.54388 5.27208 2.75379 3.46917 2.99071 1.64626L5.61683 1.98758C5.38289 3.78742 5.17573 5.56682 4.99492 7.32601L2.36059 7.05523Z" fill="#85B6FF"/>
</g>
</g>
</g>
<defs>
<clipPath id="clip0_111_9634">
<rect width="352.211" height="288.654" fill="white" transform="translate(0.775391 0.0541992)"/>
</clipPath>
<clipPath id="clip1_111_9634">
<rect width="352.211" height="288.654" fill="white" transform="translate(0.774414 0.0532227)"/>
</clipPath>
<clipPath id="clip2_111_9634">
<rect width="352.211" height="288.654" fill="white" transform="translate(0.773438 0.0522461)"/>
</clipPath>
</defs>
</svg>
