<svg width="27" height="27" viewBox="0 0 27 27" fill="none" xmlns="http://www.w3.org/2000/svg">
<path d="M20.0841 15.6539C20.0335 15.6296 18.138 14.6962 17.8012 14.575C17.6637 14.5256 17.5163 14.4774 17.3597 14.4774C17.1037 14.4774 16.8887 14.605 16.7212 14.8555C16.5319 15.137 15.9587 15.807 15.7816 16.0071C15.7585 16.0335 15.7269 16.0651 15.708 16.0651C15.691 16.0651 15.3977 15.9443 15.3089 15.9057C13.2756 15.0225 11.7322 12.8985 11.5206 12.5403C11.4903 12.4888 11.4891 12.4655 11.4888 12.4655C11.4962 12.4382 11.5646 12.3696 11.5999 12.3343C11.7032 12.2321 11.815 12.0975 11.9232 11.9672C11.9745 11.9055 12.0258 11.8437 12.0762 11.7855C12.2332 11.6028 12.3031 11.461 12.3841 11.2967L12.4266 11.2114C12.6245 10.8183 12.4555 10.4865 12.4008 10.3794C12.356 10.2897 11.5557 8.35814 11.4706 8.1552C11.266 7.66551 10.9956 7.4375 10.6198 7.4375C10.585 7.4375 10.6198 7.4375 10.4736 7.44366C10.2956 7.45118 9.32609 7.57881 8.89743 7.84903C8.44285 8.13562 7.67383 9.04916 7.67383 10.6558C7.67383 12.1017 8.59143 13.467 8.98539 13.9862C8.99519 13.9993 9.01317 14.0259 9.03925 14.064C10.548 16.2675 12.4289 17.9004 14.3356 18.6621C16.1712 19.3953 17.0404 19.4801 17.5346 19.4801H17.5347C17.7423 19.4801 17.9085 19.4638 18.0552 19.4493L18.1482 19.4405C18.7823 19.3842 20.1759 18.6622 20.4928 17.7813C20.7425 17.0875 20.8084 16.3294 20.6423 16.0543C20.5285 15.8672 20.3324 15.7731 20.0841 15.6539Z" fill="white"/>
<path d="M14.0765 0.713867C7.03486 0.713867 1.30609 6.39959 1.30609 13.3883C1.30609 15.6487 1.91101 17.8613 3.05695 19.7978L0.86358 26.2678C0.822722 26.3884 0.853112 26.5218 0.942339 26.6127C1.00675 26.6784 1.09412 26.7139 1.18335 26.7139C1.21753 26.7139 1.25198 26.7087 1.28557 26.698L8.03207 24.5542C9.87824 25.5406 11.9648 26.0613 14.0766 26.0613C21.1175 26.0613 26.8457 20.3762 26.8457 13.3883C26.8457 6.39959 21.1175 0.713867 14.0765 0.713867ZM14.0765 23.4212C12.0894 23.4212 10.1648 22.8474 8.51045 21.7618C8.45482 21.7252 8.39024 21.7065 8.32524 21.7065C8.29088 21.7065 8.25644 21.7117 8.22293 21.7224L4.84335 22.7966L5.93434 19.578C5.96962 19.4738 5.95198 19.3589 5.88698 19.2701C4.62716 17.5487 3.96121 15.5149 3.96121 13.3883C3.96121 7.85543 8.49889 3.35405 14.0764 3.35405C19.6532 3.35405 24.1904 7.85543 24.1904 13.3883C24.1905 18.9205 19.6534 23.4212 14.0765 23.4212Z" fill="white"/>
</svg>
