<svg width="21" height="20" viewBox="0 0 21 20" fill="none" xmlns="http://www.w3.org/2000/svg">
<path d="M16.9049 14.5706C16.7073 14.5706 16.5097 14.6118 16.3367 14.6859L14.2369 12.5861C14.0475 12.8495 13.8252 13.0802 13.5781 13.2942L15.6285 15.3446C15.1098 16.2834 15.8262 17.4856 16.9049 17.4691C18.8235 17.395 18.8235 14.6447 16.9049 14.5706Z" fill="#424549"/>
<path d="M17.642 8.64996C17.0161 8.64996 16.4727 9.05347 16.275 9.61341H15.0234C15.0563 9.92633 15.0563 10.264 15.0234 10.5769H16.275C16.835 12.092 19.0583 11.7297 19.083 10.091C19.083 9.29226 18.4325 8.64173 17.6337 8.64173L17.642 8.64996Z" fill="#424549"/>
<path d="M5.77163 6.87956C6.17514 6.87956 6.54569 6.76428 6.86684 6.56665L7.67382 7.37364C7.87969 7.1266 8.11849 6.90427 8.382 6.71487L7.5503 5.88317C8.4067 4.52447 7.39385 2.68816 5.77988 2.70463C3.02129 2.81168 3.02129 6.77252 5.77988 6.87133L5.77163 6.87956Z" fill="#424549"/>
<path d="M10.8612 6.87134C9.08252 6.87134 7.625 8.32062 7.625 10.1075C7.78968 14.3895 13.9244 14.3895 14.0892 10.1075C14.0892 8.32885 12.6399 6.87134 10.8529 6.87134H10.8612Z" fill="#F66C3B"/>
<path d="M7.57406 12.7096L6.73413 13.5495C5.03781 12.3556 2.60861 13.6237 2.62508 15.7153C2.62508 17.1646 3.80262 18.3421 5.25191 18.3421C7.34349 18.3586 8.61161 15.9293 7.4176 14.233L8.25753 13.3931C8.00225 13.1955 7.77992 12.965 7.57406 12.7096Z" fill="#424549"/>
<path d="M14.1441 7.49715L15.9144 5.72671C17.2731 6.58311 19.1095 5.57025 19.093 3.95627C19.093 2.80343 18.1543 1.87293 17.0097 1.87293C15.3956 1.85646 14.3746 3.69277 15.2392 5.05147L13.4688 6.82191C13.7241 7.01953 13.9464 7.2501 14.1523 7.50537L14.1441 7.49715Z" fill="#424549"/>
</svg>
