<svg width="101" height="22" viewBox="0 0 101 22" fill="none" xmlns="http://www.w3.org/2000/svg">
<path d="M14.1178 3.54314V20.3095C14.1178 20.6707 13.8242 20.9647 13.461 20.9647H13.1154C12.7532 20.9647 12.4586 20.6717 12.4586 20.3095C12.4586 19.7467 11.805 19.46 11.3699 19.8181C10.9639 20.152 10.5351 20.4302 10.0834 20.6518C9.20593 21.0833 8.24626 21.2986 7.20435 21.2986C5.35266 21.2986 3.77263 20.6297 2.46219 19.291C1.29018 18.094 0.641725 16.6628 0.518903 15.0007C0.358611 12.8356 1.22461 10.6747 2.8546 9.23621C4.09947 8.13687 5.56604 7.58667 7.25431 7.58667C8.32744 7.58667 9.29961 7.81452 10.1698 8.27022C10.5934 8.49282 10.9931 8.76897 11.3668 9.09971C11.7914 9.47561 12.4607 9.18266 12.4607 8.61567V3.54314C12.4607 3.18194 12.7542 2.88794 13.1175 2.88794H13.4631C13.8253 2.88794 14.1198 3.18089 14.1198 3.54314H14.1178ZM7.39171 9.20576C6.45493 9.20576 5.58998 9.43571 4.79788 9.89456C4.00579 10.3534 3.37503 10.9981 2.90664 11.8287C2.43825 12.6592 2.20406 13.537 2.20406 14.4631C2.20406 15.3892 2.44033 16.2596 2.91288 17.0975C3.38543 17.9354 4.01932 18.5885 4.81558 19.0547C5.61184 19.522 6.46638 19.7551 7.37922 19.7551C8.29205 19.7551 9.17262 19.5241 9.99698 19.061C10.8213 18.598 11.4563 17.9711 11.9007 17.1815C12.3441 16.3909 12.5669 15.5015 12.5669 14.5114C12.5669 13.0025 12.0693 11.7415 11.0722 10.7283C10.075 9.71501 8.84891 9.20786 7.39171 9.20786V9.20576Z" fill="white"/>
<path d="M29.4103 16.9872C29.8297 17.2067 29.9827 17.7401 29.7308 18.1401C29.3728 18.7103 28.9783 19.1922 28.5484 19.586C27.9385 20.1456 27.2536 20.5709 26.4906 20.8628C25.7287 21.1547 24.8659 21.3006 23.9041 21.3006C21.7703 21.3006 20.1018 20.6034 18.8986 19.209C17.6954 17.8146 17.0938 16.2386 17.0938 14.4798C17.0938 12.825 17.6038 11.3508 18.6217 10.0562C19.9134 8.40981 21.6423 7.58661 23.8083 7.58661C25.9744 7.58661 27.8188 8.42976 29.1511 10.116C29.9786 11.1566 30.4501 12.4239 30.5667 13.917C30.5937 14.2698 30.3179 14.5754 29.963 14.5754H19.4752C19.112 14.5754 18.8299 14.8956 18.8726 15.2558C19.0183 16.4664 19.4877 17.4807 20.2819 18.3008C21.2208 19.2699 22.3803 19.754 23.7605 19.754C24.4266 19.754 25.074 19.6385 25.7048 19.4075C26.3345 19.1765 26.8706 18.8699 27.3119 18.4887C27.6377 18.2073 27.9822 17.7978 28.3475 17.2602C28.5828 16.9137 29.0408 16.793 29.4123 16.9872H29.4103ZM27.9281 13.1253C28.3413 13.1253 28.6421 12.7148 28.4985 12.3284C28.3007 11.795 28.0551 11.3456 27.7626 10.9802C27.367 10.4867 26.8549 10.0824 26.2242 9.76535C25.4467 9.37475 24.5744 9.17735 23.7043 9.19625C22.475 9.2225 21.4154 9.6341 20.5234 10.4289C20.0113 10.8846 19.5939 11.5125 19.2723 12.3137C19.1161 12.7032 19.4149 13.1264 19.8364 13.1264C21.6892 13.1264 26.1014 13.1264 27.9291 13.1264L27.9281 13.1253Z" fill="white"/>
<path d="M33.5693 7.9221C33.8868 7.9221 34.1751 8.10585 34.3083 8.39355L37.7369 15.8191C38.0283 16.4502 38.9276 16.4481 39.216 15.816L42.6008 8.39775C42.733 8.10795 43.0224 7.9221 43.3409 7.9221H43.3534C43.9456 7.9221 44.3391 8.5332 44.0934 9.0708L38.6341 20.9641H38.3208L32.8292 9.0729C32.5815 8.5353 32.975 7.9221 33.5683 7.9221H33.5693Z" fill="white"/>
<path d="M68.3569 7.92241C68.6764 7.92241 68.9647 8.11351 69.0896 8.40645L72.1768 15.6966C72.4485 16.3371 73.3561 16.3434 73.6371 15.7071L77.0678 7.92136H77.3728L80.8378 15.7302C81.1188 16.3633 82.0202 16.3581 82.295 15.7228L85.454 8.4012C85.58 8.11036 85.8662 7.92136 86.1847 7.92136H86.1993C86.7718 7.92136 87.1569 8.5062 86.9279 9.03015L81.7288 20.9634H81.4165L77.9598 13.2469C77.6798 12.6211 76.7878 12.6211 76.5078 13.2469L73.0543 20.9634H72.741L67.6272 9.0249C67.4034 8.502 67.7875 7.92136 68.3579 7.92136L68.3569 7.92241Z" fill="white"/>
<path d="M90.7344 13.2741C90.7344 10.9893 92.6423 9.3198 94.953 9.3996C97.1534 9.4752 98.8562 11.3683 98.8562 13.5628V20.1442C98.8562 20.5968 99.2237 20.9632 99.6775 20.9632C100.131 20.9632 100.499 20.5968 100.499 20.1442V13.4788C100.499 10.3383 98.035 7.63666 94.8854 7.58731C91.693 7.53796 89.0898 10.1031 89.0898 13.2741V20.1442C89.0898 20.5968 89.4573 20.9632 89.9111 20.9632C90.3649 20.9632 90.7323 20.5968 90.7323 20.1442V13.2741H90.7344Z" fill="white"/>
<path d="M41.0448 5.88825H20.4712C19.2961 5.904 19.2961 4.23241 20.4712 4.24816H41.0438C42.2117 4.23241 42.2231 5.904 41.0438 5.88825H41.0448Z" fill="white"/>
<path d="M63.6414 9.84399C62.3205 8.3782 60.6353 7.63585 58.6307 7.63585C56.626 7.63585 54.9273 8.38345 53.6095 9.85659C52.4115 11.1901 51.8047 12.7871 51.8047 14.6026C51.8047 16.418 52.4459 18.0581 53.7095 19.4273C54.9793 20.8028 56.6343 21.5 58.6307 21.5C60.627 21.5 62.2705 20.8028 63.5404 19.4273C64.804 18.0581 65.4452 16.4348 65.4452 14.6026C65.4452 12.7703 64.8383 11.1796 63.6414 9.84399ZM62.0749 17.9783C61.1839 18.9443 60.0244 19.4336 58.6286 19.4336C57.2328 19.4336 56.0649 18.9443 55.174 17.9783C54.2871 17.0176 53.8364 15.8783 53.8364 14.5921C53.8364 13.3058 54.2622 12.197 55.1032 11.2604C56.0285 10.2262 57.2151 9.70224 58.6275 9.70224C60.04 9.70224 61.2172 10.2241 62.1446 11.252C62.9846 12.1897 63.4113 13.3132 63.4113 14.5921C63.4113 15.871 62.9617 17.0176 62.0738 17.9783H62.0749Z" fill="white"/>
<path d="M98.0861 4.16448H49.6247V1.445C49.6247 0.923148 49.2052 0.5 48.6879 0.5C48.1706 0.5 47.7511 0.923148 47.7511 1.445V4.16343H45.0345C44.5338 4.16343 44.1289 4.57293 44.1289 5.07693C44.1289 5.58198 44.5348 5.99043 45.0345 5.99043H47.7511V20.1958C47.7511 20.7177 48.1706 21.1408 48.6879 21.1408C49.2052 21.1408 49.6247 20.7177 49.6247 20.1958V5.99148H98.0861C98.5867 5.99148 98.9916 5.58198 98.9916 5.07798C98.9916 4.57293 98.5857 4.16448 98.0861 4.16448Z" fill="white"/>
</svg>
