<svg width="36" height="37" viewBox="0 0 36 37" fill="none" xmlns="http://www.w3.org/2000/svg">
<path d="M29.8121 21.5311C31.4494 21.5311 32.7765 20.204 32.7765 18.5667C32.7765 16.9294 31.4494 15.6022 29.8121 15.6022C28.1748 15.6022 26.8477 16.9294 26.8477 18.5667C26.8477 20.204 28.1748 21.5311 29.8121 21.5311Z" stroke="#292D32" stroke-width="2.22333" stroke-linecap="round" stroke-linejoin="round"/>
<path d="M29.8121 9.67339C31.4494 9.67339 32.7765 8.34616 32.7765 6.70894C32.7765 5.07173 31.4494 3.7445 29.8121 3.7445C28.1748 3.7445 26.8477 5.07173 26.8477 6.70894C26.8477 8.34616 28.1748 9.67339 29.8121 9.67339Z" stroke="#292D32" stroke-width="2.22333" stroke-linecap="round" stroke-linejoin="round"/>
<path d="M29.8121 33.3889C31.4494 33.3889 32.7765 32.0618 32.7765 30.4245C32.7765 28.7872 31.4494 27.4601 29.8121 27.4601C28.1748 27.4601 26.8477 28.7872 26.8477 30.4245C26.8477 32.0618 28.1748 33.3889 29.8121 33.3889Z" stroke="#292D32" stroke-width="2.22333" stroke-linecap="round" stroke-linejoin="round"/>
<path d="M6.09335 21.5311C7.73057 21.5311 9.0578 20.204 9.0578 18.5667C9.0578 16.9294 7.73057 15.6022 6.09335 15.6022C4.45613 15.6022 3.12891 16.9294 3.12891 18.5667C3.12891 20.204 4.45613 21.5311 6.09335 21.5311Z" stroke="#292D32" stroke-width="2.22333" stroke-linecap="round" stroke-linejoin="round"/>
<g opacity="0.4">
<path d="M9.0625 18.5667H26.8492" stroke="#292D32" stroke-width="2.22333" stroke-linecap="round" stroke-linejoin="round"/>
<path d="M26.8482 6.70889H20.9193C17.9549 6.70889 16.4727 8.19112 16.4727 11.1556V25.9778C16.4727 28.9422 17.9549 30.4245 20.9193 30.4245H26.8482" stroke="#292D32" stroke-width="2.22333" stroke-linecap="round" stroke-linejoin="round"/>
</g>
</svg>
