<svg width="29" height="28" viewBox="0 0 29 28" fill="none" xmlns="http://www.w3.org/2000/svg">
<path d="M12.2606 3.49601C12.9315 3.082 13.7043 2.86273 14.4926 2.86273C15.281 2.86273 16.0538 3.082 16.7246 3.49601L26.6366 9.61201C26.7441 9.67828 26.8331 9.77062 26.8954 9.88046C26.9577 9.99029 26.9912 10.1141 26.9929 10.2403C26.9946 10.3666 26.9644 10.4912 26.9051 10.6027C26.8458 10.7142 26.7593 10.8089 26.6536 10.878L16.8186 17.308C16.1271 17.7602 15.3188 18.001 14.4926 18.001C13.6664 18.001 12.8581 17.7602 12.1666 17.308L3.49261 11.638V17.751C3.49261 17.9499 3.41359 18.1407 3.27294 18.2813C3.13229 18.422 2.94152 18.501 2.74261 18.501C2.5437 18.501 2.35293 18.422 2.21228 18.2813C2.07163 18.1407 1.99261 17.9499 1.99261 17.751V10.5C1.99261 10.457 1.99661 10.415 2.00261 10.375C1.97782 10.2278 1.9975 10.0766 2.05914 9.9407C2.12078 9.80477 2.22157 9.69033 2.34861 9.61201L12.2606 3.49601ZM6.49261 15.39L11.3456 18.563C12.2812 19.1748 13.3748 19.5006 14.4926 19.5006C15.6105 19.5006 16.7041 19.1748 17.6396 18.563L22.4926 15.391V20.25C22.4926 20.549 22.3306 20.729 22.1396 20.916C22.0446 21.008 21.9086 21.136 21.7306 21.288C21.2491 21.6988 20.734 22.0684 20.1906 22.393C18.8586 23.193 16.9136 24 14.4926 24C12.0726 24 10.1266 23.193 8.79461 22.393C8.25126 22.0684 7.73612 21.6988 7.25461 21.288C7.11399 21.1684 6.97725 21.0444 6.84461 20.916C6.65461 20.729 6.49261 20.549 6.49261 20.25V15.39Z" fill="url(#paint0_linear_1401_24347)"/>
<defs>
<linearGradient id="paint0_linear_1401_24347" x1="27.952" y1="19.8061" x2="7.70581" y2="19.4957" gradientUnits="userSpaceOnUse">
<stop stop-color="#8D38EA"/>
<stop offset="1" stop-color="#3D85FE"/>
</linearGradient>
</defs>
</svg>
