<svg width="8" height="10" viewBox="0 0 8 10" fill="none" xmlns="http://www.w3.org/2000/svg">
<path d="M7.26981 0.294729H0.160156V1.93444H7.26981V0.294729Z" fill="#DCE3DB"/>
<path d="M0.160156 2.16665H3.5462V4.33073H0.160156V2.16665Z" fill="#DCE3DB"/>
<path d="M3.88281 2.1668H7.26886V4.33088H3.88281V2.1668Z" fill="#DCE3DB"/>
<path d="M0.171875 4.64141H7.26227V4.74621H0.171875V4.64141ZM0.171875 5.63216H4.82959V5.73696H0.171875V5.63216ZM0.171875 5.30185H7.26227V5.40664H0.171875V5.30185ZM0.171875 4.97168H7.26227V5.07647H0.171875V4.97168Z" fill="#DCE3DB"/>
<path d="M0.152344 5.99395H2.26533V8.08894H0.152344V5.99395ZM5.16609 5.99395H7.27917V8.08894H5.16609V5.99395ZM2.65924 5.99395H4.77223V8.08894H2.65924V5.99395Z" fill="#DCE3DB"/>
<path d="M0.171875 8.38067H7.26227V8.48546H0.171875V8.38067ZM0.171875 9.37142H4.82959V9.47622H0.171875V9.37142ZM0.171875 9.04115H7.26227V9.14595H0.171875V9.04115ZM0.171875 8.71098H7.26227V8.81578H0.171875V8.71098Z" fill="#DCE3DB"/>
</svg>
