<svg width="8" height="10" viewBox="0 0 8 10" fill="none" xmlns="http://www.w3.org/2000/svg">
<path d="M7.26981 0.381104H0.160156V2.02081H7.26981V0.381104Z" fill="#DCE3DB"/>
<path d="M0.160156 2.25302H3.5462V4.4171H0.160156V2.25302Z" fill="#DCE3DB"/>
<path d="M3.88281 2.25317H7.26886V4.41726H3.88281V2.25317Z" fill="#DCE3DB"/>
<path d="M0.171875 4.72778H7.26227V4.83258H0.171875V4.72778ZM0.171875 5.71854H4.82959V5.82334H0.171875V5.71854ZM0.171875 5.38822H7.26227V5.49302H0.171875V5.38822ZM0.171875 5.05805H7.26227V5.16285H0.171875V5.05805Z" fill="#DCE3DB"/>
<path d="M0.152344 6.08032H2.26533V8.17531H0.152344V6.08032ZM5.16609 6.08032H7.27917V8.17531H5.16609V6.08032ZM2.65924 6.08032H4.77223V8.17531H2.65924V6.08032Z" fill="#DCE3DB"/>
<path d="M0.171875 8.46704H7.26227V8.57184H0.171875V8.46704ZM0.171875 9.45779H4.82959V9.56259H0.171875V9.45779ZM0.171875 9.12753H7.26227V9.23232H0.171875V9.12753ZM0.171875 8.79736H7.26227V8.90215H0.171875V8.79736Z" fill="#DCE3DB"/>
</svg>
