<svg width="8" height="10" viewBox="0 0 8 10" fill="none" xmlns="http://www.w3.org/2000/svg">
<path d="M7.26981 0.206284H0.160156V1.84599H7.26981V0.206284Z" fill="#DCE3DB"/>
<path d="M0.160156 2.07835H3.5462V4.24244H0.160156V2.07835Z" fill="#DCE3DB"/>
<path d="M3.88281 2.07835H7.26886V4.24244H3.88281V2.07835Z" fill="#DCE3DB"/>
<path d="M0.171875 4.55296H7.26227V4.65776H0.171875V4.55296ZM0.171875 5.54372H4.82959V5.64852H0.171875V5.54372ZM0.171875 5.2134H7.26227V5.3182H0.171875V5.2134ZM0.171875 4.88323H7.26227V4.98803H0.171875V4.88323Z" fill="#DCE3DB"/>
<path d="M0.152344 5.9055H2.26533V8.00049H0.152344V5.9055ZM5.16609 5.9055H7.27917V8.00049H5.16609V5.9055ZM2.65924 5.9055H4.77223V8.00049H2.65924V5.9055Z" fill="#DCE3DB"/>
<path d="M0.171875 8.29222H7.26227V8.39702H0.171875V8.29222ZM0.171875 9.28297H4.82959V9.38777H0.171875V9.28297ZM0.171875 8.95271H7.26227V9.0575H0.171875V8.95271ZM0.171875 8.62254H7.26227V8.72733H0.171875V8.62254Z" fill="#DCE3DB"/>
</svg>
