<svg width="32" height="33" viewBox="0 0 32 33" fill="none" xmlns="http://www.w3.org/2000/svg">
<g clip-path="url(#clip0_1508_6614)">
<path d="M15.9787 0.526707C12.6329 4.04451 7.76128 4.59145 5.05376 4.59145C3.83092 4.59145 3.05078 4.47979 3.05078 4.47979C3.05078 4.47979 3.05078 10.1616 3.05078 18.3139C3.05078 26.4661 15.9787 32.1475 15.9787 32.1475C15.9787 32.1475 28.9067 26.4656 28.9067 18.3134C28.9067 10.1612 28.9067 4.4793 28.9067 4.4793C28.9067 4.4793 28.1265 4.59096 26.9037 4.59096C24.1962 4.59145 19.3266 4.04451 15.9787 0.526707Z" fill="#E50914"/>
<path d="M16.0127 13.512C11.8654 13.512 10.2127 10.0658 10.1445 9.91955L10.816 9.60581C10.8767 9.73526 12.3476 12.7709 16.0127 12.7709C19.6905 12.7709 21.1535 9.67399 21.1683 9.64287L21.8417 9.95166C21.775 10.0964 20.1609 13.512 16.0127 13.512Z" fill="white"/>
<path d="M16.0229 24.3989C11.3618 24.3989 7.57031 20.6069 7.57031 15.9468C7.57031 11.2867 11.3623 7.49464 16.0229 7.49464C20.6835 7.49464 24.4751 11.2867 24.4751 15.9468C24.4751 20.6069 20.6835 24.3989 16.0229 24.3989ZM16.0229 8.23525C11.7709 8.23525 8.31142 11.6943 8.31142 15.9463C8.31142 20.1983 11.7709 23.6573 16.0229 23.6573C20.2749 23.6573 23.7339 20.1983 23.7339 15.9463C23.7339 11.6943 20.2754 8.23525 16.0229 8.23525Z" fill="white"/>
<path d="M16.3935 7.80344H15.6523V23.6731H16.3935V7.80344Z" fill="white"/>
<path d="M24.0972 15.5757H8.10547V16.3168H24.0972V15.5757Z" fill="white"/>
<path d="M10.816 21.7927L10.1445 21.4789C10.2127 21.3322 11.8654 17.8865 16.0127 17.8865C20.1609 17.8865 21.775 21.3015 21.8417 21.4468L21.1688 21.7566C21.1095 21.6286 19.6762 18.6276 16.0127 18.6276C12.3476 18.6281 10.8767 21.6637 10.816 21.7927Z" fill="white"/>
<path d="M15.6031 24.182C15.446 24.0382 11.7617 20.6123 11.7617 15.9463C11.7617 11.2733 15.53 7.97439 15.6906 7.83654L16.1743 8.3983C16.1372 8.42943 12.5023 11.6197 12.5023 15.9463C12.5023 20.2803 16.0671 23.602 16.1031 23.6351L15.6031 24.182Z" fill="white"/>
<path d="M16.4466 24.182L15.9461 23.6355C15.9822 23.6024 19.547 20.2808 19.547 15.9468C19.547 11.6197 15.9125 8.42992 15.875 8.39879L16.3587 7.83703C16.5193 7.97488 20.2876 11.2738 20.2876 15.9468C20.2881 20.6128 16.6038 24.0382 16.4466 24.182Z" fill="white"/>
</g>
<defs>
<clipPath id="clip0_1508_6614">
<rect width="31.6207" height="31.6207" fill="white" transform="translate(0.167969 0.526703)"/>
</clipPath>
</defs>
</svg>
