<svg width="25" height="24" viewBox="0 0 25 24" fill="none" xmlns="http://www.w3.org/2000/svg">
<g opacity="0.5">
<path fill-rule="evenodd" clip-rule="evenodd" d="M5.95988 4.36002C6.24901 4.64974 6.24855 5.11898 5.95883 5.40811C4.30012 7.06353 3.27519 9.35028 3.27519 11.8778C3.27519 14.4349 4.32424 16.7456 6.01733 18.4054C6.30962 18.692 6.31428 19.1611 6.02775 19.4534C5.74122 19.7457 5.272 19.7504 4.97972 19.4638C3.01396 17.5368 1.79297 14.8492 1.79297 11.8778C1.79297 8.94084 2.98587 6.28107 4.91179 4.35898C5.2015 4.06985 5.67075 4.07031 5.95988 4.36002ZM18.9535 4.43155C19.2458 4.14502 19.715 4.14968 20.0016 4.44197C21.8792 6.35726 23.0382 8.98293 23.0382 11.8778C23.0382 14.8071 21.8515 17.4607 19.9344 19.3816C19.6453 19.6713 19.176 19.6718 18.8864 19.3827C18.5966 19.0935 18.5961 18.6243 18.8853 18.3345C20.5364 16.6802 21.5559 14.3987 21.5559 11.8778C21.5559 9.38639 20.5601 7.12904 18.9432 5.47959C18.6566 5.18731 18.6613 4.71809 18.9535 4.43155ZM8.76853 7.41883C9.04821 7.71769 9.03266 8.18667 8.7338 8.46635C7.79614 9.34382 7.22778 10.544 7.22778 11.8602C7.22778 13.1917 7.8095 14.4048 8.76688 15.2848C9.06822 15.5618 9.08795 16.0306 8.81096 16.332C8.53397 16.6332 8.06513 16.653 7.7638 16.376C6.52587 15.2381 5.74556 13.6391 5.74556 11.8602C5.74556 10.1021 6.5079 8.51934 7.72103 7.3841C8.01988 7.10442 8.48887 7.11998 8.76853 7.41883ZM16.1141 7.4564C16.397 7.16062 16.8661 7.1502 17.1619 7.43311C18.3449 8.56466 19.0856 10.1274 19.0856 11.8602C19.0856 13.6138 18.3272 15.1928 17.1195 16.3274C16.8213 16.6078 16.3522 16.5931 16.072 16.2948C15.7918 15.9965 15.8064 15.5275 16.1046 15.2473C17.0379 14.3704 17.6033 13.173 17.6033 11.8602C17.6033 10.5628 17.0511 9.37822 16.1373 8.50424C15.8416 8.22132 15.8312 7.75219 16.1141 7.4564Z" fill="#FF0000" stroke="#FF0000" stroke-width="0.988148"/>
</g>
<path d="M14.0505 10.3472C14.9356 10.9971 15.3782 11.322 15.3782 11.8778C15.3782 12.4335 14.9356 12.7584 14.0505 13.4083C13.8062 13.5877 13.5638 13.7566 13.3411 13.8974C13.1457 14.0209 12.9245 14.1485 12.6953 14.2739C11.8123 14.7572 11.3707 14.9989 10.9748 14.7314C10.5787 14.4638 10.5427 13.9037 10.4708 12.7835C10.4504 12.4667 10.4375 12.1561 10.4375 11.8778C10.4375 11.5994 10.4504 11.2888 10.4708 10.972C10.5427 9.85185 10.5787 9.29176 10.9748 9.02421C11.3707 8.75665 11.8123 8.99831 12.6953 9.48161C12.9245 9.607 13.1457 9.73471 13.3411 9.85819C13.5638 9.99891 13.8062 10.1679 14.0505 10.3472Z" fill="#FF0000" stroke="#FF0000" stroke-width="0.988148"/>
</svg>
