<svg width="24" height="26" viewBox="0 0 24 26" fill="none" xmlns="http://www.w3.org/2000/svg">
<path d="M20.2547 5.68581H19.2054V4.59278C19.2054 4.25974 18.9462 3.98972 18.6264 3.98972H15.8765C15.5567 3.98972 15.2976 4.25974 15.2976 4.59278V5.68581H14.2483C13.9285 5.68581 13.6693 5.95583 13.6693 6.28887V7.90958C13.6693 8.07609 13.7989 8.21111 13.9588 8.21111H20.5442C20.704 8.21111 20.8337 8.07609 20.8337 7.90958V6.28887C20.8337 5.95583 20.5745 5.68581 20.2547 5.68581ZM18.0475 5.68581H16.4555V5.19583H18.0475V5.68581ZM20.8337 9.71877V10.6233C20.8337 10.9564 20.5745 11.2264 20.2547 11.2264H14.2483C13.9285 11.2264 13.6693 10.9564 13.6693 10.6233V9.71877C13.6693 9.55224 13.7989 9.41724 13.9588 9.41724H20.5442C20.704 9.41724 20.8337 9.55224 20.8337 9.71877ZM20.8337 22.0814C20.8337 22.4144 20.5744 22.6844 20.2547 22.6844C20.0174 22.6844 3.68825 22.6844 3.46565 22.6844C3.14594 22.6844 2.88672 22.4144 2.88672 22.0814C2.88672 21.7483 3.14594 21.4783 3.46565 21.4783H4.37682V18.0656C4.37682 17.7326 4.63603 17.4625 4.95575 17.4625H7.98533C8.30501 17.4625 8.56427 17.7326 8.56427 18.0656V21.4783H9.76651V15.5317C9.76651 15.1986 10.0257 14.9286 10.3455 14.9286H13.375C13.6947 14.9286 13.9539 15.1986 13.9539 15.5317V21.4783H15.1562V12.9978C15.1562 12.6648 15.4154 12.3948 15.7351 12.3948H18.7647C19.0844 12.3948 19.3436 12.6648 19.3436 12.9978V21.4783H20.2547C20.5744 21.4783 20.8337 21.7483 20.8337 22.0814ZM4.27601 14.3169C6.45283 14.2608 8.63089 13.4854 10.4133 11.9271C10.6316 12.5353 11.4989 12.4003 11.5337 11.7498L11.606 10.3929C11.6262 10.0152 11.3106 9.71107 10.9505 9.76179L9.61166 9.95026C8.99527 10.0371 8.92956 10.9421 9.52524 11.1259C7.98352 12.416 6.12035 13.0629 4.24739 13.1111C3.92775 13.1193 3.67504 13.3959 3.68293 13.7288C3.69086 14.0632 3.95792 14.3253 4.27601 14.3169Z" fill="#F5726E"/>
<path d="M20.8337 22.0814C20.8337 22.4144 20.5744 22.6845 20.2547 22.6845C20.0174 22.6845 3.68825 22.6845 3.46565 22.6845C3.14594 22.6845 2.88672 22.4144 2.88672 22.0814C2.88672 21.7483 3.14594 21.4783 3.46565 21.4783H4.37682V18.0656C4.37682 17.7326 4.63603 17.4625 4.95575 17.4625H7.98533C8.30501 17.4625 8.56427 17.7326 8.56427 18.0656V21.4783H9.76651V15.5317C9.76651 15.1986 10.0257 14.9286 10.3455 14.9286H13.375C13.6947 14.9286 13.9539 15.1986 13.9539 15.5317V21.4783H15.1562V12.9978C15.1562 12.6648 15.4154 12.3948 15.7351 12.3948H18.7647C19.0844 12.3948 19.3436 12.6648 19.3436 12.9978V21.4783H20.2547C20.5744 21.4783 20.8337 21.7483 20.8337 22.0814ZM4.27601 14.3169C6.45283 14.2608 8.63089 13.4854 10.4133 11.9271C10.6316 12.5353 11.4989 12.4003 11.5337 11.7498L11.606 10.3929C11.6262 10.0152 11.3106 9.71108 10.9505 9.76187L9.61166 9.95027C8.99527 10.0371 8.92956 10.9421 9.52524 11.1259C7.98352 12.4161 6.12035 13.0629 4.24739 13.1111C3.92775 13.1193 3.67504 13.3959 3.68293 13.7289C3.69086 14.0632 3.95792 14.3253 4.27601 14.3169Z" fill="#52CFEE"/>
</svg>
