<svg width="21" height="20" viewBox="0 0 21 20" fill="none" xmlns="http://www.w3.org/2000/svg">
<g clip-path="url(#clip0_1508_6600)">
<path d="M19.08 2.46667H1.93178C1.20556 2.46667 0.589844 3.05747 0.589844 3.78367V15.9912C0.589844 16.7188 1.19329 17.2889 1.93178 17.2889H19.08C19.8076 17.2889 20.3528 16.7188 20.3528 15.9912V3.78367C20.3528 3.04518 19.8076 2.46667 19.08 2.46667ZM5.09835 3.21714C5.3644 3.21714 5.58074 3.43355 5.58074 3.69953C5.58074 3.96551 5.36432 4.18193 5.09835 4.18193C4.83237 4.18193 4.61595 3.96551 4.61595 3.69953C4.61595 3.43355 4.83229 3.21714 5.09835 3.21714ZM3.71344 3.21714C3.97949 3.21714 4.19583 3.43355 4.19583 3.69953C4.19583 3.96551 3.97942 4.18193 3.71344 4.18193C3.44746 4.18193 3.23105 3.96551 3.23105 3.69953C3.23105 3.43355 3.44739 3.21714 3.71344 3.21714ZM2.32854 3.21714C2.59459 3.21714 2.81093 3.43355 2.81093 3.69953C2.81093 3.96551 2.59451 4.18193 2.32854 4.18193C2.06256 4.18193 1.84614 3.96551 1.84614 3.69953C1.84614 3.43355 2.06248 3.21714 2.32854 3.21714ZM19.1551 16.0537C19.1551 16.0744 19.1632 16.0912 19.1425 16.0912H19.1051H1.84996H1.7876V16.0537V5.0119V4.97447C1.7876 4.95381 1.8293 4.93704 1.84996 4.93704H19.1425C19.1632 4.93704 19.1551 4.95381 19.1551 4.97447V16.0537ZM18.6976 4.18844H13.4574C13.1914 4.18844 12.975 3.9706 12.975 3.70282C12.975 3.43506 13.1914 3.21722 13.4574 3.21722L18.6976 3.21886C18.9637 3.21886 19.18 3.43596 19.18 3.7029C19.18 3.9706 18.9636 4.18844 18.6976 4.18844Z" fill="#424549"/>
<path d="M3.57614 7.9315H8.81632C9.08237 7.9315 9.29872 7.71343 9.29872 7.44536C9.29872 7.17841 9.0823 6.9611 8.81632 6.9611L3.57614 6.9593C3.3101 6.9593 3.09375 7.17736 3.09375 7.44536C3.09367 7.71343 3.3101 7.9315 3.57614 7.9315Z" fill="#424549"/>
<path d="M8.81632 8.60796L3.57614 8.60617C3.3101 8.60617 3.09375 8.82424 3.09375 9.09224C3.09375 9.36031 3.31016 9.57838 3.57614 9.57838H8.81632C9.08237 9.57838 9.29872 9.36031 9.29872 9.09224C9.29872 8.82521 9.0823 8.60796 8.81632 8.60796Z" fill="#424549"/>
<path d="M8.81632 10.255L3.57614 10.2532C3.3101 10.2532 3.09375 10.4713 3.09375 10.7393C3.09375 11.0073 3.31016 11.2253 3.57614 11.2253H8.81632C9.08237 11.2253 9.29872 11.0073 9.29872 10.7393C9.29872 10.4722 9.0823 10.255 8.81632 10.255Z" fill="#424549"/>
<path d="M8.81632 11.9018L3.57614 11.9C3.3101 11.9 3.09375 12.1181 3.09375 12.3861C3.09375 12.6542 3.31016 12.8723 3.57614 12.8723H8.81632C9.08237 12.8723 9.29872 12.6542 9.29872 12.3861C9.29872 12.1191 9.0823 11.9018 8.81632 11.9018Z" fill="#424549"/>
<path d="M16.9691 6.80852H11.4294C10.9134 6.80852 10.4688 7.22825 10.4688 7.74426V7.7817V13.2839V13.3213C10.4688 13.8174 10.8959 14.2196 11.392 14.2196H11.4294H16.9316H16.9691C17.4851 14.2196 17.8799 13.7998 17.8799 13.2839V7.74426C17.8799 7.22825 17.4851 6.80852 16.9691 6.80852Z" fill="#F66C3B"/>
</g>
<defs>
<clipPath id="clip0_1508_6600">
<rect width="19.763" height="19.763" fill="white" transform="translate(0.589844 -0.00370026)"/>
</clipPath>
</defs>
</svg>
